<svg width="512" height="512" viewBox="0 0 512 512" fill="none" xmlns="http://www.w3.org/2000/svg">
<circle cx="256" cy="256" r="256" fill="url(#paint0_linear_1_4042)"/>
<rect x="139" y="239" width="234" height="39" fill="url(#paint1_linear_1_4042)"/>
<g filter="url(#filter0_dd_1_4042)">
<path d="M401 147.98C401 139.144 393.837 131.98 385 131.98H128C119.163 131.98 112 139.144 112 147.98V219.98C112 228.817 119.163 235.98 128 235.98H385C393.837 235.98 401 228.817 401 219.98V147.98Z" fill="url(#paint2_linear_1_4042)"/>
</g>
<g filter="url(#filter1_i_1_4042)">
<path d="M354.348 173C360.423 173 365.348 177.925 365.348 184C365.348 190.075 360.423 195 354.348 195L280.348 195C274.273 195 269.348 190.075 269.348 184C269.348 177.925 274.273 173 280.348 173L354.348 173Z" fill="#ACDFFF"/>
</g>
<path d="M366.348 184C366.348 177.373 360.975 172 354.348 172L280.348 172C273.72 172 268.348 177.373 268.348 184C268.348 190.627 273.72 196 280.348 196L354.348 196C360.975 196 366.348 190.627 366.348 184Z" stroke="white" stroke-opacity="0.4" stroke-width="2"/>
<path d="M402 151.98C402 140.382 392.598 130.98 381 130.98H132C120.402 130.98 111 140.382 111 151.98V215.98C111 227.578 120.402 236.98 132 236.98H381C392.598 236.98 402 227.578 402 215.98V151.98Z" stroke="url(#paint3_radial_1_4042)" stroke-width="2"/>
<g filter="url(#filter2_dd_1_4042)">
<path d="M401 291.98C401 283.144 393.837 275.98 385 275.98H128C119.163 275.98 112 283.144 112 291.98V363.98C112 372.817 119.163 379.98 128 379.98H385C393.837 379.98 401 372.817 401 363.98V291.98Z" fill="url(#paint4_linear_1_4042)"/>
</g>
<g filter="url(#filter3_i_1_4042)">
<path d="M354.348 317C360.423 317 365.348 321.925 365.348 328C365.348 334.075 360.423 339 354.348 339L280.348 339C274.273 339 269.348 334.075 269.348 328C269.348 321.925 274.273 317 280.348 317L354.348 317Z" fill="#ACDFFF"/>
</g>
<path d="M366.348 328C366.348 321.373 360.975 316 354.348 316L280.348 316C273.72 316 268.348 321.373 268.348 328C268.348 334.627 273.72 340 280.348 340L354.348 340C360.975 340 366.348 334.627 366.348 328Z" stroke="white" stroke-opacity="0.4" stroke-width="2"/>
<path d="M402 295.98C402 284.382 392.598 274.98 381 274.98H132C120.402 274.98 111 284.382 111 295.98V359.98C111 371.578 120.402 380.98 132 380.98H381C392.598 380.98 402 371.578 402 359.98V295.98Z" stroke="url(#paint5_radial_1_4042)" stroke-width="2"/>
<defs>
<filter id="filter0_dd_1_4042" x="88" y="113.98" width="337" height="152" filterUnits="userSpaceOnUse" color-interpolation-filters="sRGB">
<feFlood flood-opacity="0" result="BackgroundImageFix"/>
<feColorMatrix in="SourceAlpha" type="matrix" values="0 0 0 0 0 0 0 0 0 0 0 0 0 0 0 0 0 0 127 0" result="hardAlpha"/>
<feOffset dy="2"/>
<feGaussianBlur stdDeviation="4"/>
<feComposite in2="hardAlpha" operator="out"/>
<feColorMatrix type="matrix" values="0 0 0 0 0 0 0 0 0 0.188238 0 0 0 0 0.388753 0 0 0 0.2 0"/>
<feBlend mode="normal" in2="BackgroundImageFix" result="effect1_dropShadow_1_4042"/>
<feColorMatrix in="SourceAlpha" type="matrix" values="0 0 0 0 0 0 0 0 0 0 0 0 0 0 0 0 0 0 127 0" result="hardAlpha"/>
<feOffset dy="6"/>
<feGaussianBlur stdDeviation="12"/>
<feComposite in2="hardAlpha" operator="out"/>
<feColorMatrix type="matrix" values="0 0 0 0 0 0 0 0 0 0.188235 0 0 0 0 0.388235 0 0 0 0.12 0"/>
<feBlend mode="normal" in2="effect1_dropShadow_1_4042" result="effect2_dropShadow_1_4042"/>
<feBlend mode="normal" in="SourceGraphic" in2="effect2_dropShadow_1_4042" result="shape"/>
</filter>
<filter id="filter1_i_1_4042" x="267.348" y="171" width="100" height="30" filterUnits="userSpaceOnUse" color-interpolation-filters="sRGB">
<feFlood flood-opacity="0" result="BackgroundImageFix"/>
<feBlend mode="normal" in="SourceGraphic" in2="BackgroundImageFix" result="shape"/>
<feColorMatrix in="SourceAlpha" type="matrix" values="0 0 0 0 0 0 0 0 0 0 0 0 0 0 0 0 0 0 127 0" result="hardAlpha"/>
<feOffset dy="4"/>
<feGaussianBlur stdDeviation="2"/>
<feComposite in2="hardAlpha" operator="arithmetic" k2="-1" k3="1"/>
<feColorMatrix type="matrix" values="0 0 0 0 0 0 0 0 0 0.243137 0 0 0 0 0.494118 0 0 0 0.4 0"/>
<feBlend mode="normal" in2="shape" result="effect1_innerShadow_1_4042"/>
</filter>
<filter id="filter2_dd_1_4042" x="88" y="257.98" width="337" height="152" filterUnits="userSpaceOnUse" color-interpolation-filters="sRGB">
<feFlood flood-opacity="0" result="BackgroundImageFix"/>
<feColorMatrix in="SourceAlpha" type="matrix" values="0 0 0 0 0 0 0 0 0 0 0 0 0 0 0 0 0 0 127 0" result="hardAlpha"/>
<feOffset dy="2"/>
<feGaussianBlur stdDeviation="4"/>
<feComposite in2="hardAlpha" operator="out"/>
<feColorMatrix type="matrix" values="0 0 0 0 0 0 0 0 0 0.188238 0 0 0 0 0.388753 0 0 0 0.2 0"/>
<feBlend mode="normal" in2="BackgroundImageFix" result="effect1_dropShadow_1_4042"/>
<feColorMatrix in="SourceAlpha" type="matrix" values="0 0 0 0 0 0 0 0 0 0 0 0 0 0 0 0 0 0 127 0" result="hardAlpha"/>
<feOffset dy="6"/>
<feGaussianBlur stdDeviation="12"/>
<feComposite in2="hardAlpha" operator="out"/>
<feColorMatrix type="matrix" values="0 0 0 0 0 0 0 0 0 0.188235 0 0 0 0 0.388235 0 0 0 0.12 0"/>
<feBlend mode="normal" in2="effect1_dropShadow_1_4042" result="effect2_dropShadow_1_4042"/>
<feBlend mode="normal" in="SourceGraphic" in2="effect2_dropShadow_1_4042" result="shape"/>
</filter>
<filter id="filter3_i_1_4042" x="267.348" y="315" width="100" height="30" filterUnits="userSpaceOnUse" color-interpolation-filters="sRGB">
<feFlood flood-opacity="0" result="BackgroundImageFix"/>
<feBlend mode="normal" in="SourceGraphic" in2="BackgroundImageFix" result="shape"/>
<feColorMatrix in="SourceAlpha" type="matrix" values="0 0 0 0 0 0 0 0 0 0 0 0 0 0 0 0 0 0 127 0" result="hardAlpha"/>
<feOffset dy="4"/>
<feGaussianBlur stdDeviation="2"/>
<feComposite in2="hardAlpha" operator="arithmetic" k2="-1" k3="1"/>
<feColorMatrix type="matrix" values="0 0 0 0 0 0 0 0 0 0.243137 0 0 0 0 0.494118 0 0 0 0.4 0"/>
<feBlend mode="normal" in2="shape" result="effect1_innerShadow_1_4042"/>
</filter>
<linearGradient id="paint0_linear_1_4042" x1="256" y1="0" x2="256" y2="512" gradientUnits="userSpaceOnUse">
<stop stop-color="#40BEFF"/>
<stop offset="1" stop-color="#3389FE"/>
</linearGradient>
<linearGradient id="paint1_linear_1_4042" x1="138.5" y1="258.5" x2="373" y2="258.5" gradientUnits="userSpaceOnUse">
<stop stop-color="#3F9FF9"/>
<stop offset="0.026278" stop-color="#94CAFE"/>
<stop offset="0.112638" stop-color="#77BDFF"/>
<stop offset="0.885333" stop-color="#77BDFF"/>
<stop offset="0.974441" stop-color="#94CAFE"/>
<stop offset="1" stop-color="#3F9FF9"/>
</linearGradient>
<linearGradient id="paint2_linear_1_4042" x1="256.5" y1="131.98" x2="256.5" y2="248" gradientUnits="userSpaceOnUse">
<stop offset="0.259801" stop-color="#F2F7FF"/>
<stop offset="1" stop-color="#C1DBFF"/>
</linearGradient>
<radialGradient id="paint3_radial_1_4042" cx="0" cy="0" r="1" gradientUnits="userSpaceOnUse" gradientTransform="translate(209.766 125.438) rotate(74.2539) scale(114.808 187.666)">
<stop stop-color="white"/>
<stop offset="1" stop-color="#B3D2FD"/>
</radialGradient>
<linearGradient id="paint4_linear_1_4042" x1="256.5" y1="275.98" x2="256.5" y2="392" gradientUnits="userSpaceOnUse">
<stop offset="0.259801" stop-color="#F2F7FF"/>
<stop offset="1" stop-color="#C1DBFF"/>
</linearGradient>
<radialGradient id="paint5_radial_1_4042" cx="0" cy="0" r="1" gradientUnits="userSpaceOnUse" gradientTransform="translate(209.766 269.438) rotate(74.2539) scale(114.808 187.666)">
<stop stop-color="white"/>
<stop offset="1" stop-color="#B3D2FD"/>
</radialGradient>
</defs>
</svg>
