<svg role="img" viewBox="0 0 96 96" xmlns="http://www.w3.org/2000/svg" id="Django--Streamline-Simple-Icons" height="96" width="96">
  <desc>
    Django Streamline Icon: https://streamlinehq.com
  </desc>
  <title>Django</title>
  <path d="M44.584 0h15.696v72.664c-8.052 1.528 -13.964 2.14 -20.384 2.14 -19.164 0 -29.152 -8.664 -29.152 -25.28 0 -16.008 10.6 -26.4 27.012 -26.4 2.548 0 4.484 0.2 6.828 0.812zm0 36.572a15.576 15.576 0 0 0 -5.3 -0.816c-7.952 0 -12.536 4.892 -12.536 13.46 0 8.36 4.384 12.944 12.436 12.944 1.732 0 3.16 -0.1 5.4 -0.408V36.568zM85.256 24.24v36.392c0 12.536 -0.916 18.552 -3.668 23.748 -2.548 4.996 -5.912 8.156 -12.844 11.62l-14.576 -6.932c6.932 -3.26 10.296 -6.12 12.436 -10.5 2.244 -4.484 2.956 -9.684 2.956 -23.34V24.236h15.696zM69.56 0.084h15.696v16.104H69.56z" fill="#fefeff" stroke-width="4"></path>
</svg>