<svg role="img" viewBox="0 0 96 96" xmlns="http://www.w3.org/2000/svg" id="Express--Streamline-Simple-Icons" height="96" width="96">
  <desc>
    Express Streamline Icon: https://streamlinehq.com
  </desc>
  <title>Express</title>
  <path d="M96 74.352a6.116 6.116 0 0 1 -7.58 -2.88l-13.8 -19.084 -2 -2.668 -16.012 21.776a5.864 5.864 0 0 1 -7.208 2.832l20.632 -27.68 -19.192 -25.004a6.38 6.38 0 0 1 7.6 2.664l14.304 19.32 14.384 -19.24a5.74 5.74 0 0 1 7.152 -2.672L86.832 31.6l-10.088 13.132a2.664 2.664 0 0 0 0 3.976l19.216 25.648zM0.008 46.304l1.68 -8.3c4.616 -16.412 23.432 -23.24 36.376 -13.08 7.58 5.956 9.472 14.388 9.1 23.892H4.464C3.772 65.788 16.02 76.036 31.68 70.8a16.312 16.312 0 0 0 10.328 -11.504c0.828 -2.664 2.192 -3.12 4.696 -2.352a21.668 21.668 0 0 1 -10.356 15.828 25.088 25.088 0 0 1 -29.224 -3.732 26.3 26.3 0 0 1 -6.56 -15.432c0 -0.94 -0.32 -1.82 -0.536 -2.664A353.32 353.32 0 0 1 0 46.308zm4.508 -1.144h38.616c-0.24 -12.304 -8.004 -21.032 -18.36 -21.112 -11.528 -0.16 -19.776 8.376 -20.284 21.056z" fill="#fefeff" stroke-width="4"></path>
</svg>