<svg role="img" viewBox="0 0 96 96" xmlns="http://www.w3.org/2000/svg" id="Rust--Streamline-Simple-Icons" height="96" width="96">
  <desc>
    Rust Streamline Icon: https://streamlinehq.com
  </desc>
  <title>Rust</title>
  <path d="m95.3384 46.8132 -4.0292 -2.4944a54.9072 54.9072 0 0 0 -0.1132 -1.1744l3.4624 -3.2276a1.3932 1.3932 0 0 0 -0.4616 -2.312l-4.4264 -1.656a33.9832 33.9832 0 0 0 -0.348 -1.1424l2.7616 -3.8348a1.3848 1.3848 0 0 0 -0.9028 -2.1784l-4.6652 -0.7576a37.4296 37.4296 0 0 0 -0.5628 -1.0488l1.96 -4.3044a1.3748 1.3748 0 0 0 -0.1096 -1.3444 1.3944 1.3944 0 0 0 -1.2024 -0.616l-4.738 0.1664a26.9776 26.9776 0 0 0 -0.7492 -0.9072l1.0892 -4.612a1.3888 1.3888 0 0 0 -1.668 -1.6688l-4.6128 1.0896a56.0732 56.0732 0 0 0 -0.9112 -0.7492l0.166 -4.738a1.3768 1.3768 0 0 0 -1.96 -1.312l-4.304 1.964c-0.3488 -0.1904 -0.6968 -0.3808 -1.0492 -0.5628l-0.7612 -4.6692A1.3932 1.3932 0 0 0 65.024 3.82l-3.8388 2.762a33.9468 33.9468 0 0 0 -1.142 -0.344l-1.656 -4.4264a1.3932 1.3932 0 0 0 -2.3124 -0.4616l-3.2276 3.4664a37.1744 37.1744 0 0 0 -1.1744 -0.1136L49.1784 0.6732a1.3848 1.3848 0 0 0 -2.3568 0l-2.4944 4.0292a54.9532 54.9532 0 0 0 -1.1744 0.1136L39.9212 1.3496a1.3848 1.3848 0 0 0 -2.312 0.4616l-1.6564 4.426c-0.3848 0.1096 -0.7612 0.2268 -1.142 0.344L30.976 3.82a1.3932 1.3932 0 0 0 -2.1788 0.9032L28.036 9.392a37.4296 37.4296 0 0 0 -1.0488 0.5628l-4.3048 -1.964a1.3848 1.3848 0 0 0 -1.96 1.312l0.1664 4.738a31.9304 31.9304 0 0 0 -0.9112 0.7492L15.3652 13.7a1.3888 1.3888 0 0 0 -1.6684 1.6684l1.0852 4.6124c-0.2512 0.3 -0.502 0.6036 -0.7452 0.9072l-4.738 -0.166a1.3848 1.3848 0 0 0 -1.312 1.96l1.964 4.3044a36.668 36.668 0 0 0 -0.5628 1.0488l-4.6648 0.7576a1.3932 1.3932 0 0 0 -0.9032 2.1784l2.7616 3.8348a53.212 53.212 0 0 0 -0.348 1.142l-4.426 1.656a1.3932 1.3932 0 0 0 -0.462 2.3124l3.4624 3.228a37.1744 37.1744 0 0 0 -0.1132 1.174l-4.0292 2.4944a1.3768 1.3768 0 0 0 0 2.3568l4.0292 2.4944c0.032 0.3928 0.0728 0.7856 0.1132 1.1744l-3.4624 3.2316a1.3848 1.3848 0 0 0 0.462 2.312l4.426 1.6564c0.1092 0.3848 0.2268 0.7656 0.348 1.142l-2.7616 3.8348a1.3808 1.3808 0 0 0 0.9072 2.1788l4.6648 0.7572c0.1824 0.352 0.3688 0.7004 0.5632 1.0488l-1.964 4.3048a1.3848 1.3848 0 0 0 1.312 1.96l4.7336 -0.166c0.2472 0.3076 0.494 0.6112 0.7492 0.9108l-1.0852 4.6164a1.3848 1.3848 0 0 0 1.6684 1.6644l4.612 -1.0852c0.3 0.2552 0.604 0.502 0.9116 0.7452l-0.166 4.738a1.3768 1.3768 0 0 0 1.96 1.308l4.3044 -1.96c0.348 0.1944 0.6964 0.3804 1.0488 0.5628l0.7612 4.6648a1.3932 1.3932 0 0 0 2.1788 0.9072l3.8348 -2.7616a37.196 37.196 0 0 0 1.142 0.348l1.656 4.4264a1.3808 1.3808 0 0 0 2.3124 0.4616l3.2316 -3.4624c0.3888 0.0444 0.7816 0.0812 1.1744 0.1176l2.4944 4.0292a1.3888 1.3888 0 0 0 2.3568 0l2.4944 -4.0292c0.3928 -0.0364 0.7856 -0.0732 1.1744 -0.1176l3.2276 3.4624a1.3932 1.3932 0 0 0 2.312 -0.4616l1.6564 -4.4264a33.8504 33.8504 0 0 0 1.142 -0.348l3.8348 2.7616a1.3808 1.3808 0 0 0 2.1788 -0.9072l0.7612 -4.6648c0.352 -0.1824 0.7004 -0.3724 1.0488 -0.5628l4.3048 1.96a1.3888 1.3888 0 0 0 1.96 -1.308l-0.166 -4.738a26.9068 26.9068 0 0 0 0.9068 -0.7452l4.6124 1.0852a1.3888 1.3888 0 0 0 1.6684 -1.664l-1.0852 -4.6168c0.2512 -0.2996 0.502 -0.6032 0.7452 -0.9112l4.738 0.166a1.3768 1.3768 0 0 0 1.312 -1.96l-1.96 -4.304c0.19 -0.3488 0.3804 -0.6968 0.5628 -1.0492l4.6648 -0.7572a1.3932 1.3932 0 0 0 0.9032 -2.1788l-2.7616 -3.8348 0.348 -1.142 4.4264 -1.656a1.3848 1.3848 0 0 0 0.4616 -2.3124l-3.4624 -3.2316c0.0404 -0.3888 0.0808 -0.7816 0.1132 -1.1744l4.0292 -2.4944a1.3768 1.3768 0 0 0 0 -2.3568zm-26.9652 33.4204a2.8552 2.8552 0 0 1 1.1944 -5.584 2.856 2.856 0 1 1 -1.1988 5.584zm-1.3688 -9.2568a2.596 2.596 0 0 0 -3.086 2l-1.4292 6.674c-4.414 2.004 -9.314 3.118 -14.4772 3.118a34.9472 34.9472 0 0 1 -14.7804 -3.256l-1.4296 -6.6736a2.592 2.592 0 0 0 -3.0856 -1.996l-5.892 1.2632a34.8864 34.8864 0 0 1 -3.0452 -3.592h28.6704c0.324 0 0.5424 -0.0564 0.5424 -0.352v-10.144c0 -0.296 -0.2144 -0.3524 -0.5424 -0.3524h-8.3864v-6.4308h9.0708c0.826 0 4.426 0.2348 5.576 4.8352 0.3604 1.4132 1.15 6.0176 1.6928 7.4916 0.5384 1.652 2.7332 4.9524 5.074 4.9524h14.2864a2.9968 2.9968 0 0 0 0.5184 -0.0524 35.1496 35.1496 0 0 1 -3.2476 3.8104zM27.3476 80.096a2.856 2.856 0 1 1 -1.1988 -5.584 2.856 2.856 0 0 1 1.1988 5.584zM16.4708 35.9888a2.8548 2.8548 0 1 1 -5.216 2.3164 2.8548 2.8548 0 0 1 5.216 -2.316zm-3.3408 7.9252 6.1388 -2.7296a2.6 2.6 0 0 0 1.32 -3.434l-1.2632 -2.8588h4.9728v22.41H14.2676a35.1012 35.1012 0 0 1 -1.1336 -13.392zm26.9372 -2.1748V35.1344h11.8404c0.612 0 4.3168 0.7088 4.3168 3.4788 0 2.3 -2.8428 3.126 -5.1792 3.126zm43.0296 5.9448c0 0.8748 -0.032 1.7452 -0.0972 2.604h-3.6c-0.36 0 -0.506 0.2344 -0.506 0.5908v1.652c0 3.892 -2.1948 4.7384 -4.1184 4.9528 -1.8304 0.2068 -3.8592 -0.7652 -4.11 -1.8868 -1.0816 -6.0744 -2.8792 -7.3744 -5.722 -9.6136 3.5268 -2.2396 7.196 -5.544 7.196 -9.966 0 -4.7744 -3.276 -7.7832 -5.5076 -9.2612 -3.13 -2.0652 -6.5964 -2.478 -7.532 -2.478H21.8728a35.0604 35.0604 0 0 1 19.628 -11.0796l4.3896 4.604a2.592 2.592 0 0 0 3.6728 0.0852l4.908 -4.6972a35.1012 35.1012 0 0 1 24.0176 17.1048l-3.3612 7.5928a2.608 2.608 0 0 0 1.32 3.434l6.4712 2.8752c0.1132 1.15 0.17 2.308 0.17 3.4868zm-37.2024 -38.3972a2.8512 2.8512 0 1 1 3.936 4.1264 2.8548 2.8548 0 0 1 -3.936 -4.1264zm33.3556 26.84a2.8428 2.8428 0 0 1 3.758 -1.45 2.8548 2.8548 0 1 1 -3.762 1.454z" fill="#ffffff" stroke-width="4"></path>
</svg>