<svg width="552" height="548" viewBox="0 0 552 548" fill="none" xmlns="http://www.w3.org/2000/svg">
<g filter="url(#filter0_d_1974_117466)">
<circle cx="276" cy="272" r="256" fill="url(#paint0_linear_1974_117466)"/>
</g>
<path d="M179.243 139.812L131 187.744V239H421V187.744L370.705 139.558C366.982 135.991 362.025 134 356.869 134H193.34C188.058 134 182.99 136.089 179.243 139.812Z" fill="#9479FF"/>
<g filter="url(#filter1_d_1974_117466)">
<rect x="165" y="143" width="222" height="206" rx="16" fill="url(#paint1_linear_1974_117466)"/>
<rect x="166" y="144" width="220" height="204" rx="15" stroke="white" stroke-opacity="0.6" stroke-width="2"/>
</g>
<g filter="url(#filter2_d_1974_117466)">
<rect x="145" y="160" width="261" height="157" rx="16" fill="url(#paint2_linear_1974_117466)"/>
<rect x="146" y="161" width="259" height="155" rx="15" stroke="white" stroke-opacity="0.6" stroke-width="2"/>
</g>
<g filter="url(#filter3_dd_1974_117466)">
<path d="M131 203.82C131 194.984 138.163 187.82 147 187.82H195.052C199.828 187.82 204.354 189.954 207.393 193.638L224.982 214.955C228.021 218.639 232.547 220.773 237.323 220.773H306.065C310.045 220.773 313.882 219.289 316.827 216.612L343.923 191.981C346.868 189.304 350.705 187.82 354.685 187.82H405C413.837 187.82 421 194.984 421 203.82V368.705C421 390.796 403.091 408.705 381 408.705H171C148.909 408.705 131 390.796 131 368.705V203.82Z" fill="#F8E9FF"/>
</g>
<g filter="url(#filter4_d_1974_117466)">
<path d="M131 203.82C131 194.984 138.163 187.82 147 187.82H195.052C199.828 187.82 204.354 189.954 207.393 193.638L224.982 214.955C228.021 218.639 232.547 220.773 237.323 220.773H306.065C310.045 220.773 313.882 219.289 316.827 216.612L343.923 191.981C346.868 189.304 350.705 187.82 354.685 187.82H405C413.837 187.82 421 194.984 421 203.82V368.705C421 390.796 403.091 408.705 381 408.705H171C148.909 408.705 131 390.796 131 368.705V203.82Z" fill="#F8E9FF"/>
</g>
<mask id="mask0_1974_117466" style="mask-type:alpha" maskUnits="userSpaceOnUse" x="131" y="187" width="290" height="222">
<path d="M131 187.82H196.937C200.519 187.82 203.914 189.42 206.194 192.183L226.181 216.41C228.461 219.173 231.856 220.773 235.438 220.773H307.611C310.596 220.773 313.474 219.66 315.683 217.652L345.067 190.941C347.276 188.933 350.154 187.82 353.139 187.82H421V368.705C421 390.796 403.091 408.705 381 408.705H171C148.909 408.705 131 390.796 131 368.705V187.82Z" fill="url(#paint3_linear_1974_117466)"/>
</mask>
<g mask="url(#mask0_1974_117466)">
<path d="M131 184.898H202.594L229.781 186H312.25L348.5 184.898H421V368.706C421 390.798 403.091 408.706 381 408.706H171C148.909 408.706 131 390.798 131 368.706V184.898Z" fill="url(#paint4_linear_1974_117466)"/>
<g style="mix-blend-mode:multiply" filter="url(#filter5_f_1974_117466)">
<ellipse cx="174.217" cy="418.765" rx="190" ry="56.8846" transform="rotate(14.9413 174.217 418.765)" fill="url(#paint5_radial_1974_117466)" fill-opacity="0.4"/>
</g>
<g style="mix-blend-mode:multiply" filter="url(#filter6_f_1974_117466)">
<ellipse cx="190" cy="56.8846" rx="190" ry="56.8846" transform="matrix(-0.966191 0.257829 0.257829 0.966191 525.846 314.816)" fill="url(#paint6_radial_1974_117466)" fill-opacity="0.4"/>
</g>
</g>
<mask id="path-13-inside-1_1974_117466" fill="white">
<path fill-rule="evenodd" clip-rule="evenodd" d="M232.449 275.261C236.354 279.166 236.354 285.498 232.449 289.403L204.767 317.084L232.068 344.385C235.973 348.29 235.973 354.622 232.068 358.527C228.163 362.432 221.831 362.432 217.926 358.527L184.32 324.921C183.027 323.628 182.127 322.092 181.618 320.46C180.028 317.088 180.627 312.941 183.415 310.153L218.307 275.261C222.212 271.356 228.543 271.356 232.449 275.261ZM318.858 275.266C314.953 279.171 314.953 285.503 318.858 289.408L346.535 317.085L319.239 344.382C315.333 348.287 315.333 354.619 319.239 358.524C323.144 362.429 329.475 362.429 333.381 358.524L366.987 324.918C368.273 323.632 369.171 322.104 369.681 320.48C371.28 317.106 370.684 312.95 367.892 310.158L333 275.266C329.095 271.361 322.763 271.361 318.858 275.266ZM286.587 274.511C281.252 273.081 275.769 276.247 274.339 281.582L256.477 348.245C255.047 353.58 258.213 359.063 263.548 360.493C268.883 361.922 274.366 358.756 275.795 353.422L293.658 286.758C295.087 281.423 291.921 275.94 286.587 274.511Z"/>
</mask>
<g filter="url(#filter7_i_1974_117466)">
<path fill-rule="evenodd" clip-rule="evenodd" d="M232.449 275.261C236.354 279.166 236.354 285.498 232.449 289.403L204.767 317.084L232.068 344.385C235.973 348.29 235.973 354.622 232.068 358.527C228.163 362.432 221.831 362.432 217.926 358.527L184.32 324.921C183.027 323.628 182.127 322.092 181.618 320.46C180.028 317.088 180.627 312.941 183.415 310.153L218.307 275.261C222.212 271.356 228.543 271.356 232.449 275.261ZM318.858 275.266C314.953 279.171 314.953 285.503 318.858 289.408L346.535 317.085L319.239 344.382C315.333 348.287 315.333 354.619 319.239 358.524C323.144 362.429 329.475 362.429 333.381 358.524L366.987 324.918C368.273 323.632 369.171 322.104 369.681 320.48C371.28 317.106 370.684 312.95 367.892 310.158L333 275.266C329.095 271.361 322.763 271.361 318.858 275.266ZM286.587 274.511C281.252 273.081 275.769 276.247 274.339 281.582L256.477 348.245C255.047 353.58 258.213 359.063 263.548 360.493C268.883 361.922 274.366 358.756 275.795 353.422L293.658 286.758C295.087 281.423 291.921 275.94 286.587 274.511Z" fill="url(#paint7_linear_1974_117466)"/>
</g>
<path d="M232.449 289.403L233.156 290.11L232.449 289.403ZM232.449 275.261L231.742 275.968L232.449 275.261ZM204.767 317.084L204.06 316.377L203.353 317.084L204.06 317.792L204.767 317.084ZM232.068 344.385L231.361 345.092L232.068 344.385ZM232.068 358.527L231.361 357.82L232.068 358.527ZM184.32 324.921L183.612 325.628H183.612L184.32 324.921ZM181.618 320.46L182.573 320.163L182.553 320.097L182.523 320.034L181.618 320.46ZM183.415 310.153L182.708 309.446H182.708L183.415 310.153ZM218.307 275.261L217.599 274.554L218.307 275.261ZM318.858 289.408L319.565 288.701L318.858 289.408ZM318.858 275.266L319.565 275.973V275.973L318.858 275.266ZM346.535 317.085L347.242 317.793L347.949 317.085L347.242 316.378L346.535 317.085ZM319.239 358.524L319.946 357.817L319.239 358.524ZM366.987 324.918L366.28 324.211V324.211L366.987 324.918ZM369.681 320.48L368.777 320.052L368.747 320.115L368.727 320.181L369.681 320.48ZM367.892 310.158L368.599 309.451L367.892 310.158ZM333 275.266L333.707 274.559V274.559L333 275.266ZM274.339 281.582L273.373 281.323L274.339 281.582ZM286.587 274.511L286.328 275.476L286.587 274.511ZM256.477 348.245L257.443 348.504L256.477 348.245ZM263.548 360.493L263.807 359.527L263.548 360.493ZM275.795 353.422L274.829 353.163L275.795 353.422ZM293.658 286.758L292.692 286.499L293.658 286.758ZM233.156 290.11C237.452 285.814 237.452 278.85 233.156 274.554L231.742 275.968C235.256 279.483 235.256 285.181 231.742 288.696L233.156 290.11ZM205.474 317.792L233.156 290.11L231.742 288.696L204.06 316.377L205.474 317.792ZM232.775 343.678L205.474 316.377L204.06 317.792L231.361 345.092L232.775 343.678ZM232.775 359.234C237.071 354.939 237.071 347.974 232.775 343.678L231.361 345.092C234.876 348.607 234.876 354.305 231.361 357.82L232.775 359.234ZM217.219 359.234C221.514 363.53 228.479 363.53 232.775 359.234L231.361 357.82C227.846 361.335 222.148 361.335 218.633 357.82L217.219 359.234ZM183.612 325.628L217.219 359.234L218.633 357.82L185.027 324.214L183.612 325.628ZM180.664 320.758C181.219 322.541 182.203 324.218 183.612 325.628L185.027 324.214C183.851 323.039 183.034 321.644 182.573 320.163L180.664 320.758ZM182.708 309.446C179.612 312.541 178.949 317.145 180.714 320.887L182.523 320.034C181.107 317.031 181.642 313.34 184.122 310.86L182.708 309.446ZM217.599 274.554L182.708 309.446L184.122 310.86L219.014 275.968L217.599 274.554ZM233.156 274.554C228.86 270.258 221.895 270.258 217.599 274.554L219.014 275.968C222.528 272.453 228.227 272.453 231.742 275.968L233.156 274.554ZM319.565 288.701C316.05 285.186 316.05 279.488 319.565 275.973L318.151 274.559C313.855 278.855 313.855 285.819 318.151 290.115L319.565 288.701ZM347.242 316.378L319.565 288.701L318.151 290.115L345.828 317.793L347.242 316.378ZM319.946 345.089L347.242 317.793L345.828 316.378L318.531 343.675L319.946 345.089ZM319.946 357.817C316.431 354.302 316.431 348.604 319.946 345.089L318.531 343.675C314.236 347.971 314.236 354.936 318.531 359.231L319.946 357.817ZM332.674 357.817C329.159 361.332 323.46 361.332 319.946 357.817L318.531 359.231C322.827 363.527 329.792 363.527 334.088 359.231L332.674 357.817ZM366.28 324.211L332.674 357.817L334.088 359.231L367.694 325.625L366.28 324.211ZM368.727 320.181C368.264 321.654 367.45 323.041 366.28 324.211L367.694 325.625C369.097 324.222 370.078 322.553 370.635 320.78L368.727 320.181ZM367.185 310.865C369.668 313.349 370.201 317.047 368.777 320.052L370.584 320.909C372.359 317.164 371.699 312.551 368.599 309.451L367.185 310.865ZM332.293 275.973L367.185 310.865L368.599 309.451L333.707 274.559L332.293 275.973ZM319.565 275.973C323.08 272.458 328.778 272.458 332.293 275.973L333.707 274.559C329.411 270.263 322.446 270.263 318.151 274.559L319.565 275.973ZM275.305 281.84C276.592 277.039 281.527 274.19 286.328 275.476L286.846 273.545C280.977 271.972 274.946 275.455 273.373 281.323L275.305 281.84ZM257.443 348.504L275.305 281.84L273.373 281.323L255.511 347.986L257.443 348.504ZM263.807 359.527C259.006 358.24 256.156 353.305 257.443 348.504L255.511 347.986C253.939 353.855 257.421 359.886 263.289 361.459L263.807 359.527ZM274.829 353.163C273.543 357.964 268.608 360.813 263.807 359.527L263.289 361.459C269.157 363.031 275.189 359.549 276.761 353.68L274.829 353.163ZM292.692 286.499L274.829 353.163L276.761 353.68L294.624 287.017L292.692 286.499ZM286.328 275.476C291.129 276.763 293.978 281.698 292.692 286.499L294.624 287.017C296.196 281.149 292.714 275.117 286.846 273.545L286.328 275.476Z" fill="white" fill-opacity="0.4" mask="url(#path-13-inside-1_1974_117466)"/>
<defs>
<filter id="filter0_d_1974_117466" x="0" y="0" width="552" height="552" filterUnits="userSpaceOnUse" color-interpolation-filters="sRGB">
<feFlood flood-opacity="0" result="BackgroundImageFix"/>
<feColorMatrix in="SourceAlpha" type="matrix" values="0 0 0 0 0 0 0 0 0 0 0 0 0 0 0 0 0 0 127 0" result="hardAlpha"/>
<feOffset dy="4"/>
<feGaussianBlur stdDeviation="10"/>
<feComposite in2="hardAlpha" operator="out"/>
<feColorMatrix type="matrix" values="0 0 0 0 0 0 0 0 0 0 0 0 0 0 0 0 0 0 0.5 0"/>
<feBlend mode="normal" in2="BackgroundImageFix" result="effect1_dropShadow_1974_117466"/>
<feBlend mode="normal" in="SourceGraphic" in2="effect1_dropShadow_1974_117466" result="shape"/>
</filter>
<filter id="filter1_d_1974_117466" x="161" y="135" width="230" height="214" filterUnits="userSpaceOnUse" color-interpolation-filters="sRGB">
<feFlood flood-opacity="0" result="BackgroundImageFix"/>
<feColorMatrix in="SourceAlpha" type="matrix" values="0 0 0 0 0 0 0 0 0 0 0 0 0 0 0 0 0 0 127 0" result="hardAlpha"/>
<feOffset dy="-4"/>
<feGaussianBlur stdDeviation="2"/>
<feComposite in2="hardAlpha" operator="out"/>
<feColorMatrix type="matrix" values="0 0 0 0 0.235294 0 0 0 0 0.145098 0 0 0 0 0.631373 0 0 0 0.24 0"/>
<feBlend mode="normal" in2="BackgroundImageFix" result="effect1_dropShadow_1974_117466"/>
<feBlend mode="normal" in="SourceGraphic" in2="effect1_dropShadow_1974_117466" result="shape"/>
</filter>
<filter id="filter2_d_1974_117466" x="141" y="152" width="269" height="165" filterUnits="userSpaceOnUse" color-interpolation-filters="sRGB">
<feFlood flood-opacity="0" result="BackgroundImageFix"/>
<feColorMatrix in="SourceAlpha" type="matrix" values="0 0 0 0 0 0 0 0 0 0 0 0 0 0 0 0 0 0 127 0" result="hardAlpha"/>
<feOffset dy="-4"/>
<feGaussianBlur stdDeviation="2"/>
<feComposite in2="hardAlpha" operator="out"/>
<feColorMatrix type="matrix" values="0 0 0 0 0.235294 0 0 0 0 0.145098 0 0 0 0 0.631373 0 0 0 0.12 0"/>
<feBlend mode="normal" in2="BackgroundImageFix" result="effect1_dropShadow_1974_117466"/>
<feBlend mode="normal" in="SourceGraphic" in2="effect1_dropShadow_1974_117466" result="shape"/>
</filter>
<filter id="filter3_dd_1974_117466" x="107" y="169.82" width="338" height="268.883" filterUnits="userSpaceOnUse" color-interpolation-filters="sRGB">
<feFlood flood-opacity="0" result="BackgroundImageFix"/>
<feColorMatrix in="SourceAlpha" type="matrix" values="0 0 0 0 0 0 0 0 0 0 0 0 0 0 0 0 0 0 127 0" result="hardAlpha"/>
<feOffset dy="6"/>
<feGaussianBlur stdDeviation="12"/>
<feComposite in2="hardAlpha" operator="out"/>
<feColorMatrix type="matrix" values="0 0 0 0 0.233736 0 0 0 0 0.146399 0 0 0 0 0.631608 0 0 0 0.5 0"/>
<feBlend mode="normal" in2="BackgroundImageFix" result="effect1_dropShadow_1974_117466"/>
<feColorMatrix in="SourceAlpha" type="matrix" values="0 0 0 0 0 0 0 0 0 0 0 0 0 0 0 0 0 0 127 0" result="hardAlpha"/>
<feOffset dy="3"/>
<feGaussianBlur stdDeviation="3"/>
<feComposite in2="hardAlpha" operator="out"/>
<feColorMatrix type="matrix" values="0 0 0 0 0.235294 0 0 0 0 0.145098 0 0 0 0 0.631373 0 0 0 0.3 0"/>
<feBlend mode="normal" in2="effect1_dropShadow_1974_117466" result="effect2_dropShadow_1974_117466"/>
<feBlend mode="normal" in="SourceGraphic" in2="effect2_dropShadow_1974_117466" result="shape"/>
</filter>
<filter id="filter4_d_1974_117466" x="125" y="177.82" width="302" height="232.883" filterUnits="userSpaceOnUse" color-interpolation-filters="sRGB">
<feFlood flood-opacity="0" result="BackgroundImageFix"/>
<feColorMatrix in="SourceAlpha" type="matrix" values="0 0 0 0 0 0 0 0 0 0 0 0 0 0 0 0 0 0 127 0" result="hardAlpha"/>
<feOffset dy="-4"/>
<feGaussianBlur stdDeviation="3"/>
<feComposite in2="hardAlpha" operator="out"/>
<feColorMatrix type="matrix" values="0 0 0 0 0.235294 0 0 0 0 0.145098 0 0 0 0 0.631373 0 0 0 0.12 0"/>
<feBlend mode="normal" in2="BackgroundImageFix" result="effect1_dropShadow_1974_117466"/>
<feBlend mode="normal" in="SourceGraphic" in2="effect1_dropShadow_1974_117466" result="shape"/>
</filter>
<filter id="filter5_f_1974_117466" x="-89.9551" y="265.141" width="528.342" height="307.25" filterUnits="userSpaceOnUse" color-interpolation-filters="sRGB">
<feFlood flood-opacity="0" result="BackgroundImageFix"/>
<feBlend mode="normal" in="SourceGraphic" in2="BackgroundImageFix" result="shape"/>
<feGaussianBlur stdDeviation="40" result="effect1_foregroundBlur_1974_117466"/>
</filter>
<filter id="filter6_f_1974_117466" x="92.7656" y="265.141" width="528.342" height="307.25" filterUnits="userSpaceOnUse" color-interpolation-filters="sRGB">
<feFlood flood-opacity="0" result="BackgroundImageFix"/>
<feBlend mode="normal" in="SourceGraphic" in2="BackgroundImageFix" result="shape"/>
<feGaussianBlur stdDeviation="40" result="effect1_foregroundBlur_1974_117466"/>
</filter>
<filter id="filter7_i_1974_117466" x="180.752" y="272.332" width="189.803" height="91.125" filterUnits="userSpaceOnUse" color-interpolation-filters="sRGB">
<feFlood flood-opacity="0" result="BackgroundImageFix"/>
<feBlend mode="normal" in="SourceGraphic" in2="BackgroundImageFix" result="shape"/>
<feColorMatrix in="SourceAlpha" type="matrix" values="0 0 0 0 0 0 0 0 0 0 0 0 0 0 0 0 0 0 127 0" result="hardAlpha"/>
<feOffset dy="2"/>
<feGaussianBlur stdDeviation="3"/>
<feComposite in2="hardAlpha" operator="arithmetic" k2="-1" k3="1"/>
<feColorMatrix type="matrix" values="0 0 0 0 0.165921 0 0 0 0 0 0 0 0 0 0.342904 0 0 0 0.3 0"/>
<feBlend mode="normal" in2="shape" result="effect1_innerShadow_1974_117466"/>
</filter>
<linearGradient id="paint0_linear_1974_117466" x1="276" y1="16" x2="276" y2="528" gradientUnits="userSpaceOnUse">
<stop stop-color="#8373FF"/>
<stop offset="1" stop-color="#5C33FF"/>
</linearGradient>
<linearGradient id="paint1_linear_1974_117466" x1="359.974" y1="211.441" x2="214.074" y2="227.782" gradientUnits="userSpaceOnUse">
<stop stop-color="#F89189"/>
<stop offset="1" stop-color="#EDB08A"/>
</linearGradient>
<linearGradient id="paint2_linear_1974_117466" x1="380.9" y1="217.562" x2="199.555" y2="224.449" gradientUnits="userSpaceOnUse">
<stop stop-color="#01A9F2"/>
<stop offset="1" stop-color="#00E2E0"/>
</linearGradient>
<linearGradient id="paint3_linear_1974_117466" x1="276" y1="426.219" x2="212.766" y2="248.361" gradientUnits="userSpaceOnUse">
<stop stop-color="#F8E9FF"/>
<stop offset="1" stop-color="#FEF8FF"/>
</linearGradient>
<linearGradient id="paint4_linear_1974_117466" x1="276" y1="426.221" x2="212.766" y2="248.363" gradientUnits="userSpaceOnUse">
<stop stop-color="#E6E1FA"/>
<stop offset="1" stop-color="#FFFCFF"/>
</linearGradient>
<radialGradient id="paint5_radial_1974_117466" cx="0" cy="0" r="1" gradientUnits="userSpaceOnUse" gradientTransform="translate(174.217 418.765) rotate(90) scale(56.8846 190)">
<stop stop-color="#957EEF"/>
<stop offset="1" stop-color="#957EEF" stop-opacity="0"/>
</radialGradient>
<radialGradient id="paint6_radial_1974_117466" cx="0" cy="0" r="1" gradientUnits="userSpaceOnUse" gradientTransform="translate(190 56.8846) rotate(90) scale(56.8846 190)">
<stop stop-color="#957EEF"/>
<stop offset="1" stop-color="#957EEF" stop-opacity="0"/>
</radialGradient>
<linearGradient id="paint7_linear_1974_117466" x1="275.654" y1="273.07" x2="275.654" y2="362.103" gradientUnits="userSpaceOnUse">
<stop stop-color="#D1CDE2"/>
<stop offset="0.925883" stop-color="#A193DB"/>
</linearGradient>
</defs>
</svg>
