<svg width="512" height="512" viewBox="0 0 512 512" fill="none" xmlns="http://www.w3.org/2000/svg">
<circle cx="256" cy="256" r="256" fill="url(#paint0_linear_1_3954)"/>
<path d="M159.243 123.812L111 171.744V223H401V171.744L350.705 123.558C346.982 119.991 342.025 118 336.869 118H173.34C168.058 118 162.99 120.089 159.243 123.812Z" fill="#9479FF"/>
<g filter="url(#filter0_d_1_3954)">
<rect x="145" y="127" width="222" height="206" rx="16" fill="url(#paint1_linear_1_3954)"/>
<rect x="146" y="128" width="220" height="204" rx="15" stroke="white" stroke-opacity="0.6" stroke-width="2"/>
</g>
<g filter="url(#filter1_d_1_3954)">
<rect x="125" y="144" width="261" height="157" rx="16" fill="url(#paint2_linear_1_3954)"/>
<rect x="126" y="145" width="259" height="155" rx="15" stroke="white" stroke-opacity="0.6" stroke-width="2"/>
</g>
<g filter="url(#filter2_dd_1_3954)">
<path d="M111 187.82C111 178.984 118.163 171.82 127 171.82H175.052C179.828 171.82 184.354 173.954 187.393 177.638L204.982 198.955C208.021 202.639 212.547 204.773 217.323 204.773H286.065C290.045 204.773 293.882 203.289 296.827 200.612L323.923 175.981C326.868 173.304 330.705 171.82 334.685 171.82H385C393.837 171.82 401 178.984 401 187.82V352.705C401 374.796 383.091 392.705 361 392.705H151C128.909 392.705 111 374.796 111 352.705V187.82Z" fill="#F8E9FF"/>
</g>
<g filter="url(#filter3_d_1_3954)">
<path d="M111 187.82C111 178.984 118.163 171.82 127 171.82H175.052C179.828 171.82 184.354 173.954 187.393 177.638L204.982 198.955C208.021 202.639 212.547 204.773 217.323 204.773H286.065C290.045 204.773 293.882 203.289 296.827 200.612L323.923 175.981C326.868 173.304 330.705 171.82 334.685 171.82H385C393.837 171.82 401 178.984 401 187.82V352.705C401 374.796 383.091 392.705 361 392.705H151C128.909 392.705 111 374.796 111 352.705V187.82Z" fill="#F8E9FF"/>
</g>
<mask id="mask0_1_3954" style="mask-type:alpha" maskUnits="userSpaceOnUse" x="111" y="171" width="290" height="222">
<path d="M111 171.82H176.937C180.519 171.82 183.914 173.42 186.194 176.183L206.181 200.41C208.461 203.173 211.856 204.773 215.438 204.773H287.611C290.596 204.773 293.474 203.66 295.683 201.652L325.067 174.941C327.276 172.933 330.154 171.82 333.139 171.82H401V352.705C401 374.796 383.091 392.705 361 392.705H151C128.909 392.705 111 374.796 111 352.705V171.82Z" fill="url(#paint3_linear_1_3954)"/>
</mask>
<g mask="url(#mask0_1_3954)">
<path d="M111 168.898H182.594L209.781 170H292.25L328.5 168.898H401V352.706C401 374.798 383.091 392.706 361 392.706H151C128.909 392.706 111 374.798 111 352.706V168.898Z" fill="url(#paint4_linear_1_3954)"/>
<g style="mix-blend-mode:multiply" filter="url(#filter4_f_1_3954)">
<ellipse cx="154.217" cy="402.765" rx="190" ry="56.8846" transform="rotate(14.9413 154.217 402.765)" fill="url(#paint5_radial_1_3954)" fill-opacity="0.4"/>
</g>
<g style="mix-blend-mode:multiply" filter="url(#filter5_f_1_3954)">
<ellipse cx="190" cy="56.8846" rx="190" ry="56.8846" transform="matrix(-0.966191 0.257829 0.257829 0.966191 505.846 298.816)" fill="url(#paint6_radial_1_3954)" fill-opacity="0.4"/>
</g>
</g>
<mask id="path-13-inside-1_1_3954" fill="white">
<path fill-rule="evenodd" clip-rule="evenodd" d="M212.45 259.261C216.355 263.166 216.355 269.498 212.45 273.403L184.768 301.084L212.069 328.385C215.974 332.29 215.974 338.622 212.069 342.527C208.164 346.432 201.832 346.432 197.927 342.527L164.321 308.921C163.028 307.628 162.128 306.092 161.619 304.46C160.029 301.088 160.628 296.941 163.416 294.153L198.307 259.261C202.213 255.356 208.544 255.356 212.45 259.261ZM298.859 259.266C294.954 263.171 294.954 269.503 298.859 273.408L326.536 301.085L299.24 328.382C295.334 332.287 295.334 338.619 299.24 342.524C303.145 346.429 309.476 346.429 313.382 342.524L346.988 308.918C348.274 307.632 349.172 306.104 349.682 304.48C351.281 301.106 350.685 296.95 347.893 294.158L313.001 259.266C309.096 255.361 302.764 255.361 298.859 259.266ZM266.588 258.511C261.253 257.081 255.77 260.247 254.34 265.582L236.478 332.245C235.048 337.58 238.214 343.063 243.549 344.493C248.884 345.922 254.367 342.756 255.796 337.422L273.659 270.758C275.088 265.423 271.922 259.94 266.588 258.511Z"/>
</mask>
<g filter="url(#filter6_i_1_3954)">
<path fill-rule="evenodd" clip-rule="evenodd" d="M212.45 259.261C216.355 263.166 216.355 269.498 212.45 273.403L184.768 301.084L212.069 328.385C215.974 332.29 215.974 338.622 212.069 342.527C208.164 346.432 201.832 346.432 197.927 342.527L164.321 308.921C163.028 307.628 162.128 306.092 161.619 304.46C160.029 301.088 160.628 296.941 163.416 294.153L198.307 259.261C202.213 255.356 208.544 255.356 212.45 259.261ZM298.859 259.266C294.954 263.171 294.954 269.503 298.859 273.408L326.536 301.085L299.24 328.382C295.334 332.287 295.334 338.619 299.24 342.524C303.145 346.429 309.476 346.429 313.382 342.524L346.988 308.918C348.274 307.632 349.172 306.104 349.682 304.48C351.281 301.106 350.685 296.95 347.893 294.158L313.001 259.266C309.096 255.361 302.764 255.361 298.859 259.266ZM266.588 258.511C261.253 257.081 255.77 260.247 254.34 265.582L236.478 332.245C235.048 337.58 238.214 343.063 243.549 344.493C248.884 345.922 254.367 342.756 255.796 337.422L273.659 270.758C275.088 265.423 271.922 259.94 266.588 258.511Z" fill="url(#paint7_linear_1_3954)"/>
</g>
<path d="M212.45 273.403L211.743 272.696L212.45 273.403ZM212.45 259.261L211.743 259.968L212.45 259.261ZM184.768 301.084L184.061 300.377L183.354 301.084L184.061 301.792L184.768 301.084ZM212.069 328.385L212.776 327.678L212.069 328.385ZM212.069 342.527L212.776 343.234L212.069 342.527ZM197.927 342.527L197.22 343.234L197.927 342.527ZM164.321 308.921L163.613 309.628H163.613L164.321 308.921ZM161.619 304.46L162.574 304.163L162.554 304.097L162.524 304.034L161.619 304.46ZM163.416 294.153L164.123 294.86L163.416 294.153ZM198.307 259.261L197.6 258.554L198.307 259.261ZM298.859 273.408L299.566 272.701L298.859 273.408ZM298.859 259.266L299.566 259.973V259.973L298.859 259.266ZM326.536 301.085L327.243 301.793L327.95 301.085L327.243 300.378L326.536 301.085ZM299.24 328.382L298.532 327.675L299.24 328.382ZM299.24 342.524L299.947 341.817L299.24 342.524ZM313.382 342.524L312.675 341.817L313.382 342.524ZM346.988 308.918L346.281 308.211L346.988 308.918ZM349.682 304.48L348.778 304.052L348.748 304.115L348.728 304.181L349.682 304.48ZM347.893 294.158L348.6 293.451L347.893 294.158ZM313.001 259.266L312.294 259.973V259.973L313.001 259.266ZM254.34 265.582L253.374 265.323L254.34 265.582ZM266.588 258.511L266.329 259.476L266.588 258.511ZM236.478 332.245L237.444 332.504L236.478 332.245ZM243.549 344.493L243.808 343.527L243.549 344.493ZM255.796 337.422L254.83 337.163L255.796 337.422ZM273.659 270.758L272.693 270.499L273.659 270.758ZM213.157 274.11C217.453 269.814 217.453 262.85 213.157 258.554L211.743 259.968C215.257 263.483 215.257 269.181 211.743 272.696L213.157 274.11ZM185.475 301.792L213.157 274.11L211.743 272.696L184.061 300.377L185.475 301.792ZM212.776 327.678L185.475 300.377L184.061 301.792L211.362 329.092L212.776 327.678ZM212.776 343.234C217.072 338.939 217.072 331.974 212.776 327.678L211.362 329.092C214.877 332.607 214.877 338.305 211.362 341.82L212.776 343.234ZM197.22 343.234C201.515 347.53 208.48 347.53 212.776 343.234L211.362 341.82C207.847 345.335 202.149 345.335 198.634 341.82L197.22 343.234ZM163.613 309.628L197.22 343.234L198.634 341.82L165.028 308.214L163.613 309.628ZM160.665 304.758C161.22 306.541 162.204 308.218 163.613 309.628L165.028 308.214C163.852 307.039 163.035 305.644 162.574 304.163L160.665 304.758ZM162.708 293.446C159.613 296.541 158.95 301.145 160.715 304.887L162.524 304.034C161.108 301.031 161.643 297.34 164.123 294.86L162.708 293.446ZM197.6 258.554L162.708 293.446L164.123 294.86L199.015 259.968L197.6 258.554ZM213.157 258.554C208.861 254.258 201.896 254.258 197.6 258.554L199.015 259.968C202.529 256.453 208.228 256.453 211.743 259.968L213.157 258.554ZM299.566 272.701C296.051 269.186 296.051 263.488 299.566 259.973L298.152 258.559C293.856 262.855 293.856 269.819 298.152 274.115L299.566 272.701ZM327.243 300.378L299.566 272.701L298.152 274.115L325.829 301.793L327.243 300.378ZM299.947 329.089L327.243 301.793L325.829 300.378L298.532 327.675L299.947 329.089ZM299.947 341.817C296.432 338.302 296.432 332.604 299.947 329.089L298.532 327.675C294.237 331.971 294.237 338.936 298.532 343.231L299.947 341.817ZM312.675 341.817C309.16 345.332 303.461 345.332 299.947 341.817L298.532 343.231C302.828 347.527 309.793 347.527 314.089 343.231L312.675 341.817ZM346.281 308.211L312.675 341.817L314.089 343.231L347.695 309.625L346.281 308.211ZM348.728 304.181C348.265 305.654 347.451 307.041 346.281 308.211L347.695 309.625C349.098 308.222 350.079 306.553 350.636 304.78L348.728 304.181ZM347.186 294.865C349.669 297.349 350.202 301.047 348.778 304.052L350.585 304.909C352.36 301.164 351.7 296.551 348.6 293.451L347.186 294.865ZM312.294 259.973L347.186 294.865L348.6 293.451L313.708 258.559L312.294 259.973ZM299.566 259.973C303.081 256.458 308.779 256.458 312.294 259.973L313.708 258.559C309.412 254.263 302.447 254.263 298.152 258.559L299.566 259.973ZM255.306 265.84C256.593 261.039 261.528 258.19 266.329 259.476L266.847 257.545C260.978 255.972 254.947 259.455 253.374 265.323L255.306 265.84ZM237.444 332.504L255.306 265.84L253.374 265.323L235.512 331.986L237.444 332.504ZM243.808 343.527C239.007 342.24 236.157 337.305 237.444 332.504L235.512 331.986C233.94 337.855 237.422 343.886 243.29 345.459L243.808 343.527ZM254.83 337.163C253.544 341.964 248.609 344.813 243.808 343.527L243.29 345.459C249.158 347.031 255.19 343.549 256.762 337.68L254.83 337.163ZM272.693 270.499L254.83 337.163L256.762 337.68L274.625 271.017L272.693 270.499ZM266.329 259.476C271.13 260.763 273.979 265.698 272.693 270.499L274.625 271.017C276.197 265.149 272.715 259.117 266.847 257.545L266.329 259.476Z" fill="white" fill-opacity="0.4" mask="url(#path-13-inside-1_1_3954)"/>
<defs>
<filter id="filter0_d_1_3954" x="141" y="119" width="230" height="214" filterUnits="userSpaceOnUse" color-interpolation-filters="sRGB">
<feFlood flood-opacity="0" result="BackgroundImageFix"/>
<feColorMatrix in="SourceAlpha" type="matrix" values="0 0 0 0 0 0 0 0 0 0 0 0 0 0 0 0 0 0 127 0" result="hardAlpha"/>
<feOffset dy="-4"/>
<feGaussianBlur stdDeviation="2"/>
<feComposite in2="hardAlpha" operator="out"/>
<feColorMatrix type="matrix" values="0 0 0 0 0.235294 0 0 0 0 0.145098 0 0 0 0 0.631373 0 0 0 0.24 0"/>
<feBlend mode="normal" in2="BackgroundImageFix" result="effect1_dropShadow_1_3954"/>
<feBlend mode="normal" in="SourceGraphic" in2="effect1_dropShadow_1_3954" result="shape"/>
</filter>
<filter id="filter1_d_1_3954" x="121" y="136" width="269" height="165" filterUnits="userSpaceOnUse" color-interpolation-filters="sRGB">
<feFlood flood-opacity="0" result="BackgroundImageFix"/>
<feColorMatrix in="SourceAlpha" type="matrix" values="0 0 0 0 0 0 0 0 0 0 0 0 0 0 0 0 0 0 127 0" result="hardAlpha"/>
<feOffset dy="-4"/>
<feGaussianBlur stdDeviation="2"/>
<feComposite in2="hardAlpha" operator="out"/>
<feColorMatrix type="matrix" values="0 0 0 0 0.235294 0 0 0 0 0.145098 0 0 0 0 0.631373 0 0 0 0.12 0"/>
<feBlend mode="normal" in2="BackgroundImageFix" result="effect1_dropShadow_1_3954"/>
<feBlend mode="normal" in="SourceGraphic" in2="effect1_dropShadow_1_3954" result="shape"/>
</filter>
<filter id="filter2_dd_1_3954" x="87" y="153.82" width="338" height="268.883" filterUnits="userSpaceOnUse" color-interpolation-filters="sRGB">
<feFlood flood-opacity="0" result="BackgroundImageFix"/>
<feColorMatrix in="SourceAlpha" type="matrix" values="0 0 0 0 0 0 0 0 0 0 0 0 0 0 0 0 0 0 127 0" result="hardAlpha"/>
<feOffset dy="6"/>
<feGaussianBlur stdDeviation="12"/>
<feComposite in2="hardAlpha" operator="out"/>
<feColorMatrix type="matrix" values="0 0 0 0 0.233736 0 0 0 0 0.146399 0 0 0 0 0.631608 0 0 0 0.5 0"/>
<feBlend mode="normal" in2="BackgroundImageFix" result="effect1_dropShadow_1_3954"/>
<feColorMatrix in="SourceAlpha" type="matrix" values="0 0 0 0 0 0 0 0 0 0 0 0 0 0 0 0 0 0 127 0" result="hardAlpha"/>
<feOffset dy="3"/>
<feGaussianBlur stdDeviation="3"/>
<feComposite in2="hardAlpha" operator="out"/>
<feColorMatrix type="matrix" values="0 0 0 0 0.235294 0 0 0 0 0.145098 0 0 0 0 0.631373 0 0 0 0.3 0"/>
<feBlend mode="normal" in2="effect1_dropShadow_1_3954" result="effect2_dropShadow_1_3954"/>
<feBlend mode="normal" in="SourceGraphic" in2="effect2_dropShadow_1_3954" result="shape"/>
</filter>
<filter id="filter3_d_1_3954" x="105" y="161.82" width="302" height="232.883" filterUnits="userSpaceOnUse" color-interpolation-filters="sRGB">
<feFlood flood-opacity="0" result="BackgroundImageFix"/>
<feColorMatrix in="SourceAlpha" type="matrix" values="0 0 0 0 0 0 0 0 0 0 0 0 0 0 0 0 0 0 127 0" result="hardAlpha"/>
<feOffset dy="-4"/>
<feGaussianBlur stdDeviation="3"/>
<feComposite in2="hardAlpha" operator="out"/>
<feColorMatrix type="matrix" values="0 0 0 0 0.235294 0 0 0 0 0.145098 0 0 0 0 0.631373 0 0 0 0.12 0"/>
<feBlend mode="normal" in2="BackgroundImageFix" result="effect1_dropShadow_1_3954"/>
<feBlend mode="normal" in="SourceGraphic" in2="effect1_dropShadow_1_3954" result="shape"/>
</filter>
<filter id="filter4_f_1_3954" x="-109.954" y="249.141" width="528.342" height="307.25" filterUnits="userSpaceOnUse" color-interpolation-filters="sRGB">
<feFlood flood-opacity="0" result="BackgroundImageFix"/>
<feBlend mode="normal" in="SourceGraphic" in2="BackgroundImageFix" result="shape"/>
<feGaussianBlur stdDeviation="40" result="effect1_foregroundBlur_1_3954"/>
</filter>
<filter id="filter5_f_1_3954" x="72.7646" y="249.141" width="528.342" height="307.25" filterUnits="userSpaceOnUse" color-interpolation-filters="sRGB">
<feFlood flood-opacity="0" result="BackgroundImageFix"/>
<feBlend mode="normal" in="SourceGraphic" in2="BackgroundImageFix" result="shape"/>
<feGaussianBlur stdDeviation="40" result="effect1_foregroundBlur_1_3954"/>
</filter>
<filter id="filter6_i_1_3954" x="160.753" y="256.332" width="189.803" height="91.125" filterUnits="userSpaceOnUse" color-interpolation-filters="sRGB">
<feFlood flood-opacity="0" result="BackgroundImageFix"/>
<feBlend mode="normal" in="SourceGraphic" in2="BackgroundImageFix" result="shape"/>
<feColorMatrix in="SourceAlpha" type="matrix" values="0 0 0 0 0 0 0 0 0 0 0 0 0 0 0 0 0 0 127 0" result="hardAlpha"/>
<feOffset dy="2"/>
<feGaussianBlur stdDeviation="3"/>
<feComposite in2="hardAlpha" operator="arithmetic" k2="-1" k3="1"/>
<feColorMatrix type="matrix" values="0 0 0 0 0.165921 0 0 0 0 0 0 0 0 0 0.342904 0 0 0 0.3 0"/>
<feBlend mode="normal" in2="shape" result="effect1_innerShadow_1_3954"/>
</filter>
<linearGradient id="paint0_linear_1_3954" x1="256" y1="0" x2="256" y2="512" gradientUnits="userSpaceOnUse">
<stop stop-color="#8373FF"/>
<stop offset="1" stop-color="#5C33FF"/>
</linearGradient>
<linearGradient id="paint1_linear_1_3954" x1="339.974" y1="195.441" x2="194.074" y2="211.782" gradientUnits="userSpaceOnUse">
<stop stop-color="#F89189"/>
<stop offset="1" stop-color="#EDB08A"/>
</linearGradient>
<linearGradient id="paint2_linear_1_3954" x1="360.9" y1="201.562" x2="179.555" y2="208.449" gradientUnits="userSpaceOnUse">
<stop stop-color="#01A9F2"/>
<stop offset="1" stop-color="#00E2E0"/>
</linearGradient>
<linearGradient id="paint3_linear_1_3954" x1="256" y1="410.219" x2="192.766" y2="232.361" gradientUnits="userSpaceOnUse">
<stop stop-color="#F8E9FF"/>
<stop offset="1" stop-color="#FEF8FF"/>
</linearGradient>
<linearGradient id="paint4_linear_1_3954" x1="256" y1="410.221" x2="192.766" y2="232.363" gradientUnits="userSpaceOnUse">
<stop stop-color="#E6E1FA"/>
<stop offset="1" stop-color="#FFFCFF"/>
</linearGradient>
<radialGradient id="paint5_radial_1_3954" cx="0" cy="0" r="1" gradientUnits="userSpaceOnUse" gradientTransform="translate(154.217 402.765) rotate(90) scale(56.8846 190)">
<stop stop-color="#957EEF"/>
<stop offset="1" stop-color="#957EEF" stop-opacity="0"/>
</radialGradient>
<radialGradient id="paint6_radial_1_3954" cx="0" cy="0" r="1" gradientUnits="userSpaceOnUse" gradientTransform="translate(190 56.8846) rotate(90) scale(56.8846 190)">
<stop stop-color="#957EEF"/>
<stop offset="1" stop-color="#957EEF" stop-opacity="0"/>
</radialGradient>
<linearGradient id="paint7_linear_1_3954" x1="255.655" y1="257.07" x2="255.655" y2="346.103" gradientUnits="userSpaceOnUse">
<stop stop-color="#D1CDE2"/>
<stop offset="0.925883" stop-color="#A193DB"/>
</linearGradient>
</defs>
</svg>
