<svg width="552" height="547" viewBox="0 0 552 547" fill="none" xmlns="http://www.w3.org/2000/svg">
<g filter="url(#filter0_d_3423_122388)">
<circle cx="276" cy="272" r="256" fill="url(#paint0_linear_3423_122388)"/>
</g>
<mask id="mask0_3423_122388" style="mask-type:alpha" maskUnits="userSpaceOnUse" x="45" y="41" width="462" height="462">
<circle cx="276" cy="272" r="231" fill="url(#paint1_linear_3423_122388)"/>
</mask>
<g mask="url(#mask0_3423_122388)">
<path d="M276.5 629L589.5 487.5V183L276.5 364.568V182.368C276.5 179.288 273.164 177.363 270.497 178.906L-28 351.568V487.5L276.5 629Z" fill="url(#paint2_linear_3423_122388)"/>
<g filter="url(#filter1_i_3423_122388)">
<path d="M591.5 10L276.5 -71.5L-7.5 105V340.5L267.499 181.634C271.499 179.323 276.5 182.21 276.5 186.829V363.107C276.5 364.646 278.165 365.609 279.499 364.84L591.5 185V10Z" fill="url(#paint3_linear_3423_122388)"/>
</g>
<g filter="url(#filter2_dd_3423_122388)">
<path d="M266.56 183.693C272.718 180.166 280.282 180.166 286.44 183.693L348.94 219.488C355.162 223.052 359 229.673 359 236.843V308.157C359 315.327 355.162 321.948 348.94 325.512L286.44 361.307C280.282 364.834 272.718 364.834 266.56 361.307L204.06 325.512C197.838 321.948 194 315.327 194 308.157V236.843C194 229.673 197.838 223.052 204.06 219.488L266.56 183.693Z" fill="url(#paint4_linear_3423_122388)"/>
<path d="M286.937 182.825C280.472 179.122 272.528 179.122 266.063 182.825L203.563 218.62C197.03 222.362 193 229.315 193 236.843V308.157C193 315.685 197.03 322.638 203.563 326.38L266.063 362.175C272.528 365.878 280.472 365.878 286.937 362.175L349.437 326.38C355.97 322.638 360 315.685 360 308.157V236.843C360 229.315 355.97 222.362 349.437 218.62L286.937 182.825Z" stroke="url(#paint5_linear_3423_122388)" stroke-width="2"/>
</g>
<mask id="path-7-outside-1_3423_122388" maskUnits="userSpaceOnUse" x="224.615" y="220.381" width="103.238" height="103.238" fill="black">
<rect fill="white" x="224.615" y="220.381" width="103.238" height="103.238"/>
<path d="M309 261C315.075 261 320 265.925 320 272C320 278.075 315.075 283 309 283L243 283C236.925 283 232 278.075 232 272C232 265.925 236.925 261 243 261L309 261Z"/>
</mask>
<g filter="url(#filter3_i_3423_122388)">
<path d="M309 261C315.075 261 320 265.925 320 272C320 278.075 315.075 283 309 283L243 283C236.925 283 232 278.075 232 272C232 265.925 236.925 261 243 261L309 261Z" fill="#99B3FF"/>
</g>
<path d="M243 261L243 259L243 261ZM243 283L243 281L243 283ZM309 283V285V283ZM309 261L309 263L309 261ZM309 281L243 281L243 285L309 285V281ZM243 263L309 263L309 259L243 259L243 263ZM234 272C234 267.029 238.029 263 243 263L243 259C235.82 259 230 264.82 230 272L234 272ZM243 281C238.029 281 234 276.971 234 272L230 272C230 279.18 235.82 285 243 285L243 281ZM318 272C318 276.971 313.97 281 309 281V285C316.179 285 322 279.18 322 272H318ZM322 272C322 264.82 316.179 259 309 259L309 263C313.97 263 318 267.029 318 272H322Z" fill="white" fill-opacity="0.4" mask="url(#path-7-outside-1_3423_122388)"/>
</g>
<g style="mix-blend-mode:plus-darker">
<circle cx="276.5" cy="272.5" r="230.5" fill="url(#paint6_radial_3423_122388)"/>
</g>
<defs>
<filter id="filter0_d_3423_122388" x="0" y="0" width="552" height="552" filterUnits="userSpaceOnUse" color-interpolation-filters="sRGB">
<feFlood flood-opacity="0" result="BackgroundImageFix"/>
<feColorMatrix in="SourceAlpha" type="matrix" values="0 0 0 0 0 0 0 0 0 0 0 0 0 0 0 0 0 0 127 0" result="hardAlpha"/>
<feOffset dy="4"/>
<feGaussianBlur stdDeviation="10"/>
<feComposite in2="hardAlpha" operator="out"/>
<feColorMatrix type="matrix" values="0 0 0 0 0 0 0 0 0 0 0 0 0 0 0 0 0 0 0.3 0"/>
<feBlend mode="normal" in2="BackgroundImageFix" result="effect1_dropShadow_3423_122388"/>
<feBlend mode="normal" in="SourceGraphic" in2="effect1_dropShadow_3423_122388" result="shape"/>
</filter>
<filter id="filter1_i_3423_122388" x="-7.5" y="-73.5" width="599" height="438.609" filterUnits="userSpaceOnUse" color-interpolation-filters="sRGB">
<feFlood flood-opacity="0" result="BackgroundImageFix"/>
<feBlend mode="normal" in="SourceGraphic" in2="BackgroundImageFix" result="shape"/>
<feColorMatrix in="SourceAlpha" type="matrix" values="0 0 0 0 0 0 0 0 0 0 0 0 0 0 0 0 0 0 127 0" result="hardAlpha"/>
<feOffset dy="-2"/>
<feGaussianBlur stdDeviation="16"/>
<feComposite in2="hardAlpha" operator="arithmetic" k2="-1" k3="1"/>
<feColorMatrix type="matrix" values="0 0 0 0 0 0 0 0 0 0.113725 0 0 0 0 0.423529 0 0 0 0.08 0"/>
<feBlend mode="normal" in2="shape" result="effect1_innerShadow_3423_122388"/>
</filter>
<filter id="filter2_dd_3423_122388" x="156" y="147.047" width="241" height="258.906" filterUnits="userSpaceOnUse" color-interpolation-filters="sRGB">
<feFlood flood-opacity="0" result="BackgroundImageFix"/>
<feColorMatrix in="SourceAlpha" type="matrix" values="0 0 0 0 0 0 0 0 0 0 0 0 0 0 0 0 0 0 127 0" result="hardAlpha"/>
<feOffset dy="2"/>
<feGaussianBlur stdDeviation="2"/>
<feComposite in2="hardAlpha" operator="out"/>
<feColorMatrix type="matrix" values="0 0 0 0 0 0 0 0 0 0.105882 0 0 0 0 0.423529 0 0 0 0.24 0"/>
<feBlend mode="normal" in2="BackgroundImageFix" result="effect1_dropShadow_3423_122388"/>
<feColorMatrix in="SourceAlpha" type="matrix" values="0 0 0 0 0 0 0 0 0 0 0 0 0 0 0 0 0 0 127 0" result="hardAlpha"/>
<feOffset dy="4"/>
<feGaussianBlur stdDeviation="18"/>
<feComposite in2="hardAlpha" operator="out"/>
<feColorMatrix type="matrix" values="0 0 0 0 0 0 0 0 0 0 0 0 0 0 0 0 0 0 0.12 0"/>
<feBlend mode="normal" in2="effect1_dropShadow_3423_122388" result="effect2_dropShadow_3423_122388"/>
<feBlend mode="normal" in="SourceGraphic" in2="effect2_dropShadow_3423_122388" result="shape"/>
</filter>
<filter id="filter3_i_3423_122388" x="230" y="259" width="92" height="30" filterUnits="userSpaceOnUse" color-interpolation-filters="sRGB">
<feFlood flood-opacity="0" result="BackgroundImageFix"/>
<feBlend mode="normal" in="SourceGraphic" in2="BackgroundImageFix" result="shape"/>
<feColorMatrix in="SourceAlpha" type="matrix" values="0 0 0 0 0 0 0 0 0 0 0 0 0 0 0 0 0 0 127 0" result="hardAlpha"/>
<feOffset dy="4"/>
<feGaussianBlur stdDeviation="2"/>
<feComposite in2="hardAlpha" operator="arithmetic" k2="-1" k3="1"/>
<feColorMatrix type="matrix" values="0 0 0 0 0 0 0 0 0 0.243137 0 0 0 0 0.494118 0 0 0 0.4 0"/>
<feBlend mode="normal" in2="shape" result="effect1_innerShadow_3423_122388"/>
</filter>
<linearGradient id="paint0_linear_3423_122388" x1="276" y1="16" x2="276" y2="528" gradientUnits="userSpaceOnUse">
<stop offset="0.43984" stop-color="#FCFDFF"/>
<stop offset="1" stop-color="#F2F3F7"/>
</linearGradient>
<linearGradient id="paint1_linear_3423_122388" x1="276" y1="41" x2="276" y2="503" gradientUnits="userSpaceOnUse">
<stop stop-color="#3387FF"/>
<stop offset="1" stop-color="#3348FF"/>
</linearGradient>
<linearGradient id="paint2_linear_3423_122388" x1="247.5" y1="239" x2="273.5" y2="460.5" gradientUnits="userSpaceOnUse">
<stop stop-color="#E7ECFF"/>
<stop offset="1" stop-color="#B8CDFF"/>
</linearGradient>
<linearGradient id="paint3_linear_3423_122388" x1="252" y1="99.5" x2="292" y2="349.5" gradientUnits="userSpaceOnUse">
<stop stop-color="#E8EEFF"/>
<stop offset="1" stop-color="#BBCEFF"/>
</linearGradient>
<linearGradient id="paint4_linear_3423_122388" x1="276.5" y1="178" x2="276.5" y2="367" gradientUnits="userSpaceOnUse">
<stop offset="0.529324" stop-color="white"/>
<stop offset="1" stop-color="#DEE6FF"/>
</linearGradient>
<linearGradient id="paint5_linear_3423_122388" x1="276.5" y1="178" x2="276.5" y2="367" gradientUnits="userSpaceOnUse">
<stop stop-color="#DFE7FF"/>
<stop offset="1" stop-color="#EAEFFF"/>
</linearGradient>
<radialGradient id="paint6_radial_3423_122388" cx="0" cy="0" r="1" gradientUnits="userSpaceOnUse" gradientTransform="translate(276.5 272.5) rotate(90) scale(230.5)">
<stop offset="0.816894" stop-color="white" stop-opacity="0"/>
<stop offset="0.924574" stop-color="#7B8AB0" stop-opacity="0.051688"/>
<stop offset="1" stop-color="#001C65" stop-opacity="0.1"/>
</radialGradient>
</defs>
</svg>
