<svg xmlns="http://www.w3.org/2000/svg" width="135" height="24" viewBox="0 0 135 24" fill="none">
  <path d="M32.0643 8.64083C32.7429 8.64083 33.2573 8.83823 33.5968 9.2241C33.7875 9.44367 33.9495 9.78074 34.0736 10.2221L34.1024 10.3219H36.3776L36.371 10.1755C36.3401 9.54788 36.1051 8.91585 35.6747 8.29489C34.8963 7.19044 33.6568 6.63159 31.9844 6.63159C30.7337 6.63159 29.6869 7.04853 28.8752 7.86908C27.946 8.80719 27.4736 10.1555 27.4736 11.8787C27.4736 13.4711 27.8883 14.744 28.7045 15.6643C29.525 16.5847 30.6671 17.0526 32.0952 17.0526C33.2529 17.0526 34.2176 16.7067 34.9629 16.0236C35.7012 15.3428 36.167 14.4491 36.3467 13.3668L36.3732 13.2049H34.1002L34.0736 13.3069C33.9426 13.786 33.7809 14.1452 33.5857 14.3803C33.2374 14.815 32.7407 15.0257 32.0709 15.0257C31.4012 15.0257 30.8911 14.7773 30.4653 14.2628C30.0395 13.7505 29.8244 12.9587 29.8244 11.9098C29.8244 10.8608 30.0306 10.0358 30.4365 9.47025C30.8379 8.90919 31.3702 8.63641 32.0665 8.63641L32.0643 8.64083Z" fill="black"/>
  <path d="M42.4566 6.81787H40.1567V16.7843H47.2557V14.7662H42.4566V6.81787Z" fill="black"/>
  <path d="M57.0934 6.81787H54.6097L51.0524 16.7843H53.4653L54.1351 14.7928H57.5039L58.1292 16.7843H60.6221L57.1247 6.91103L57.0912 6.81787H57.0934ZM56.8518 12.8456H54.7736L55.8293 9.62328L56.8518 12.8456Z" fill="black"/>
  <path d="M72.6752 6.81787L71.3536 12.5374L71.1982 13.3269L71.034 12.4775L69.8609 6.81787H67.4969L66.3837 12.513L66.2416 13.2803L66.0976 12.4731L64.789 6.81787H62.3473L65.1727 16.7843H67.2708L68.4638 11.0049L68.67 9.87834L68.8762 11.0071L70.0693 16.7843H72.2204L75.0259 6.81787H72.6752Z" fill="black"/>
  <path d="M86.1476 7.69377C86.8152 8.3369 87.1856 9.07099 87.2589 9.88933H85.9837C85.8416 9.26615 85.5577 8.7738 85.1343 8.4101C84.7108 8.04638 84.1165 7.86455 83.3491 7.86455C82.4153 7.86455 81.6612 8.19941 81.0868 8.86696C80.5127 9.53668 80.2244 10.5613 80.2244 11.9429C80.2244 13.074 80.4836 13.9921 81.0028 14.6973C81.5216 15.4003 82.2956 15.753 83.3245 15.753C84.2715 15.753 84.9925 15.3826 85.487 14.6419C85.7485 14.2515 85.9458 13.7393 86.0747 13.1028H87.3498C87.2368 14.1185 86.8641 14.9723 86.2319 15.6598C85.4737 16.487 84.4512 16.9017 83.165 16.9017C82.0559 16.9017 81.1247 16.5624 80.3706 15.8816C79.3793 14.9834 78.8826 13.5951 78.8826 11.7167C78.8826 10.2907 79.2552 9.12199 80.0001 8.21049C80.8054 7.21917 81.9164 6.72461 83.3336 6.72461C84.5422 6.72461 85.4804 7.04621 86.1476 7.69156V7.69377Z" fill="black"/>
  <path d="M91.2839 6.98853H92.5923V15.4957H97.438V16.6467H91.2861V6.99074L91.2839 6.98853Z" fill="black"/>
  <path d="M109.751 8.37039C110.39 9.22419 110.711 10.3175 110.711 11.6504C110.711 13.0919 110.345 14.2917 109.613 15.2453C108.755 16.3675 107.529 16.9285 105.939 16.9285C104.453 16.9285 103.284 16.4384 102.435 15.456C101.676 14.509 101.297 13.3137 101.297 11.8677C101.297 10.5615 101.621 9.44376 102.271 8.51451C103.102 7.32361 104.335 6.72705 105.965 6.72705C107.596 6.72705 108.933 7.27482 109.751 8.37039ZM108.598 14.5268C109.112 13.6996 109.37 12.7504 109.37 11.6748C109.37 10.5393 109.072 9.62338 108.478 8.93145C107.884 8.23731 107.072 7.89133 106.043 7.89133C105.014 7.89133 104.229 8.2351 103.597 8.92037C102.965 9.60787 102.65 10.6192 102.65 11.9564C102.65 13.0276 102.921 13.9302 103.462 14.6643C104.003 15.3983 104.881 15.7665 106.094 15.7665C107.307 15.7665 108.081 15.354 108.596 14.5268H108.598Z" fill="black"/>
  <path d="M115.927 6.98854V12.9564C115.927 13.6572 116.06 14.2405 116.324 14.704C116.717 15.4048 117.38 15.7552 118.312 15.7552C119.429 15.7552 120.188 15.376 120.591 14.6175C120.808 14.205 120.915 13.6506 120.915 12.9542V6.98633H122.237V12.4087C122.237 13.5973 122.077 14.5111 121.755 15.1498C121.166 16.3163 120.054 16.8973 118.418 16.8973C116.781 16.8973 115.672 16.3141 115.087 15.1498C114.765 14.5111 114.606 13.5951 114.606 12.4087V6.98633H115.927V6.98854Z" fill="black"/>
  <path d="M126.051 6.98853H129.91C131.221 6.98853 132.237 7.45867 132.959 8.40121C133.605 9.25059 133.926 10.3395 133.926 11.6679C133.926 12.6925 133.736 13.6195 133.356 14.4489C132.687 15.9126 131.533 16.6445 129.899 16.6445H126.051V6.98853ZM129.655 15.5267C130.088 15.5267 130.444 15.4802 130.722 15.3893C131.218 15.2185 131.626 14.8902 131.944 14.4023C132.196 14.012 132.378 13.5131 132.489 12.9032C132.554 12.5395 132.585 12.2024 132.585 11.8919C132.585 10.6966 132.352 9.76735 131.888 9.10422C131.422 8.44337 130.675 8.11068 129.642 8.11068H127.373V15.5267H129.655Z" fill="black"/>
  <path d="M15.4955 15.8983C14.641 15.2506 13.9766 14.3742 13.6559 13.3513C13.4263 12.6204 12.9836 11.9473 12.3386 11.4345C10.6199 10.0681 8.11935 10.3539 6.75296 12.0726C6.44096 12.4652 6.2157 12.8982 6.07284 13.3487C5.74767 14.3794 5.10438 15.2769 4.23229 15.915C3.10255 16.7406 2.38562 18.0982 2.45047 19.6188C2.54425 21.824 4.30679 23.6294 6.50929 23.7714C7.25866 23.8196 7.97036 23.6777 8.6014 23.3902C9.41209 23.0203 10.3455 23.0212 11.165 23.3709C11.7435 23.6181 12.3859 23.7434 13.0608 23.7145C15.3439 23.6163 17.1792 21.7328 17.2204 19.4479C17.2467 17.9991 16.5639 16.7081 15.4964 15.8992L15.4955 15.8983Z" fill="black"/>
  <path d="M17.769 7.42639C17.8558 7.05566 17.7935 6.68315 17.6165 6.37466C17.4316 6.05299 17.1239 5.80147 16.7374 5.69628C16.535 5.64108 16.3307 5.6323 16.1362 5.66211C16.2747 5.77516 16.3912 5.91275 16.4789 6.06613C16.6638 6.38779 16.7251 6.78045 16.6209 7.16697L15.5288 11.2504L15.556 11.2179L15.2948 12.1917H15.2965C15.0441 13.2443 15.6743 14.3109 16.726 14.5931C17.7769 14.8744 18.8567 14.2653 19.1643 13.2285H19.1661L19.1801 13.1768L19.5307 11.8691C19.9996 10.1197 19.2344 8.33176 17.7699 7.42551L17.769 7.42639Z" fill="black"/>
  <path d="M4.37078 12.1934H4.37255L4.11136 11.2188L4.13852 11.2512L3.04648 7.16783C2.9413 6.78134 3.00353 6.38869 3.18846 6.06702C3.2761 5.91364 3.39268 5.77691 3.53116 5.66297C3.33657 5.63231 3.13236 5.64194 2.9299 5.69717C2.54339 5.80233 2.23576 6.053 2.05083 6.37555C1.87379 6.68404 1.81156 7.05655 1.89833 7.42729C0.433781 8.33354 -0.331361 10.1215 0.13754 11.8709L0.488119 13.1785L0.502146 13.2311H0.503896C0.811529 14.268 1.89131 14.8771 2.94218 14.5957C3.99303 14.3144 4.62319 13.2469 4.37166 12.1952L4.37078 12.1934Z" fill="black"/>
  <path d="M4.77915 8.84103H4.78266C5.08765 10.0243 6.27 10.7754 7.48301 10.5309C8.69599 10.2863 9.49446 9.13554 9.3174 7.92603H9.3209L9.29636 7.80246L9.29374 7.78844L8.1456 2.07924C8.03428 1.53672 8.15434 1.00121 8.43656 0.573502C8.57153 0.369291 8.74332 0.190497 8.94404 0.046759C8.67846 -0.0119631 8.39627 -0.0172216 8.11228 0.0415004C7.56975 0.15281 7.12452 0.472712 6.84145 0.90042C6.56008 1.32637 6.4409 1.85838 6.54871 2.39739C4.95619 3.38953 4.06484 5.29756 4.45749 7.24592L4.77915 8.84103Z" fill="black"/>
  <path d="M12.3097 10.5319C13.5227 10.7764 14.705 10.0253 15.01 8.84118H15.0135L15.3352 7.24606C15.7278 5.29859 14.8365 3.39056 13.244 2.39754C13.3518 1.85853 13.2326 1.32564 12.9521 0.900565C12.6699 0.47286 12.2238 0.152956 11.6813 0.0416465C11.3973 -0.016199 11.1151 -0.011817 10.8495 0.0469051C11.0511 0.190643 11.2229 0.369436 11.357 0.57365C11.6392 1.00136 11.7584 1.53687 11.648 2.07939L10.4981 7.79734V7.80261H10.4972L10.4726 7.9253H10.4762C10.2982 9.13569 11.0975 10.2865 12.3105 10.531L12.3097 10.5319Z" fill="black"/>
</svg>