<svg width="45" height="26" viewBox="0 0 45 26" fill="none" xmlns="http://www.w3.org/2000/svg">
<g clip-path="url(#clip0_79_3915)">
<path d="M9.92773 12.9999C9.92773 6.01234 15.4758 0.32019 22.301 0.32019C29.1263 0.32019 34.7542 6.01234 34.7542 12.9999C34.7542 19.9875 29.1662 25.6404 22.341 25.6404C15.5157 25.6404 9.92773 19.9875 9.92773 12.9999ZM22.301 22.6177C27.4898 22.6177 31.7207 18.2995 31.7207 12.9999C31.7207 7.70036 27.5298 3.38217 22.301 3.38217C17.0723 3.38217 12.8414 7.70036 12.8414 12.9999C12.8414 18.2995 17.0723 22.6177 22.301 22.6177Z" fill="#00457E"/>
<path d="M37.1492 5.89465C38.1739 8.12785 38.7039 10.5499 38.7039 13C38.7039 15.4501 38.1739 17.8722 37.1492 20.1054H33.7565C35.0325 17.9477 35.7047 15.4961 35.7047 13C35.7047 10.5039 35.0325 8.05233 33.7565 5.89465H37.1492ZM10.806 5.89465C9.53743 8.04768 8.86937 10.492 8.86937 12.9804C8.86937 15.4688 9.53743 17.9131 10.806 20.0661H7.45323C6.43432 17.8383 5.90747 15.4232 5.90747 12.9804C5.90747 10.5376 6.43432 8.12249 7.45323 5.89465H10.806ZM16.7132 5.89465H20.7046V20.0661H16.7132V5.89465ZM28.0887 20.0661L24.696 13L28.0887 5.93391H24.0973L20.7446 13L24.0973 20.0661H28.0887Z" fill="#00457E"/>
<path d="M4.89855 13C4.89429 10.574 5.38282 8.1716 6.33545 5.93384H3.38182L0.0290527 13L3.38182 20.0661H6.37536C5.42273 17.8283 4.93421 15.4259 4.93846 13M39.7434 13C39.7476 10.574 39.2591 8.1716 38.3065 5.93384H41.3L44.6528 13L41.3 20.0661H38.3065C39.2591 17.8283 39.7476 15.4259 39.7434 13Z" fill="#00457E"/>
</g>
<defs>
<clipPath id="clip0_79_3915">
<rect width="45" height="26" fill="white"/>
</clipPath>
</defs>
</svg>
