<svg width="45" height="44" viewBox="0 0 45 44" fill="none" xmlns="http://www.w3.org/2000/svg">
<path d="M16.2153 18.8593L16.4155 18.8486C19.2174 19.0026 22.0373 19.0851 24.8249 19.1749C26.2152 19.2037 27.6377 19.2253 29.0279 19.2541L31.1295 19.2937C31.2974 19.2902 31.4654 19.2866 31.7049 19.3009C31.8085 19.3117 31.9443 19.3153 32.0944 19.3831C32.2444 19.451 32.4338 19.5439 32.5409 19.7224C32.6802 19.8938 32.7301 20.1187 32.7014 20.2937C32.7049 20.4615 32.6619 20.5722 32.6511 20.6757C32.5974 20.8899 32.4793 21.1184 32.3791 21.2755C32.1537 21.629 31.8819 21.9253 31.6673 22.1752C31.56 22.3001 31.4527 22.4251 31.3776 22.5429C31.3025 22.6607 31.2273 22.7785 31.1844 22.8892C31.1056 23.1427 31.0769 23.3176 31.1769 23.464C31.2447 23.6176 31.4483 23.7747 31.7627 23.9747C32.9166 24.764 34.0705 25.5532 35.2566 26.3354C35.596 26.4961 35.8711 26.6711 36.1998 26.9353C36.3641 27.0675 36.5356 27.2318 36.6569 27.4746C36.7783 27.7174 36.8424 28.0066 36.7958 28.2529C36.7492 28.4993 36.6955 28.7135 36.5953 28.8706L36.3662 29.3597L35.9403 30.3308C35.3462 31.609 34.6163 32.8835 33.6828 34.0009C33.6327 34.0795 33.5434 34.133 33.4468 34.1544C33.3216 34.3508 33.0392 34.4471 32.8106 34.3293L29.7772 32.6756L28.2731 31.8292L27.5085 31.4256C27.2406 31.2827 27.0048 31.1327 26.7832 31.047C26.5546 30.9292 26.3473 30.9077 26.2186 30.9362C26.1543 30.9505 26.0578 30.9719 26.0005 31.0183C25.9433 31.0647 25.8861 31.1111 25.8682 31.1825C25.768 31.3396 25.6964 31.6253 25.6176 31.8787C25.5459 32.1644 25.4421 32.4571 25.299 32.7249C25.163 33.0248 25.0198 33.2926 24.748 33.5889C24.6086 33.7209 24.4119 33.8994 24.1223 33.9637C23.8328 34.0279 23.5398 33.9243 23.3755 33.7922C23.2969 33.7422 23.1718 33.635 23.0861 33.5529C23.0004 33.4708 22.979 33.3743 22.9255 33.2851L22.7041 32.8959L22.3007 32.1424L19.1165 26.0043L17.4958 22.9584C16.9639 21.93 16.4642 20.8945 15.7214 19.9803C15.6286 19.866 15.6 19.7375 15.5715 19.609C15.5825 19.2019 15.8472 18.8735 16.2153 18.8593ZM18.5184 22.3944L23.2088 31.6713L23.6122 32.4247L23.7943 32.7889C23.8085 32.8532 23.8478 32.8782 23.8549 32.9103C23.8942 32.9353 23.8621 32.9425 23.8942 32.9353C23.9335 32.9603 23.9657 32.9532 23.9657 32.9532C23.9657 32.9532 23.9979 32.9461 24.0801 32.8604C24.2196 32.7283 24.3377 32.4998 24.4558 32.2713C24.5739 32.0428 24.6526 31.7893 24.7243 31.5037C24.8353 31.2431 24.8676 30.9324 25.068 30.6183C25.1681 30.4612 25.3255 30.2577 25.5043 30.1506C25.6831 30.0435 25.869 29.9686 26.0942 29.9186C26.5195 29.858 26.884 29.9795 27.1841 30.1152C27.4842 30.2509 27.72 30.4009 27.988 30.5438L28.7526 30.9474L33.0542 33.2974C33.4834 32.7976 33.8733 32.2728 34.2239 31.723C34.5674 31.1411 34.9037 30.527 35.2008 29.888L35.6338 28.949L35.8307 28.467C35.8987 28.3171 35.9345 28.1743 35.9524 28.1029C35.9632 27.9993 35.949 27.935 35.9025 27.8779C35.849 27.7886 35.7633 27.7065 35.6454 27.6315C35.4346 27.4422 35.0881 27.2494 34.813 27.0744C33.634 26.3244 32.4229 25.5815 31.2511 24.8637C30.976 24.6887 30.5579 24.4779 30.2759 23.9673C30.1545 23.7245 30.0904 23.4353 30.1048 23.1961C30.1122 22.9247 30.1659 22.7105 30.2518 22.4891C30.3986 22.0857 30.6883 21.718 30.9029 21.4681C31.1426 21.1789 31.3643 20.9612 31.5145 20.7255C31.5897 20.6077 31.6326 20.497 31.6756 20.3864C31.6756 20.3864 31.6756 20.3864 31.6685 20.3542L31.6363 20.3614C31.5327 20.3506 31.3325 20.3613 31.1574 20.3327L29.0559 20.2931C27.6656 20.2643 26.2503 20.2748 24.86 20.246C22.4297 20.2456 19.9672 20.2524 17.5189 20.3234C17.8116 21.0339 18.1685 21.7302 18.5184 22.3944Z" fill="#8571AF"/>
<path d="M20.6664 16.557C20.5019 16.7284 20.2445 16.7855 20.0481 16.6605C19.8444 16.5033 19.7803 16.2141 19.9055 16.0178C20.6639 14.8718 21.3187 13.715 21.9091 12.5726C21.902 12.5404 21.9341 12.5333 21.927 12.5012C22.1274 12.187 22.5456 12.0942 22.86 12.2942C23.1744 12.4942 23.267 12.912 23.0667 13.2262C22.3476 14.3972 21.5427 15.486 20.6664 16.557Z" fill="#8571AF"/>
<path d="M12.436 27.0815C13.2873 26.0497 13.9885 24.9501 14.5575 23.7113C14.6434 23.4899 14.9258 23.3936 15.1474 23.4793C15.4011 23.5579 15.5296 23.8328 15.4186 24.0935C14.9353 25.4145 14.2769 26.7069 13.4934 27.8921L13.4684 27.9314C13.2287 28.2206 12.8284 28.2419 12.5391 28.0027C12.2569 27.7955 12.1964 27.3706 12.436 27.0815Z" fill="#8571AF"/>
<path d="M9.01219 21.2325C10.3098 20.8435 11.661 20.5438 13.0085 20.3798C13.2408 20.362 13.4766 20.512 13.5265 20.7369C13.5835 20.994 13.4404 21.2617 13.183 21.3188C11.9355 21.6293 10.6843 22.0754 9.51884 22.6036C9.48667 22.6107 9.4545 22.6179 9.42233 22.625C9.04341 22.7428 8.65755 22.5249 8.53985 22.1464C8.41501 21.7358 8.63327 21.3502 9.01219 21.2325Z" fill="#8571AF"/>
<path d="M13.5534 17.6627C13.2533 17.527 12.946 17.3591 12.6459 17.2234L10.8952 16.3305L10.47 16.0876L10.2414 15.9698C10.1699 15.9519 10.0913 15.9019 10.1308 15.6234C10.1632 15.3128 10.3385 15.0379 10.553 14.788C10.7497 14.6095 10.8212 14.6274 10.8998 14.6774L11.5858 15.031C11.893 15.1988 12.1681 15.3738 12.4504 15.581C12.7326 15.7881 13.0077 15.9631 13.2899 16.1702C13.5721 16.3774 13.8222 16.5916 14.0793 16.838C14.2115 16.9773 14.2614 17.2023 14.2005 17.3843C14.0967 17.6771 13.8143 17.7735 13.5534 17.6627Z" fill="#8571AF"/>
<path d="M17.0359 15.4067C17.0858 15.6317 16.9749 15.8923 16.7246 15.9815C16.4744 16.0708 16.2064 15.9279 16.1172 15.678C15.5607 14.0819 15.1007 12.4644 14.73 10.7933C14.7229 10.7612 14.7229 10.7612 14.7157 10.729C14.7088 10.3934 14.9664 10.0328 15.3595 9.97935C15.7205 9.933 16.0814 10.1901 16.1347 10.5829C16.3231 12.1932 16.6474 13.8071 17.0359 15.4067Z" fill="#8571AF"/>
</svg>
