<svg xmlns="http://www.w3.org/2000/svg" width="16" height="16" viewBox="0 0 16 16" fill="none">
  <path d="M11.8889 3H4.11111C3.49746 3 3 3.49746 3 4.11111V11.8889C3 12.5025 3.49746 13 4.11111 13H11.8889C12.5025 13 13 12.5025 13 11.8889V4.11111C13 3.49746 12.5025 3 11.8889 3Z" stroke="#525252" stroke-linecap="round" stroke-linejoin="round"/>
  <path d="M8.55556 7H5.44444C5.19898 7 5 7.19898 5 7.44444V10.5556C5 10.801 5.19898 11 5.44444 11H8.55556C8.80102 11 9 10.801 9 10.5556V7.44444C9 7.19898 8.80102 7 8.55556 7Z" stroke="#525252" stroke-linecap="round" stroke-linejoin="round"/>
</svg>