<svg width="50" height="48" viewBox="0 0 50 48" fill="none" xmlns="http://www.w3.org/2000/svg">
<g filter="url(#filter0_d_957_195)">
<path d="M15.4009 22.0676C17.262 24.7888 21.1127 24.5473 21.1127 24.5473C20.1501 23.6134 19.5243 22.76 19.4601 20.3287C19.396 17.8973 18.0161 17.2532 18.0161 17.2532C20.487 15.6914 19.6045 14.0007 19.5243 12.1168C19.4762 10.9414 20.1661 10.0719 20.7116 9.57275C17.5718 10.0448 14.7347 11.7147 12.7918 14.2346C10.8489 16.7544 9.95004 19.9296 10.2827 23.0981C10.5073 22.4702 13.6841 19.5558 15.4009 22.0676Z" fill="#32323A"/>
<path d="M38.2001 17.2208C38.1171 16.9562 38.0152 16.6979 37.8952 16.4479V16.4318C37.3353 15.2885 36.4069 14.3687 35.2606 13.8214C34.1143 13.2741 32.8174 13.1315 31.5802 13.4167C30.3431 13.7019 29.2382 14.3982 28.4449 15.3927C27.6515 16.3872 27.2162 17.6215 27.2096 18.8954C27.2097 19.296 27.2527 19.6955 27.338 20.0869C27.3383 20.0923 27.3383 20.0976 27.338 20.103C27.37 20.264 27.4182 20.425 27.4663 20.5861C27.7527 21.7203 27.8084 22.9009 27.6302 24.0572C27.4519 25.2136 27.0433 26.3221 26.4289 27.3165C25.8144 28.3109 25.0065 29.1709 24.0536 29.8451C23.1006 30.5193 22.0221 30.9939 20.8824 31.2407C19.7426 31.4874 18.565 31.5012 17.4199 31.2811C16.2747 31.0611 15.1855 30.6118 14.2172 29.96C13.2488 29.3082 12.4213 28.4673 11.7839 27.4875C11.1465 26.5077 10.7123 25.4091 10.5073 24.2572C10.7972 26.2539 11.5017 28.1673 12.5752 29.8734C13.6487 31.5795 15.0673 33.0404 16.739 34.1615C18.4108 35.2825 20.2985 36.0387 22.2799 36.3812C24.2614 36.7236 26.2924 36.6447 28.2415 36.1494C30.1907 35.6542 32.0144 34.7537 33.5948 33.5062C35.1751 32.2588 36.4768 30.6921 37.4155 28.9078C38.3543 27.1234 38.9092 25.1611 39.0444 23.1479C39.1795 21.1347 38.8919 19.1154 38.2001 17.2208Z" fill="#32323A"/>
<path fill-rule="evenodd" clip-rule="evenodd" d="M35.8097 21.1017C35.8097 28.118 30.142 33.8059 23.1506 33.8059C19.4399 33.8059 16.1021 32.2036 13.7866 29.6509C13.9268 29.7582 14.0704 29.8614 14.2172 29.9602C15.1856 30.612 16.2748 31.0613 17.42 31.2814C18.5651 31.5014 19.7427 31.4876 20.8825 31.2409C22.0222 30.9942 23.1007 30.5196 24.0537 29.8453C25.0066 29.1711 25.8145 28.3111 26.4289 27.3167C27.0434 26.3223 27.452 25.2138 27.6302 24.0575C27.8085 22.9011 27.7528 21.7206 27.4664 20.5863C27.4183 20.4253 27.3701 20.2643 27.3381 20.1032C27.3384 20.0979 27.3384 20.0925 27.3381 20.0871C27.2528 19.6957 27.2098 19.2963 27.2097 18.8956C27.2163 17.6217 27.6516 16.3874 28.445 15.393C29.2383 14.3985 30.3432 13.7022 31.5803 13.4169C32.0907 13.2993 32.6113 13.2544 33.1272 13.2807C34.8079 15.437 35.8097 18.1519 35.8097 21.1017Z" fill="#46444A"/>
</g>
<defs>
<filter id="filter0_d_957_195" x="0.214843" y="0.622753" width="48.8621" height="47.0176" filterUnits="userSpaceOnUse" color-interpolation-filters="sRGB">
<feFlood flood-opacity="0" result="BackgroundImageFix"/>
<feColorMatrix in="SourceAlpha" type="matrix" values="0 0 0 0 0 0 0 0 0 0 0 0 0 0 0 0 0 0 127 0" result="hardAlpha"/>
<feOffset dy="1.05"/>
<feGaussianBlur stdDeviation="5"/>
<feComposite in2="hardAlpha" operator="out"/>
<feColorMatrix type="matrix" values="0 0 0 0 1 0 0 0 0 1 0 0 0 0 1 0 0 0 0.25 0"/>
<feBlend mode="normal" in2="BackgroundImageFix" result="effect1_dropShadow_957_195"/>
<feBlend mode="normal" in="SourceGraphic" in2="effect1_dropShadow_957_195" result="shape"/>
</filter>
</defs>
</svg>
