<svg viewBox="0 0 43 12" fill="none" xmlns="http://www.w3.org/2000/svg">
<path d="M42.4898 3.85905L42.4997 3.84814H40.9304L39.9395 7.28325H39.8869L38.7491 3.84814H36.8843L39.1281 9.51712L38.1907 11.2451V11.2867H39.6548L42.4898 3.85905Z" fill="black"/>
<path d="M25.0927 3.84814H23.4282V9.49629H25.0927V3.84814Z" fill="black"/>
<path d="M36.5568 8.08409V5.72425C36.5568 4.43869 35.798 3.73242 34.4598 3.73242C33.6058 3.73242 33.0165 3.88022 31.9413 4.20657L32.2359 5.50305C33.2159 5.06064 33.6474 4.87118 34.1007 4.87118C34.6483 4.87118 34.8913 5.26101 34.8913 5.86213V5.90379C32.9838 6.26189 32.3936 6.46226 32.0256 6.83126C31.7518 7.10504 31.6357 7.49487 31.6357 7.94819C31.6357 9.03338 32.4789 9.61268 33.2685 9.61268C33.8587 9.61268 34.3328 9.39148 34.9756 8.90641L35.0917 9.49662H36.7562L36.5568 8.08409ZM34.8923 8.12674C34.4499 8.36878 34.197 8.46401 33.9023 8.46401C33.5016 8.46401 33.2486 8.20015 33.2486 7.77956C33.2486 7.62184 33.2804 7.46313 33.4064 7.33715C33.6067 7.13678 33.9966 6.98898 34.8923 6.77869V8.12674Z" fill="black"/>
<path d="M29.2346 3.73242C28.6235 3.73242 28.1494 3.96454 27.6118 4.40694V3.84848H25.9473V11.2871H27.6118V9.44306C27.9282 9.52737 28.2228 9.57003 28.5809 9.57003C30.0668 9.57003 31.405 8.47392 31.405 6.52475C31.405 4.77595 30.4358 3.73242 29.2346 3.73242ZM28.1801 8.5265C27.9907 8.5265 27.8111 8.50567 27.6108 8.44218V5.38699C27.9589 5.14495 28.2426 5.0289 28.6007 5.0289C29.2227 5.0289 29.7177 5.52388 29.7177 6.57832C29.7186 7.92637 28.9915 8.5265 28.1801 8.5265Z" fill="black"/>
<path d="M9.3194 0.938965H2.18234C1.25289 0.938965 0.5 1.6988 0.5 2.63519V9.83276C0.5 10.7692 1.25289 11.529 2.18234 11.529H9.3194C10.2489 11.529 11.0007 10.7692 11.0007 9.83276V2.63519C11.0017 1.6978 10.2489 0.938965 9.3194 0.938965Z" fill="#1677FF"/>
<path d="M9.14605 7.58869C8.72646 7.44684 8.16204 7.22961 7.53414 7.00047C7.91108 6.33884 8.21263 5.58595 8.41102 4.76759H6.34083V4.0157H8.87625V3.59611H6.34083V2.34229H5.30623C5.1247 2.34229 5.1247 2.52282 5.1247 2.52282V3.59511H2.56052V4.01471H5.1247V4.7666H3.0069V5.1862H7.11356C6.96377 5.70796 6.76141 6.19897 6.52236 6.64436C5.19017 6.20096 3.76772 5.84187 2.87497 6.06308C2.30361 6.20492 1.9356 6.45787 1.71935 6.72371C0.727406 7.94083 1.43863 9.78982 3.53362 9.78982C4.77256 9.78982 5.96587 9.09347 6.89037 7.94579C8.27017 8.61436 11.001 9.76303 11.001 9.76303V8.12632C11.002 8.12632 10.6588 8.09855 9.14605 7.58869ZM3.33821 9.08256C1.70447 9.08256 1.22139 7.7851 2.02884 7.07486C2.29865 6.83481 2.79065 6.71776 3.05253 6.69197C4.02265 6.59575 4.92135 6.96872 5.98175 7.49049C5.23679 8.47053 4.2875 9.08256 3.33821 9.08256Z" fill="white"/>
<path d="M17.7072 2.06738H15.4733L12.9766 9.49607H14.5151L14.9366 8.04188H17.5812L17.9819 9.49607H19.9519L17.7072 2.06738ZM15.2838 6.82972L16.2738 3.40552H16.3155L17.2528 6.82972H15.2838Z" fill="black"/>
<path d="M22.29 1.80371H20.6255V9.49526H22.29V1.80371Z" fill="black"/>
<path d="M23.3018 2.48882C23.3018 3.03638 23.7025 3.40538 24.261 3.40538C24.8194 3.40538 25.2202 3.03638 25.2202 2.48882C25.2202 1.95119 24.8194 1.57227 24.261 1.57227C23.7025 1.57227 23.3018 1.95119 23.3018 2.48882Z" fill="#1677FF"/>
</svg>
