<svg width="59" height="59" viewBox="0 0 59 59" fill="none" xmlns="http://www.w3.org/2000/svg">
<g filter="url(#filter0_i_3257_308102)">
<rect width="59" height="59" rx="29.5" fill="#FBFCFE"/>
<rect x="0.5" y="0.5" width="58" height="58" rx="29" stroke="url(#paint0_linear_3257_308102)" stroke-opacity="0.15"/>
<path d="M38.5 23C38.5 24.6569 34.4706 26 29.5 26C24.5294 26 20.5 24.6569 20.5 23M38.5 23C38.5 21.3431 34.4706 20 29.5 20C24.5294 20 20.5 21.3431 20.5 23M38.5 23V37C38.5 37.7956 37.5518 38.5587 35.864 39.1213C34.1761 39.6839 31.8869 40 29.5 40C27.1131 40 24.8239 39.6839 23.136 39.1213C21.4482 38.5587 20.5 37.7956 20.5 37V23M20.5 30C20.5 30.7956 21.4482 31.5587 23.136 32.1213C24.8239 32.6839 27.1131 33 29.5 33C31.8869 33 34.1761 32.6839 35.864 32.1213C37.5518 31.5587 38.5 30.7956 38.5 30" stroke="#759CFE" stroke-width="1.5" stroke-linecap="round" stroke-linejoin="round"/>
</g>
<defs>
<filter id="filter0_i_3257_308102" x="0" y="0" width="59" height="61" filterUnits="userSpaceOnUse" color-interpolation-filters="sRGB">
<feFlood flood-opacity="0" result="BackgroundImageFix"/>
<feBlend mode="normal" in="SourceGraphic" in2="BackgroundImageFix" result="shape"/>
<feColorMatrix in="SourceAlpha" type="matrix" values="0 0 0 0 0 0 0 0 0 0 0 0 0 0 0 0 0 0 127 0" result="hardAlpha"/>
<feMorphology radius="2" operator="dilate" in="SourceAlpha" result="effect1_innerShadow_3257_308102"/>
<feOffset dy="2"/>
<feGaussianBlur stdDeviation="8"/>
<feComposite in2="hardAlpha" operator="arithmetic" k2="-1" k3="1"/>
<feColorMatrix type="matrix" values="0 0 0 0 0.436676 0 0 0 0 0.594442 0 0 0 0 0.996745 0 0 0 0.2 0"/>
<feBlend mode="normal" in2="shape" result="effect1_innerShadow_3257_308102"/>
</filter>
<linearGradient id="paint0_linear_3257_308102" x1="17.0035" y1="59" x2="40.0162" y2="6.40661" gradientUnits="userSpaceOnUse">
<stop stop-color="#5688FF"/>
<stop offset="1" stop-color="#82A7FE"/>
</linearGradient>
</defs>
</svg>
