<svg width="59" height="59" viewBox="0 0 59 59" fill="none" xmlns="http://www.w3.org/2000/svg">
<g filter="url(#filter0_i_3257_307884)">
<rect width="59" height="59" rx="29.5" fill="#FBFCFE"/>
<rect x="0.5" y="0.5" width="58" height="58" rx="29" stroke="url(#paint0_linear_3257_307884)" stroke-opacity="0.15"/>
<path d="M31.5 26H25.5M33.5 30H25.5M30.5 34H25.5M21.5 20V40L23.5 39L25.5 40L27.5 39L29.5 40L31.5 39L33.5 40L35.5 39L37.5 40V20L35.5 21L33.5 20L31.5 21L29.5 20L27.5 21L25.5 20L23.5 21L21.5 20Z" stroke="#759CFE" stroke-width="1.5" stroke-linecap="round" stroke-linejoin="round"/>
</g>
<defs>
<filter id="filter0_i_3257_307884" x="0" y="0" width="59" height="61" filterUnits="userSpaceOnUse" color-interpolation-filters="sRGB">
<feFlood flood-opacity="0" result="BackgroundImageFix"/>
<feBlend mode="normal" in="SourceGraphic" in2="BackgroundImageFix" result="shape"/>
<feColorMatrix in="SourceAlpha" type="matrix" values="0 0 0 0 0 0 0 0 0 0 0 0 0 0 0 0 0 0 127 0" result="hardAlpha"/>
<feMorphology radius="2" operator="dilate" in="SourceAlpha" result="effect1_innerShadow_3257_307884"/>
<feOffset dy="2"/>
<feGaussianBlur stdDeviation="8"/>
<feComposite in2="hardAlpha" operator="arithmetic" k2="-1" k3="1"/>
<feColorMatrix type="matrix" values="0 0 0 0 0.436676 0 0 0 0 0.594442 0 0 0 0 0.996745 0 0 0 0.2 0"/>
<feBlend mode="normal" in2="shape" result="effect1_innerShadow_3257_307884"/>
</filter>
<linearGradient id="paint0_linear_3257_307884" x1="17.0035" y1="59" x2="40.0162" y2="6.40661" gradientUnits="userSpaceOnUse">
<stop stop-color="#5688FF"/>
<stop offset="1" stop-color="#82A7FE"/>
</linearGradient>
</defs>
</svg>
