<svg viewBox="0 0 35 22" fill="none" xmlns="http://www.w3.org/2000/svg">
<path d="M24.2646 0.5C29.9176 0.500102 34.5 5.13593 34.5 10.8545C34.5 16.573 29.9176 21.2089 24.2646 21.209C21.7302 21.209 19.4126 20.2749 17.625 18.7314C15.8374 20.2749 13.5198 21.209 10.9854 21.209C5.3325 21.2088 0.750008 16.573 0.75 10.8545C0.75 5.13597 5.33249 0.500166 10.9854 0.5C13.5195 0.5 15.8374 1.43337 17.625 2.97656C19.4126 1.43334 21.7304 0.5 24.2646 0.5Z" fill="#ED0006"/>
<path d="M24.2646 0.5C29.9176 0.500102 34.5 5.13593 34.5 10.8545C34.5 16.573 29.9176 21.2089 24.2646 21.209C21.7302 21.209 19.4126 20.2749 17.625 18.7314C19.8247 16.8323 21.2217 14.0093 21.2217 10.8545C21.2217 7.69948 19.8249 4.87575 17.625 2.97656C19.4126 1.43334 21.7304 0.5 24.2646 0.5Z" fill="#F9A000"/>
<path d="M17.6245 2.97656C19.8246 4.87576 21.2212 7.69935 21.2212 10.8545C21.2212 14.0094 19.8243 16.8323 17.6245 18.7314C15.425 16.8323 14.0288 14.0091 14.0288 10.8545C14.0288 7.69965 15.4248 4.87575 17.6245 2.97656Z" fill="#FF5E00"/>
</svg>
