<svg width="35" height="22" viewBox="0 0 35 22" fill="none" xmlns="http://www.w3.org/2000/svg">
<path fill-rule="evenodd" clip-rule="evenodd" d="M17.625 18.7354C15.8377 20.2778 13.5191 21.209 10.9857 21.209C5.33266 21.209 0.75 16.5731 0.75 10.8545C0.75 5.13586 5.33266 0.5 10.9857 0.5C13.5191 0.5 15.8377 1.43113 17.625 2.97356C19.4124 1.43113 21.7309 0.5 24.2644 0.5C29.9174 0.5 34.5 5.13586 34.5 10.8545C34.5 16.5731 29.9174 21.209 24.2644 21.209C21.7309 21.209 19.4124 20.2778 17.625 18.7354Z" fill="#ED0006"/>
<path fill-rule="evenodd" clip-rule="evenodd" d="M17.625 18.7354C19.8258 16.8362 21.2213 14.0102 21.2213 10.8545C21.2213 7.69876 19.8258 4.87276 17.625 2.97356C19.4124 1.43113 21.7309 0.5 24.2644 0.5C29.9174 0.5 34.5 5.13586 34.5 10.8545C34.5 16.5731 29.9174 21.209 24.2644 21.209C21.7309 21.209 19.4124 20.2778 17.625 18.7354Z" fill="#F9A000"/>
<path fill-rule="evenodd" clip-rule="evenodd" d="M17.6251 18.7344C19.8258 16.8352 21.2213 14.0092 21.2213 10.8535C21.2213 7.69784 19.8258 4.87186 17.6251 2.97266C15.4243 4.87186 14.0288 7.69784 14.0288 10.8535C14.0288 14.0092 15.4243 16.8352 17.6251 18.7344Z" fill="#FF5E00"/>
</svg>
