<svg viewBox="0 0 31 27" fill="none" xmlns="http://www.w3.org/2000/svg">
<path fill-rule="evenodd" clip-rule="evenodd" d="M4.10001 18.8613H1.76659C1.60691 18.8613 1.4711 18.9774 1.4462 19.135L0.502448 25.1186C0.48369 25.2367 0.575128 25.3431 0.694891 25.3431H1.80889C1.96857 25.3431 2.10437 25.227 2.12927 25.0691L2.38382 23.4553C2.40837 23.2972 2.54451 23.1813 2.70385 23.1813H3.44253C4.97964 23.1813 5.8667 22.4375 6.09849 20.9635C6.20286 20.3187 6.10291 19.812 5.80085 19.4571C5.46927 19.0675 4.88096 18.8613 4.10001 18.8613ZM4.36922 21.0468C4.24164 21.8841 3.60188 21.8841 2.9833 21.8841H2.63117L2.8782 20.3203C2.89287 20.2259 2.97475 20.1562 3.0703 20.1562H3.23168C3.65305 20.1562 4.05059 20.1562 4.25601 20.3964C4.37838 20.5398 4.41596 20.7526 4.36922 21.0468ZM11.0752 21.0199H9.95776C9.86255 21.0199 9.78029 21.0895 9.7656 21.1841L9.71618 21.4966L9.63802 21.3834C9.39613 21.0322 8.85676 20.9149 8.31833 20.9149C7.08344 20.9149 6.02886 21.8501 5.82343 23.1621C5.7167 23.8164 5.86843 24.4421 6.23965 24.8786C6.58023 25.2798 7.06749 25.447 7.64712 25.447C8.64202 25.447 9.19386 24.8072 9.19386 24.8072L9.14397 25.1178C9.12518 25.2365 9.2166 25.3429 9.33565 25.3429H10.3422C10.5023 25.3429 10.6373 25.2269 10.6626 25.069L11.2666 21.2444C11.2857 21.1268 11.1946 21.0199 11.0752 21.0199ZM9.51755 23.1948C9.4097 23.8331 8.90302 24.2617 8.25691 24.2617C7.93244 24.2617 7.67302 24.1576 7.5066 23.9604C7.34144 23.7646 7.27859 23.4858 7.33117 23.1753C7.43191 22.5423 7.94712 22.0999 8.58344 22.0999C8.90065 22.0999 9.15865 22.2052 9.32855 22.4042C9.49876 22.6052 9.56634 22.8856 9.51755 23.1948ZM15.9035 21.0198H17.0264C17.1837 21.0198 17.2754 21.1961 17.186 21.3251L13.4513 26.716C13.3909 26.8033 13.2912 26.8552 13.1848 26.8552H12.0633C11.9054 26.8552 11.8132 26.6775 11.9046 26.5481L13.0675 24.9067L11.8307 21.277C11.7879 21.1508 11.8811 21.0198 12.0153 21.0198H13.1187C13.262 21.0198 13.3885 21.1139 13.4299 21.2511L14.0862 23.4433L15.635 21.162C15.6957 21.073 15.7964 21.0198 15.9035 21.0198Z" fill="#253B80"/>
<path fill-rule="evenodd" clip-rule="evenodd" d="M28.0782 25.1186L29.0358 19.0256C29.0505 18.931 29.1325 18.8614 29.2277 18.8611H30.3058C30.4248 18.8611 30.5163 18.9678 30.4975 19.0859L29.5531 25.0692C29.5285 25.2271 29.3927 25.3432 29.2327 25.3432H28.2699C28.1508 25.3432 28.0594 25.2367 28.0782 25.1186ZM20.7441 18.8614H18.4103C18.251 18.8614 18.1152 18.9775 18.0902 19.135L17.1465 25.1186C17.1277 25.2367 17.2191 25.3432 17.3383 25.3432H18.5358C18.6471 25.3432 18.7423 25.262 18.7597 25.1515L19.0275 23.4554C19.0521 23.2973 19.1882 23.1814 19.3476 23.1814H20.0859C21.6233 23.1814 22.5102 22.4376 22.7421 20.9636C22.8468 20.3188 22.7462 19.8121 22.4444 19.4571C22.1129 19.0676 21.5251 18.8614 20.7441 18.8614ZM21.0134 21.0468C20.8861 21.8841 20.2463 21.8841 19.6273 21.8841H19.2756L19.523 20.3204C19.5377 20.2259 19.6188 20.1563 19.7147 20.1563H19.876C20.2971 20.1563 20.695 20.1563 20.9003 20.3965C21.0228 20.5398 21.0601 20.7527 21.0134 21.0468ZM27.7187 21.02H26.602C26.506 21.02 26.4246 21.0896 26.4102 21.1842L26.3608 21.4967L26.2823 21.3835C26.0404 21.0323 25.5014 20.915 24.9629 20.915C23.728 20.915 22.6738 21.8502 22.4684 23.1621C22.3619 23.8165 22.513 24.4422 22.8843 24.8786C23.2255 25.2798 23.7121 25.447 24.2917 25.447C25.2866 25.447 25.8383 24.8073 25.8383 24.8073L25.7886 25.1178C25.7698 25.2366 25.8612 25.343 25.981 25.343H26.9872C27.1465 25.343 27.2823 25.2269 27.3072 25.069L27.9115 21.2445C27.9299 21.1269 27.8385 21.02 27.7187 21.02ZM26.1612 23.1948C26.054 23.8332 25.5467 24.2617 24.9004 24.2617C24.5766 24.2617 24.3167 24.1577 24.1501 23.9605C23.9849 23.7647 23.9229 23.4858 23.9748 23.1754C24.076 22.5424 24.5906 22.1 25.2269 22.1C25.5443 22.1 25.8022 22.2053 25.9722 22.4042C26.143 22.6052 26.2106 22.8857 26.1612 23.1948Z" fill="#179BD7"/>
<path d="M12.7355 16.7207L13.0224 14.8986L12.3834 14.8838H9.33203L11.4526 1.43802C11.459 1.39742 11.4805 1.35957 11.5118 1.3327C11.543 1.30583 11.5831 1.29102 11.6248 1.29102H16.7698C18.4779 1.29102 19.6566 1.64645 20.2721 2.348C20.5606 2.67711 20.7444 3.02102 20.8333 3.3995C20.9264 3.79664 20.9282 4.2711 20.8371 4.84978L20.8304 4.89202V5.2628L21.1191 5.42627C21.3621 5.55516 21.555 5.70272 21.7031 5.87166C21.9501 6.15305 22.1097 6.51068 22.1771 6.93468C22.2467 7.37075 22.2237 7.88964 22.1097 8.47711C21.978 9.15288 21.7652 9.74144 21.4778 10.223C21.2133 10.6668 20.8765 11.0348 20.4767 11.3201C20.095 11.591 19.6413 11.7968 19.1285 11.9284C18.6314 12.0578 18.0649 12.1231 17.4434 12.1231H17.043C16.7567 12.1231 16.4785 12.2262 16.2603 12.4111C16.0415 12.5998 15.8965 12.8575 15.8522 13.1395L15.822 13.3035L15.3152 16.515L15.2921 16.6329C15.2861 16.6703 15.2757 16.689 15.2604 16.7016C15.2466 16.713 15.2269 16.7207 15.2076 16.7207H12.7355Z" fill="#253B80"/>
<path d="M21.3923 4.93481C21.377 5.03299 21.3595 5.13337 21.3397 5.23649C20.6611 8.72011 18.3399 9.92356 15.3751 9.92356H13.8656C13.5031 9.92356 13.1976 10.1868 13.141 10.5445L12.3681 15.446L12.1493 16.8354C12.1125 17.0702 12.2936 17.2819 12.5305 17.2819H15.2079C15.5249 17.2819 15.7941 17.0515 15.844 16.7389L15.8704 16.6028L16.3746 13.4038L16.4069 13.2284C16.4562 12.9147 16.726 12.6843 17.0431 12.6843H17.4435C20.0374 12.6843 22.0681 11.6311 22.6616 8.58353C22.9095 7.31042 22.7812 6.24741 22.1251 5.49978C21.9266 5.27434 21.6803 5.08729 21.3923 4.93481Z" fill="#179BD7"/>
<path d="M20.6822 4.65198C20.5786 4.62181 20.4715 4.59438 20.3618 4.56971C20.2516 4.54558 20.1385 4.52418 20.0223 4.50554C19.6153 4.43971 19.1694 4.40845 18.6916 4.40845H14.6589C14.5596 4.40845 14.4654 4.43093 14.3809 4.47153C14.1949 4.56093 14.0567 4.73701 14.0233 4.95257L13.1653 10.3862L13.1406 10.5447C13.1972 10.187 13.5027 9.92375 13.8652 9.92375H15.3747C18.3395 9.92375 20.6609 8.71977 21.3393 5.2367C21.3595 5.13358 21.3766 5.03321 21.3919 4.93503C21.2203 4.84397 21.0343 4.76608 20.8341 4.6997C20.7848 4.68325 20.7338 4.66735 20.6822 4.65198Z" fill="#222D65"/>
<path d="M14.0234 4.95251C14.0568 4.73693 14.1951 4.56086 14.381 4.472C14.4661 4.43141 14.5599 4.40892 14.659 4.40892H18.6918C19.1696 4.40892 19.6155 4.44019 20.0224 4.50601C20.1388 4.52466 20.2518 4.54605 20.362 4.57018C20.4718 4.59487 20.5787 4.6223 20.6824 4.65246C20.7339 4.66782 20.7849 4.68372 20.8348 4.69964C21.035 4.766 21.221 4.84444 21.3926 4.93495C21.5946 3.64758 21.3911 2.77106 20.695 1.97735C19.9277 1.10358 18.5426 0.729492 16.7704 0.729492H11.6252C11.2632 0.729492 10.9545 0.992766 10.8984 1.35095L8.7555 14.9349C8.71318 15.2037 8.9205 15.4462 9.19145 15.4462H12.368L13.1655 10.3861L14.0234 4.95251Z" fill="#253B80"/>
</svg>
