<svg width="100%" height="100%" viewBox="0 0 552 548" fill="none" xmlns="http://www.w3.org/2000/svg">
<g filter="url(#filter0_d_3419_117263)">
<circle cx="276" cy="272" r="256" fill="url(#paint0_linear_3419_117263)"/>
</g>
<g filter="url(#filter1_i_3419_117263)">
<circle cx="276.5" cy="272.5" r="230.5" fill="url(#paint1_radial_3419_117263)"/>
</g>
<rect x="222" y="288" width="160" height="20" rx="10" fill="#A7B5FF" fill-opacity="0.2"/>
<rect x="222" y="327" width="79" height="20" rx="10" fill="#A7B5FF" fill-opacity="0.4"/>
<rect x="317" y="327" width="105" height="20" rx="10" fill="#A7B5FF" fill-opacity="0.4"/>
<rect x="222" y="366" width="127" height="20" rx="10" fill="#A7B5FF" fill-opacity="0.2"/>
<g filter="url(#filter2_dd_3419_117263)">
<mask id="path-7-inside-1_3419_117263" fill="white">
<path fill-rule="evenodd" clip-rule="evenodd" d="M154.118 160.431C149.823 164.726 149.823 171.691 154.118 175.987L188.337 210.206L153.774 244.768C149.478 249.064 149.478 256.029 153.774 260.325C158.07 264.62 165.035 264.62 169.331 260.325L210.618 219.037C210.919 218.736 211.2 218.424 211.462 218.101C211.778 217.844 212.083 217.568 212.377 217.275C216.282 213.369 216.282 207.038 212.377 203.132L169.675 160.431C165.379 156.135 158.414 156.135 154.118 160.431Z"/>
</mask>
<path fill-rule="evenodd" clip-rule="evenodd" d="M154.118 160.431C149.823 164.726 149.823 171.691 154.118 175.987L188.337 210.206L153.774 244.768C149.478 249.064 149.478 256.029 153.774 260.325C158.07 264.62 165.035 264.62 169.331 260.325L210.618 219.037C210.919 218.736 211.2 218.424 211.462 218.101C211.778 217.844 212.083 217.568 212.377 217.275C216.282 213.369 216.282 207.038 212.377 203.132L169.675 160.431C165.379 156.135 158.414 156.135 154.118 160.431Z" fill="url(#paint2_radial_3419_117263)"/>
<path d="M154.118 175.987L152.704 177.401L154.118 175.987ZM188.337 210.206L189.751 208.791L191.165 210.206L189.751 211.62L188.337 210.206ZM153.774 244.768L155.188 246.183L153.774 244.768ZM169.331 260.325L170.745 261.739L169.331 260.325ZM210.618 219.037L209.204 217.623L210.618 219.037ZM211.462 218.101L209.909 216.841L210.039 216.681L210.199 216.55L211.462 218.101ZM152.704 177.401C147.627 172.324 147.627 164.093 152.704 159.016L155.533 161.845C152.018 165.359 152.018 171.058 155.533 174.573L152.704 177.401ZM186.923 211.62L152.704 177.401L155.533 174.573L189.751 208.791L186.923 211.62ZM152.36 243.354L186.923 208.791L189.751 211.62L155.188 246.183L152.36 243.354ZM152.36 261.739C147.283 256.662 147.283 248.431 152.36 243.354L155.188 246.183C151.674 249.697 151.674 255.396 155.188 258.91L152.36 261.739ZM170.745 261.739C165.668 266.816 157.437 266.816 152.36 261.739L155.188 258.91C158.703 262.425 164.402 262.425 167.916 258.91L170.745 261.739ZM212.033 220.451L170.745 261.739L167.916 258.91L209.204 217.623L212.033 220.451ZM213.016 219.361C212.71 219.737 212.382 220.101 212.033 220.451L209.204 217.623C209.456 217.371 209.691 217.11 209.909 216.841L213.016 219.361ZM213.791 218.689C213.449 219.031 213.094 219.351 212.726 219.651L210.199 216.55C210.462 216.336 210.717 216.106 210.962 215.86L213.791 218.689ZM213.791 201.718C218.477 206.405 218.477 214.002 213.791 218.689L210.962 215.86C214.087 212.736 214.087 207.671 210.962 204.547L213.791 201.718ZM171.089 159.016L213.791 201.718L210.962 204.547L168.26 161.845L171.089 159.016ZM152.704 159.016C157.781 153.939 166.012 153.939 171.089 159.016L168.26 161.845C164.746 158.33 159.047 158.33 155.533 161.845L152.704 159.016Z" fill="url(#paint3_linear_3419_117263)" mask="url(#path-7-inside-1_3419_117263)"/>
</g>
<g filter="url(#filter3_dd_3419_117263)">
<path d="M305 247C310.523 247 315 251.477 315 257C315 262.523 310.523 267 305 267L235 267C229.477 267 225 262.523 225 257C225 251.477 229.477 247 235 247L305 247Z" fill="url(#paint4_linear_3419_117263)"/>
<path d="M305 248C309.971 248 314 252.029 314 257C314 261.971 309.971 266 305 266L235 266C230.029 266 226 261.971 226 257C226 252.029 230.029 248 235 248L305 248Z" stroke="url(#paint5_linear_3419_117263)" stroke-width="2"/>
</g>
<defs>
<filter id="filter0_d_3419_117263" x="0" y="0" width="552" height="552" filterUnits="userSpaceOnUse" color-interpolation-filters="sRGB">
<feFlood flood-opacity="0" result="BackgroundImageFix"/>
<feColorMatrix in="SourceAlpha" type="matrix" values="0 0 0 0 0 0 0 0 0 0 0 0 0 0 0 0 0 0 127 0" result="hardAlpha"/>
<feOffset dy="4"/>
<feGaussianBlur stdDeviation="10"/>
<feComposite in2="hardAlpha" operator="out"/>
<feColorMatrix type="matrix" values="0 0 0 0 0 0 0 0 0 0 0 0 0 0 0 0 0 0 0.3 0"/>
<feBlend mode="normal" in2="BackgroundImageFix" result="effect1_dropShadow_3419_117263"/>
<feBlend mode="normal" in="SourceGraphic" in2="effect1_dropShadow_3419_117263" result="shape"/>
</filter>
<filter id="filter1_i_3419_117263" x="46" y="42" width="461" height="465" filterUnits="userSpaceOnUse" color-interpolation-filters="sRGB">
<feFlood flood-opacity="0" result="BackgroundImageFix"/>
<feBlend mode="normal" in="SourceGraphic" in2="BackgroundImageFix" result="shape"/>
<feColorMatrix in="SourceAlpha" type="matrix" values="0 0 0 0 0 0 0 0 0 0 0 0 0 0 0 0 0 0 127 0" result="hardAlpha"/>
<feOffset dy="4"/>
<feGaussianBlur stdDeviation="12"/>
<feComposite in2="hardAlpha" operator="arithmetic" k2="-1" k3="1"/>
<feColorMatrix type="matrix" values="0 0 0 0 0 0 0 0 0 0 0 0 0 0 0 0 0 0 0.32 0"/>
<feBlend mode="normal" in2="shape" result="effect1_innerShadow_3419_117263"/>
</filter>
<filter id="filter2_dd_3419_117263" x="110.553" y="121.207" width="144.752" height="186.34" filterUnits="userSpaceOnUse" color-interpolation-filters="sRGB">
<feFlood flood-opacity="0" result="BackgroundImageFix"/>
<feColorMatrix in="SourceAlpha" type="matrix" values="0 0 0 0 0 0 0 0 0 0 0 0 0 0 0 0 0 0 127 0" result="hardAlpha"/>
<feOffset dy="1"/>
<feGaussianBlur stdDeviation="3"/>
<feComposite in2="hardAlpha" operator="out"/>
<feColorMatrix type="matrix" values="0 0 0 0 0 0 0 0 0 0.113725 0 0 0 0 0.423529 0 0 0 0.5 0"/>
<feBlend mode="normal" in2="BackgroundImageFix" result="effect1_dropShadow_3419_117263"/>
<feColorMatrix in="SourceAlpha" type="matrix" values="0 0 0 0 0 0 0 0 0 0 0 0 0 0 0 0 0 0 127 0" result="hardAlpha"/>
<feOffset dy="4"/>
<feGaussianBlur stdDeviation="20"/>
<feComposite in2="hardAlpha" operator="out"/>
<feColorMatrix type="matrix" values="0 0 0 0 0 0 0 0 0 0.113725 0 0 0 0 0.423529 0 0 0 0.3 0"/>
<feBlend mode="normal" in2="effect1_dropShadow_3419_117263" result="effect2_dropShadow_3419_117263"/>
<feBlend mode="normal" in="SourceGraphic" in2="effect2_dropShadow_3419_117263" result="shape"/>
</filter>
<filter id="filter3_dd_3419_117263" x="185" y="209" width="170" height="100" filterUnits="userSpaceOnUse" color-interpolation-filters="sRGB">
<feFlood flood-opacity="0" result="BackgroundImageFix"/>
<feColorMatrix in="SourceAlpha" type="matrix" values="0 0 0 0 0 0 0 0 0 0 0 0 0 0 0 0 0 0 127 0" result="hardAlpha"/>
<feOffset dy="2"/>
<feGaussianBlur stdDeviation="20"/>
<feComposite in2="hardAlpha" operator="out"/>
<feColorMatrix type="matrix" values="0 0 0 0 0 0 0 0 0 0.113725 0 0 0 0 0.423529 0 0 0 0.2 0"/>
<feBlend mode="normal" in2="BackgroundImageFix" result="effect1_dropShadow_3419_117263"/>
<feColorMatrix in="SourceAlpha" type="matrix" values="0 0 0 0 0 0 0 0 0 0 0 0 0 0 0 0 0 0 127 0" result="hardAlpha"/>
<feOffset dy="2"/>
<feGaussianBlur stdDeviation="4"/>
<feComposite in2="hardAlpha" operator="out"/>
<feColorMatrix type="matrix" values="0 0 0 0 0 0 0 0 0 0.113725 0 0 0 0 0.423529 0 0 0 0.28 0"/>
<feBlend mode="normal" in2="effect1_dropShadow_3419_117263" result="effect2_dropShadow_3419_117263"/>
<feBlend mode="normal" in="SourceGraphic" in2="effect2_dropShadow_3419_117263" result="shape"/>
</filter>
<linearGradient id="paint0_linear_3419_117263" x1="276" y1="16" x2="276" y2="528" gradientUnits="userSpaceOnUse">
<stop offset="0.43984" stop-color="#FCFDFF"/>
<stop offset="1" stop-color="#F2F3F7"/>
</linearGradient>
<radialGradient id="paint1_radial_3419_117263" cx="0" cy="0" r="1" gradientUnits="userSpaceOnUse" gradientTransform="translate(277 54) rotate(90.0616) scale(465 958.725)">
<stop stop-color="#8892C0"/>
<stop offset="0.885419" stop-color="#424266"/>
</radialGradient>
<radialGradient id="paint2_radial_3419_117263" cx="0" cy="0" r="1" gradientUnits="userSpaceOnUse" gradientTransform="translate(178.5 252) rotate(-95.4691) scale(94.4299 129.016)">
<stop stop-color="#EAEDFF"/>
<stop offset="0.763972" stop-color="white"/>
</radialGradient>
<linearGradient id="paint3_linear_3419_117263" x1="180.5" y1="250" x2="180.5" y2="176.5" gradientUnits="userSpaceOnUse">
<stop stop-color="#D1D1D5"/>
<stop offset="1" stop-color="white"/>
</linearGradient>
<linearGradient id="paint4_linear_3419_117263" x1="270" y1="247" x2="270" y2="267" gradientUnits="userSpaceOnUse">
<stop stop-color="white"/>
<stop offset="1" stop-color="#DEE0E7"/>
</linearGradient>
<linearGradient id="paint5_linear_3419_117263" x1="270" y1="247" x2="270" y2="267" gradientUnits="userSpaceOnUse">
<stop stop-color="white"/>
<stop offset="1" stop-color="#CCCDD1"/>
</linearGradient>
</defs>
</svg>
