<svg viewBox="0 0 37 13" fill="none" xmlns="http://www.w3.org/2000/svg">
<path fill-rule="evenodd" clip-rule="evenodd" d="M9.43789 12.3872H6.2574L3.87243 3.28843C3.75923 2.86988 3.51887 2.49986 3.16531 2.32547C2.28297 1.88721 1.31068 1.53842 0.25 1.36251V1.01221H5.37351C6.08063 1.01221 6.61096 1.53842 6.69935 2.14956L7.93681 8.71283L11.1157 1.01221H14.2078L9.43789 12.3872ZM15.9759 12.3872H12.9722L15.4455 1.01221H18.4492L15.9759 12.3872ZM22.3353 4.16357C22.4237 3.55092 22.9541 3.20061 23.5728 3.20061C24.5451 3.11266 25.6042 3.28857 26.4881 3.72531L27.0184 1.27621C26.1345 0.92591 25.1623 0.75 24.2799 0.75C21.3646 0.75 19.2432 2.32561 19.2432 4.51236C19.2432 6.17592 20.7459 7.04941 21.8065 7.57562C22.9541 8.10032 23.396 8.45063 23.3076 8.97532C23.3076 9.76237 22.4237 10.1127 21.5414 10.1127C20.4807 10.1127 19.42 9.85033 18.4493 9.41207L17.9189 11.8627C18.9796 12.2994 20.1271 12.4753 21.1878 12.4753C24.4567 12.5618 26.4881 10.9877 26.4881 8.62502C26.4881 5.64971 22.3353 5.47531 22.3353 4.16357V4.16357ZM37.0002 12.3872L34.6153 1.01221H32.0535C31.5232 1.01221 30.9928 1.36251 30.816 1.88721L26.3997 12.3872H29.4917L30.1089 10.7252H33.9081L34.2617 12.3872H37.0002ZM32.4951 4.07556L33.3774 8.36262H30.904L32.4951 4.07556Z" fill="#172B85"/>
</svg>
