<svg width="38" height="13" viewBox="0 0 38 13" fill="none" xmlns="http://www.w3.org/2000/svg">
<path fill-rule="evenodd" clip-rule="evenodd" d="M9.93789 12.3887H6.75741L4.37243 3.28989C4.25923 2.87135 4.01887 2.50133 3.66531 2.32693C2.78297 1.88867 1.81068 1.53989 0.75 1.36398V1.01367H5.87351C6.58063 1.01367 7.11096 1.53989 7.19935 2.15102L8.43681 8.7143L11.6157 1.01367H14.7078L9.93789 12.3887ZM16.4757 12.3887H13.472L15.9454 1.01367H18.9491L16.4757 12.3887ZM22.8351 4.16357C22.9235 3.55092 23.4538 3.20061 24.0725 3.20061C25.0448 3.11266 26.1039 3.28857 26.9878 3.72531L27.5182 1.27621C26.6343 0.92591 25.662 0.75 24.7796 0.75C21.8643 0.75 19.743 2.32561 19.743 4.51236C19.743 6.17592 21.2456 7.04941 22.3063 7.57562C23.4538 8.10032 23.8957 8.45063 23.8073 8.97533C23.8073 9.76237 22.9235 10.1127 22.0411 10.1127C20.9804 10.1127 19.9197 9.85033 18.949 9.41207L18.4187 11.8627C19.4793 12.2994 20.6269 12.4753 21.6875 12.4753C24.9564 12.5618 26.9878 10.9877 26.9878 8.62502C26.9878 5.64971 22.8351 5.47532 22.8351 4.16357V4.16357ZM37.5 12.3887L35.115 1.01367H32.5532C32.0229 1.01367 31.4926 1.36398 31.3158 1.88867L26.8994 12.3887H29.9915L30.6087 10.7267H34.4079L34.7614 12.3887H37.5ZM32.9953 4.0752L33.8776 8.36225H31.4042L32.9953 4.0752Z" fill="#172B85"/>
</svg>
