<svg width="36" height="36" viewBox="0 0 36 36" fill="none" xmlns="http://www.w3.org/2000/svg">
<path d="M17.9997 14.7273V21.6982H27.687C27.2616 23.94 25.9851 25.8383 24.0706 27.1146L29.9123 31.6474C33.316 28.5057 35.2796 23.8911 35.2796 18.4093C35.2796 17.133 35.1651 15.9056 34.9523 14.7275L17.9997 14.7273Z" fill="#4285F4"/>
<path d="M7.91201 21.426L6.59447 22.4346L1.93076 26.0673C4.89257 31.9417 10.963 36 17.9993 36C22.8592 36 26.9337 34.3964 29.912 31.6473L24.0702 27.1146C22.4665 28.1946 20.4211 28.8492 17.9993 28.8492C13.3194 28.8492 9.34311 25.691 7.91937 21.4364L7.91201 21.426Z" fill="#34A853"/>
<path d="M1.93077 9.93286C0.703563 12.3546 0 15.0873 0 18C0 20.9127 0.703563 23.6455 1.93077 26.0672C1.93077 26.0834 7.91996 21.4199 7.91996 21.4199C7.55996 20.3399 7.34718 19.1945 7.34718 17.9998C7.34718 16.8051 7.55996 15.6598 7.91996 14.5798L1.93077 9.93286Z" fill="#FBBC05"/>
<path d="M17.9997 7.16727C20.6507 7.16727 23.007 8.08361 24.8888 9.8509L30.0433 4.69642C26.9178 1.78375 22.8598 0 17.9997 0C10.9634 0 4.89257 4.04181 1.93076 9.93274L7.91977 14.58C9.34332 10.3254 13.3197 7.16727 17.9997 7.16727Z" fill="#EA4335"/>
</svg>
