<svg viewBox="0 0 16 16" fill="none" xmlns="http://www.w3.org/2000/svg">
<path d="M13.3334 1.99984V4.6665M14.6667 3.33317H12M2.66671 11.3332V12.6665M3.33337 11.9998H2.00004M6.62467 10.3332C6.56515 10.1025 6.44489 9.89191 6.27641 9.72343C6.10793 9.55495 5.89738 9.43469 5.66667 9.37517L1.57667 8.32051C1.50689 8.3007 1.44547 8.25867 1.40174 8.2008C1.35801 8.14293 1.33435 8.07238 1.33435 7.99984C1.33435 7.9273 1.35801 7.85675 1.40174 7.79888C1.44547 7.74101 1.50689 7.69898 1.57667 7.67917L5.66667 6.62384C5.8973 6.56438 6.1078 6.44422 6.27627 6.27587C6.44474 6.10751 6.56504 5.8971 6.62467 5.66651L7.67933 1.57651C7.69894 1.50645 7.74092 1.44474 7.79888 1.40077C7.85684 1.35681 7.92759 1.33301 8.00033 1.33301C8.07308 1.33301 8.14383 1.35681 8.20179 1.40077C8.25974 1.44474 8.30173 1.50645 8.32133 1.57651L9.37533 5.66651C9.43485 5.89722 9.55511 6.10777 9.72359 6.27625C9.89207 6.44473 10.1026 6.56499 10.3333 6.62451L14.4233 7.67851C14.4937 7.69791 14.5557 7.73985 14.5999 7.79789C14.6441 7.85594 14.668 7.92688 14.668 7.99984C14.668 8.0728 14.6441 8.14374 14.5999 8.20179C14.5557 8.25983 14.4937 8.30177 14.4233 8.32117L10.3333 9.37517C10.1026 9.43469 9.89207 9.55495 9.72359 9.72343C9.55511 9.89191 9.43485 10.1025 9.37533 10.3332L8.32067 14.4232C8.30106 14.4932 8.25908 14.5549 8.20112 14.5989C8.14316 14.6429 8.07241 14.6667 7.99967 14.6667C7.92692 14.6667 7.85617 14.6429 7.79821 14.5989C7.74026 14.5549 7.69827 14.4932 7.67867 14.4232L6.62467 10.3332Z" stroke-width="1.33" stroke-linecap="round" stroke-linejoin="round"/>
</svg>
