<svg  viewBox="0 0 24 24" fill="none" xmlns="http://www.w3.org/2000/svg">
<path d="M25.7137 24.0448C24.8513 23.3911 24.1808 22.5065 23.8571 21.4742C23.6253 20.7365 23.1786 20.0572 22.5276 19.5397C20.793 18.1607 18.2694 18.4491 16.8904 20.1837C16.5755 20.58 16.3481 21.0169 16.204 21.4716C15.8758 22.5118 15.2265 23.4176 14.3464 24.0616C13.2062 24.8948 12.4827 26.2649 12.5481 27.7996C12.6428 30.0252 14.4216 31.8473 16.6445 31.9907C17.4007 32.0393 18.119 31.896 18.7559 31.6059C19.5741 31.2326 20.5161 31.2335 21.3432 31.5864C21.927 31.8359 22.5754 31.9623 23.2565 31.9332C25.5607 31.8341 27.413 29.9332 27.4546 27.6272C27.4811 26.165 26.792 24.8621 25.7146 24.0456L25.7137 24.0448Z" fill="black"/>
<path d="M28.0083 15.4949C28.0958 15.1207 28.033 14.7447 27.8544 14.4334C27.6677 14.1088 27.3572 13.8549 26.9671 13.7487C26.7628 13.693 26.5567 13.6842 26.3603 13.7143C26.5001 13.8284 26.6177 13.9672 26.7062 14.122C26.8928 14.4467 26.9547 14.8429 26.8495 15.233L25.7473 19.3542L25.7747 19.3214L25.5112 20.3042H25.5129C25.2582 21.3665 25.8942 22.443 26.9556 22.7278C28.0162 23.0117 29.106 22.397 29.4164 21.3506H29.4182L29.4324 21.2984L29.7862 19.9786C30.2594 18.2131 29.4872 16.4086 28.0091 15.494L28.0083 15.4949Z" fill="black"/>
<path d="M14.4862 20.3063H14.488L14.2244 19.3226L14.2518 19.3554L13.1496 15.2343C13.0435 14.8442 13.1063 14.4479 13.2929 14.1233C13.3814 13.9685 13.4991 13.8305 13.6388 13.7155C13.4424 13.6845 13.2363 13.6943 13.032 13.75C12.6419 13.8561 12.3314 14.1091 12.1448 14.4347C11.9661 14.746 11.9033 15.1219 11.9909 15.4961C10.5128 16.4107 9.74059 18.2152 10.2138 19.9808L10.5676 21.3005L10.5818 21.3536H10.5836C10.894 22.4 11.9838 23.0148 13.0444 22.7308C14.105 22.4469 14.7409 21.3695 14.4871 20.3081L14.4862 20.3063Z" fill="black"/>
<path d="M14.8983 16.9227H14.9019C15.2097 18.1169 16.403 18.875 17.6272 18.6282C18.8514 18.3814 19.6572 17.22 19.4785 15.9993H19.4821L19.4573 15.8746L19.4547 15.8604L18.2959 10.0985C18.1836 9.55093 18.3047 9.01046 18.5896 8.5788C18.7258 8.3727 18.8991 8.19226 19.1017 8.04719C18.8337 7.98793 18.5489 7.98262 18.2623 8.04188C17.7147 8.15422 17.2654 8.47708 16.9797 8.90874C16.6957 9.33863 16.5754 9.87556 16.6843 10.4196C15.077 11.4209 14.1774 13.3465 14.5737 15.3129L14.8983 16.9227Z" fill="black"/>
<path d="M22.4984 18.6287C23.7226 18.8755 24.9159 18.1174 25.2237 16.9224H25.2272L25.5519 15.3125C25.9481 13.3471 25.0485 11.4214 23.4413 10.4192C23.5501 9.87521 23.4298 9.3374 23.1468 8.9084C22.862 8.47674 22.4117 8.15388 21.8642 8.04154C21.5776 7.98316 21.2928 7.98758 21.0247 8.04685C21.2282 8.19191 21.4015 8.37236 21.5369 8.57846C21.8217 9.01012 21.942 9.55058 21.8306 10.0981L20.67 15.8689V15.8742H20.6691L20.6444 15.9981H20.6479C20.4684 17.2196 21.275 18.381 22.4993 18.6278L22.4984 18.6287Z" fill="black"/>
</svg>
