<svg width="16" height="16" viewBox="0 0 16 16" fill="none" xmlns="http://www.w3.org/2000/svg">
<g clip-path="url(#clip0_525_9605)">
<path d="M14.6666 7.99967H13.0133C12.722 7.99905 12.4384 8.09388 12.2061 8.26965C11.9737 8.44543 11.8053 8.69247 11.7266 8.97301L10.16 14.5463C10.1499 14.581 10.1288 14.6114 10.1 14.633C10.0711 14.6546 10.036 14.6663 9.99998 14.6663C9.96392 14.6663 9.92883 14.6546 9.89998 14.633C9.87113 14.6114 9.85008 14.581 9.83998 14.5463L6.15998 1.45301C6.14988 1.41839 6.12883 1.38798 6.09998 1.36634C6.07113 1.3447 6.03604 1.33301 5.99998 1.33301C5.96392 1.33301 5.92883 1.3447 5.89998 1.36634C5.87113 1.38798 5.85008 1.41839 5.83998 1.45301L4.27331 7.02634C4.19496 7.30578 4.02757 7.55202 3.79656 7.72768C3.56554 7.90335 3.28353 7.99884 2.99331 7.99967H1.33331" stroke="#A3A3A3" stroke-width="1.33" stroke-linecap="round" stroke-linejoin="round"/>
</g>
<defs>
<clipPath id="clip0_525_9605">
<rect width="16" height="16" fill="white"/>
</clipPath>
</defs>
</svg>
