<svg width="17" height="16" viewBox="0 0 17 16" fill="none" xmlns="http://www.w3.org/2000/svg">
<path d="M8.50001 14.6663C10.3409 14.6663 12.0076 13.9201 13.214 12.7137C14.4205 11.5073 15.1667 9.84061 15.1667 7.99967C15.1667 6.15874 14.4205 4.49207 13.214 3.28563C12.0076 2.0792 10.3409 1.33301 8.50001 1.33301C6.65908 1.33301 4.99241 2.0792 3.78596 3.28563C2.57954 4.49207 1.83334 6.15874 1.83334 7.99967C1.83334 9.84061 2.57954 11.5073 3.78596 12.7137C4.99241 13.9201 6.65908 14.6663 8.50001 14.6663Z" fill="url(#paint0_linear_295_9677)"/>
<path d="M8.50034 1.58301C10.1616 1.58309 11.6751 2.21403 12.8148 3.25L13.0374 3.46289C14.1987 4.62434 14.9164 6.2282 14.9164 8C14.9163 9.77184 14.1988 11.3757 13.0374 12.5371C11.876 13.6985 10.2722 14.4159 8.50034 14.416C6.83908 14.416 5.32561 13.785 4.18588 12.749L3.96323 12.5371C2.80184 11.3757 2.08343 9.77184 2.08334 8C2.08334 6.33882 2.71449 4.82526 3.75034 3.68555L3.96323 3.46289C5.12471 2.30143 6.72837 1.58301 8.50034 1.58301Z" stroke="white" stroke-opacity="0.3" stroke-width="0.5" stroke-linejoin="round"/>
<path d="M13.214 12.714C12.0076 13.9204 10.3409 14.6666 8.5 14.6666C6.65906 14.6666 4.9924 13.9204 3.78595 12.714C3.60902 12.537 3.44199 12.3502 3.28577 12.1544C3.31878 11.7886 3.38226 11.5136 3.50431 11.274C3.72801 10.835 4.08496 10.478 4.52402 10.2543C5.02315 10 5.67654 10 6.98332 10H10.0167C11.3234 10 11.9768 10 12.476 10.2543C12.915 10.478 13.272 10.835 13.4957 11.274C13.6177 11.5136 13.6812 11.7886 13.7142 12.1544C13.558 12.3502 13.391 12.537 13.214 12.714Z" fill="white" fill-opacity="0.8"/>
<path d="M8.49998 8.83333C9.62756 8.83333 10.5416 7.91925 10.5416 6.79167C10.5416 5.66409 9.62756 4.75 8.49998 4.75C7.3724 4.75 6.45831 5.66409 6.45831 6.79167C6.45831 7.91925 7.3724 8.83333 8.49998 8.83333Z" fill="white" fill-opacity="0.9"/>
<defs>
<linearGradient id="paint0_linear_295_9677" x1="8.50001" y1="-1.00024" x2="8.50001" y2="14.6663" gradientUnits="userSpaceOnUse">
<stop stop-color="#E6E6E6"/>
<stop offset="1" stop-color="#B6B6B6"/>
</linearGradient>
</defs>
</svg>
