<svg width="16" height="16" viewBox="0 0 16 16" fill="none" xmlns="http://www.w3.org/2000/svg">
<g clip-path="url(#clip0_444_12765)">
<path d="M6.66677 14.6004V9.33372M6.66677 9.33372L1.40011 6.06706M6.66677 9.33372L14.6 4.73372M9.33337 13.2003V7.80029M12 11.6669V6.26693M14.6667 5.13359C14.6667 4.73359 14.4 4.33359 14.1334 4.13359L9.93337 1.53359C9.76065 1.43541 9.56538 1.38379 9.36671 1.38379C9.16803 1.38379 8.97276 1.43541 8.80004 1.53359L1.93337 5.53359C1.60004 5.66693 1.33337 6.06693 1.33337 6.46693V10.8669C1.33337 11.2003 1.60004 11.6669 1.86671 11.8669L6.06671 14.4669C6.23943 14.5651 6.4347 14.6167 6.63337 14.6167C6.83205 14.6167 7.02732 14.5651 7.20004 14.4669L14.0667 10.4669C14.4 10.2669 14.6667 9.80026 14.6667 9.46693V5.13359Z" stroke="#2563EB" stroke-width="1.33" stroke-linecap="round" stroke-linejoin="round"/>
</g>
<defs>
<clipPath id="clip0_444_12765">
<rect width="16" height="16" fill="white"/>
</clipPath>
</defs>
</svg>
