<svg width="17" height="16" viewBox="0 0 17 16" fill="none" xmlns="http://www.w3.org/2000/svg">
<path d="M7.99839 1.30795C8.30005 1.09867 8.69994 1.09867 9.00161 1.30795L10.2174 2.15138C10.3651 2.25389 10.5407 2.30866 10.7206 2.30834L12.2191 2.30563C12.5967 2.30494 12.9327 2.54522 13.054 2.90278L13.4964 4.20616C13.5574 4.38569 13.6747 4.54074 13.8308 4.64822L14.9894 5.44554C15.3148 5.66953 15.4511 6.08298 15.3226 6.4566L14.8903 7.71381C14.8266 7.89925 14.8266 8.10067 14.8903 8.28611L15.3226 9.54332C15.4511 9.91694 15.3148 10.3304 14.9894 10.5544L13.8308 11.3517C13.6747 11.4592 13.5574 11.6142 13.4964 11.7938L13.054 13.0971C12.9327 13.4547 12.5967 13.695 12.2191 13.6943L10.7206 13.6916C10.5407 13.6913 10.3651 13.746 10.2174 13.8485L9.0016 14.692C8.69994 14.9013 8.30005 14.9013 7.99839 14.692L6.78263 13.8485C6.63488 13.746 6.45927 13.6913 6.27944 13.6916L4.78085 13.6943C4.40326 13.695 4.06732 13.4547 3.94596 13.0971L3.50355 11.7938C3.44261 11.6142 3.32533 11.4592 3.16915 11.3517L2.01062 10.5544C1.68516 10.3304 1.54887 9.91694 1.67735 9.54332L2.10965 8.28611C2.17341 8.10067 2.17341 7.89925 2.10965 7.71381L1.67735 6.4566C1.54887 6.08298 1.68516 5.66953 2.01062 5.44554L3.16915 4.64822C3.32533 4.54074 3.44261 4.38569 3.50355 4.20616L3.94596 2.90278C4.06732 2.54522 4.40326 2.30494 4.78086 2.30563L6.27944 2.30834C6.45927 2.30866 6.63488 2.25389 6.78264 2.15138L7.99839 1.30795Z" fill="url(#paint0_linear_295_9674)"/>
<path d="M8.14066 1.51367C8.32966 1.38255 8.57297 1.36547 8.77542 1.46387L8.85941 1.51367L10.0752 2.35645C10.2174 2.45505 10.3793 2.52009 10.5489 2.5459L10.7207 2.55859L12.2198 2.55566C12.4563 2.5553 12.6695 2.68718 12.7774 2.8916L12.8174 2.9834L13.2598 4.28613C13.3185 4.45905 13.4182 4.61422 13.5489 4.73926L13.6895 4.85449L14.8477 5.65137C15.0517 5.79175 15.1522 6.03627 15.1123 6.27441L15.086 6.375L14.6543 7.63281C14.5827 7.84116 14.5732 8.06508 14.627 8.27734L14.6543 8.36719L15.086 9.625C15.1663 9.85892 15.1021 10.1145 14.9287 10.2822L14.8477 10.3486L13.6895 11.1455C13.5391 11.249 13.4168 11.3872 13.3321 11.5469L13.2598 11.7139L12.8174 13.0166C12.7305 13.2725 12.49 13.4448 12.2198 13.4443L10.7207 13.4414C10.5478 13.4411 10.3778 13.4805 10.2237 13.5557L10.0752 13.6436L8.85941 14.4863C8.67042 14.6174 8.42708 14.6345 8.22464 14.5361L8.14066 14.4863L6.92484 13.6436C6.7824 13.5447 6.62013 13.4798 6.45023 13.4541L6.27933 13.4414L4.7803 13.4443L4.68069 13.4365C4.48498 13.4056 4.3152 13.2836 4.22269 13.1084L4.18265 13.0166L3.74026 11.7139C3.68158 11.541 3.58181 11.3858 3.4512 11.2607L3.31058 11.1455L2.15237 10.3486C1.94842 10.2083 1.84784 9.96371 1.88773 9.72559L1.91409 9.625L2.34573 8.36719C2.41735 8.15886 2.4268 7.93491 2.37308 7.72266L2.34573 7.63281L1.91409 6.375C1.83373 6.14106 1.89794 5.88547 2.07132 5.71777L2.15237 5.65137L3.31058 4.85449C3.46092 4.75102 3.58323 4.61276 3.668 4.45312L3.74026 4.28613L4.18265 2.9834C4.25867 2.75942 4.45238 2.59957 4.68069 2.56348L4.7803 2.55566L6.27933 2.55859C6.45227 2.55885 6.6223 2.51947 6.7764 2.44434L6.92484 2.35645L8.14066 1.51367Z" stroke="white" stroke-opacity="0.3" stroke-width="0.5" stroke-linecap="round" stroke-linejoin="round"/>
<path d="M6.16669 7.99967L7.83335 9.66634L11.1667 6.33301" stroke="white" stroke-width="1.064" stroke-linecap="round" stroke-linejoin="round"/>
<defs>
<linearGradient id="paint0_linear_295_9674" x1="8.49999" y1="4.03996" x2="3.16826" y2="15.0148" gradientUnits="userSpaceOnUse">
<stop stop-color="#08D4DF"/>
<stop offset="1" stop-color="#64A2F9"/>
</linearGradient>
</defs>
</svg>
