<svg width="486" height="256" viewBox="0 0 486 256" fill="none" xmlns="http://www.w3.org/2000/svg">
<path fill-rule="evenodd" clip-rule="evenodd" d="M1.5 0C0.671573 0 0 0.671573 0 1.5C0 2.32843 0.671573 3 1.5 3C2.32843 3 3 2.32843 3 1.5C3 0.671573 2.32843 0 1.5 0ZM24.5 0C23.6716 0 23 0.671573 23 1.5C23 2.32843 23.6716 3 24.5 3C25.3284 3 26 2.32843 26 1.5C26 0.671573 25.3284 0 24.5 0ZM46 1.5C46 0.671573 46.6716 0 47.5 0C48.3284 0 49 0.671573 49 1.5C49 2.32843 48.3284 3 47.5 3C46.6716 3 46 2.32843 46 1.5ZM70.5 0C69.6716 0 69 0.671573 69 1.5C69 2.32843 69.6716 3 70.5 3C71.3284 3 72 2.32843 72 1.5C72 0.671573 71.3284 0 70.5 0ZM92 1.5C92 0.671573 92.6716 0 93.5 0C94.3284 0 95 0.671573 95 1.5C95 2.32843 94.3284 3 93.5 3C92.6716 3 92 2.32843 92 1.5ZM116.5 0C115.672 0 115 0.671573 115 1.5C115 2.32843 115.672 3 116.5 3C117.328 3 118 2.32843 118 1.5C118 0.671573 117.328 0 116.5 0ZM138 1.5C138 0.671573 138.672 0 139.5 0C140.328 0 141 0.671573 141 1.5C141 2.32843 140.328 3 139.5 3C138.672 3 138 2.32843 138 1.5ZM162.5 0C161.672 0 161 0.671573 161 1.5C161 2.32843 161.672 3 162.5 3C163.328 3 164 2.32843 164 1.5C164 0.671573 163.328 0 162.5 0ZM184 1.5C184 0.671573 184.672 0 185.5 0C186.328 0 187 0.671573 187 1.5C187 2.32843 186.328 3 185.5 3C184.672 3 184 2.32843 184 1.5ZM208.5 0C207.672 0 207 0.671573 207 1.5C207 2.32843 207.672 3 208.5 3C209.328 3 210 2.32843 210 1.5C210 0.671573 209.328 0 208.5 0ZM230 1.5C230 0.671573 230.672 0 231.5 0C232.328 0 233 0.671573 233 1.5C233 2.32843 232.328 3 231.5 3C230.672 3 230 2.32843 230 1.5ZM254.5 0C253.672 0 253 0.671573 253 1.5C253 2.32843 253.672 3 254.5 3C255.328 3 256 2.32843 256 1.5C256 0.671573 255.328 0 254.5 0ZM276 1.5C276 0.671573 276.672 0 277.5 0C278.328 0 279 0.671573 279 1.5C279 2.32843 278.328 3 277.5 3C276.672 3 276 2.32843 276 1.5ZM300.5 0C299.672 0 299 0.671573 299 1.5C299 2.32843 299.672 3 300.5 3C301.328 3 302 2.32843 302 1.5C302 0.671573 301.328 0 300.5 0ZM322 1.5C322 0.671573 322.672 0 323.5 0C324.328 0 325 0.671573 325 1.5C325 2.32843 324.328 3 323.5 3C322.672 3 322 2.32843 322 1.5ZM346.5 0C345.672 0 345 0.671573 345 1.5C345 2.32843 345.672 3 346.5 3C347.328 3 348 2.32843 348 1.5C348 0.671573 347.328 0 346.5 0ZM368 1.5C368 0.671573 368.672 0 369.5 0C370.328 0 371 0.671573 371 1.5C371 2.32843 370.328 3 369.5 3C368.672 3 368 2.32843 368 1.5ZM392.5 0C391.672 0 391 0.671573 391 1.5C391 2.32843 391.672 3 392.5 3C393.328 3 394 2.32843 394 1.5C394 0.671573 393.328 0 392.5 0ZM414 1.5C414 0.671573 414.672 0 415.5 0C416.328 0 417 0.671573 417 1.5C417 2.32843 416.328 3 415.5 3C414.672 3 414 2.32843 414 1.5ZM438.5 0C437.672 0 437 0.671573 437 1.5C437 2.32843 437.672 3 438.5 3C439.328 3 440 2.32843 440 1.5C440 0.671573 439.328 0 438.5 0ZM460 1.5C460 0.671573 460.672 0 461.5 0C462.328 0 463 0.671573 463 1.5C463 2.32843 462.328 3 461.5 3C460.672 3 460 2.32843 460 1.5ZM484.5 0C483.672 0 483 0.671573 483 1.5C483 2.32843 483.672 3 484.5 3C485.328 3 486 2.32843 486 1.5C486 0.671573 485.328 0 484.5 0ZM0 24.5C0 23.6716 0.671573 23 1.5 23C2.32843 23 3 23.6716 3 24.5C3 25.3284 2.32843 26 1.5 26C0.671573 26 0 25.3284 0 24.5ZM24.5 23C23.6716 23 23 23.6716 23 24.5C23 25.3284 23.6716 26 24.5 26C25.3284 26 26 25.3284 26 24.5C26 23.6716 25.3284 23 24.5 23ZM46 24.5C46 23.6716 46.6716 23 47.5 23C48.3284 23 49 23.6716 49 24.5C49 25.3284 48.3284 26 47.5 26C46.6716 26 46 25.3284 46 24.5ZM70.5 23C69.6716 23 69 23.6716 69 24.5C69 25.3284 69.6716 26 70.5 26C71.3284 26 72 25.3284 72 24.5C72 23.6716 71.3284 23 70.5 23ZM92 24.5C92 23.6716 92.6716 23 93.5 23C94.3284 23 95 23.6716 95 24.5C95 25.3284 94.3284 26 93.5 26C92.6716 26 92 25.3284 92 24.5ZM116.5 23C115.672 23 115 23.6716 115 24.5C115 25.3284 115.672 26 116.5 26C117.328 26 118 25.3284 118 24.5C118 23.6716 117.328 23 116.5 23ZM138 24.5C138 23.6716 138.672 23 139.5 23C140.328 23 141 23.6716 141 24.5C141 25.3284 140.328 26 139.5 26C138.672 26 138 25.3284 138 24.5ZM162.5 23C161.672 23 161 23.6716 161 24.5C161 25.3284 161.672 26 162.5 26C163.328 26 164 25.3284 164 24.5C164 23.6716 163.328 23 162.5 23ZM184 24.5C184 23.6716 184.672 23 185.5 23C186.328 23 187 23.6716 187 24.5C187 25.3284 186.328 26 185.5 26C184.672 26 184 25.3284 184 24.5ZM208.5 23C207.672 23 207 23.6716 207 24.5C207 25.3284 207.672 26 208.5 26C209.328 26 210 25.3284 210 24.5C210 23.6716 209.328 23 208.5 23ZM230 24.5C230 23.6716 230.672 23 231.5 23C232.328 23 233 23.6716 233 24.5C233 25.3284 232.328 26 231.5 26C230.672 26 230 25.3284 230 24.5ZM254.5 23C253.672 23 253 23.6716 253 24.5C253 25.3284 253.672 26 254.5 26C255.328 26 256 25.3284 256 24.5C256 23.6716 255.328 23 254.5 23ZM276 24.5C276 23.6716 276.672 23 277.5 23C278.328 23 279 23.6716 279 24.5C279 25.3284 278.328 26 277.5 26C276.672 26 276 25.3284 276 24.5ZM300.5 23C299.672 23 299 23.6716 299 24.5C299 25.3284 299.672 26 300.5 26C301.328 26 302 25.3284 302 24.5C302 23.6716 301.328 23 300.5 23ZM322 24.5C322 23.6716 322.672 23 323.5 23C324.328 23 325 23.6716 325 24.5C325 25.3284 324.328 26 323.5 26C322.672 26 322 25.3284 322 24.5ZM346.5 23C345.672 23 345 23.6716 345 24.5C345 25.3284 345.672 26 346.5 26C347.328 26 348 25.3284 348 24.5C348 23.6716 347.328 23 346.5 23ZM368 24.5C368 23.6716 368.672 23 369.5 23C370.328 23 371 23.6716 371 24.5C371 25.3284 370.328 26 369.5 26C368.672 26 368 25.3284 368 24.5ZM392.5 23C391.672 23 391 23.6716 391 24.5C391 25.3284 391.672 26 392.5 26C393.328 26 394 25.3284 394 24.5C394 23.6716 393.328 23 392.5 23ZM414 24.5C414 23.6716 414.672 23 415.5 23C416.328 23 417 23.6716 417 24.5C417 25.3284 416.328 26 415.5 26C414.672 26 414 25.3284 414 24.5ZM438.5 23C437.672 23 437 23.6716 437 24.5C437 25.3284 437.672 26 438.5 26C439.328 26 440 25.3284 440 24.5C440 23.6716 439.328 23 438.5 23ZM460 24.5C460 23.6716 460.672 23 461.5 23C462.328 23 463 23.6716 463 24.5C463 25.3284 462.328 26 461.5 26C460.672 26 460 25.3284 460 24.5ZM484.5 23C483.672 23 483 23.6716 483 24.5C483 25.3284 483.672 26 484.5 26C485.328 26 486 25.3284 486 24.5C486 23.6716 485.328 23 484.5 23ZM0 47.5C0 46.6716 0.671573 46 1.5 46C2.32843 46 3 46.6716 3 47.5C3 48.3284 2.32843 49 1.5 49C0.671573 49 0 48.3284 0 47.5ZM24.5 46C23.6716 46 23 46.6716 23 47.5C23 48.3284 23.6716 49 24.5 49C25.3284 49 26 48.3284 26 47.5C26 46.6716 25.3284 46 24.5 46ZM46 47.5C46 46.6716 46.6716 46 47.5 46C48.3284 46 49 46.6716 49 47.5C49 48.3284 48.3284 49 47.5 49C46.6716 49 46 48.3284 46 47.5ZM70.5 46C69.6716 46 69 46.6716 69 47.5C69 48.3284 69.6716 49 70.5 49C71.3284 49 72 48.3284 72 47.5C72 46.6716 71.3284 46 70.5 46ZM92 47.5C92 46.6716 92.6716 46 93.5 46C94.3284 46 95 46.6716 95 47.5C95 48.3284 94.3284 49 93.5 49C92.6716 49 92 48.3284 92 47.5ZM116.5 46C115.672 46 115 46.6716 115 47.5C115 48.3284 115.672 49 116.5 49C117.328 49 118 48.3284 118 47.5C118 46.6716 117.328 46 116.5 46ZM138 47.5C138 46.6716 138.672 46 139.5 46C140.328 46 141 46.6716 141 47.5C141 48.3284 140.328 49 139.5 49C138.672 49 138 48.3284 138 47.5ZM162.5 46C161.672 46 161 46.6716 161 47.5C161 48.3284 161.672 49 162.5 49C163.328 49 164 48.3284 164 47.5C164 46.6716 163.328 46 162.5 46ZM184 47.5C184 46.6716 184.672 46 185.5 46C186.328 46 187 46.6716 187 47.5C187 48.3284 186.328 49 185.5 49C184.672 49 184 48.3284 184 47.5ZM208.5 46C207.672 46 207 46.6716 207 47.5C207 48.3284 207.672 49 208.5 49C209.328 49 210 48.3284 210 47.5C210 46.6716 209.328 46 208.5 46ZM230 47.5C230 46.6716 230.672 46 231.5 46C232.328 46 233 46.6716 233 47.5C233 48.3284 232.328 49 231.5 49C230.672 49 230 48.3284 230 47.5ZM254.5 46C253.672 46 253 46.6716 253 47.5C253 48.3284 253.672 49 254.5 49C255.328 49 256 48.3284 256 47.5C256 46.6716 255.328 46 254.5 46ZM276 47.5C276 46.6716 276.672 46 277.5 46C278.328 46 279 46.6716 279 47.5C279 48.3284 278.328 49 277.5 49C276.672 49 276 48.3284 276 47.5ZM300.5 46C299.672 46 299 46.6716 299 47.5C299 48.3284 299.672 49 300.5 49C301.328 49 302 48.3284 302 47.5C302 46.6716 301.328 46 300.5 46ZM322 47.5C322 46.6716 322.672 46 323.5 46C324.328 46 325 46.6716 325 47.5C325 48.3284 324.328 49 323.5 49C322.672 49 322 48.3284 322 47.5ZM346.5 46C345.672 46 345 46.6716 345 47.5C345 48.3284 345.672 49 346.5 49C347.328 49 348 48.3284 348 47.5C348 46.6716 347.328 46 346.5 46ZM368 47.5C368 46.6716 368.672 46 369.5 46C370.328 46 371 46.6716 371 47.5C371 48.3284 370.328 49 369.5 49C368.672 49 368 48.3284 368 47.5ZM392.5 46C391.672 46 391 46.6716 391 47.5C391 48.3284 391.672 49 392.5 49C393.328 49 394 48.3284 394 47.5C394 46.6716 393.328 46 392.5 46ZM414 47.5C414 46.6716 414.672 46 415.5 46C416.328 46 417 46.6716 417 47.5C417 48.3284 416.328 49 415.5 49C414.672 49 414 48.3284 414 47.5ZM438.5 46C437.672 46 437 46.6716 437 47.5C437 48.3284 437.672 49 438.5 49C439.328 49 440 48.3284 440 47.5C440 46.6716 439.328 46 438.5 46ZM460 47.5C460 46.6716 460.672 46 461.5 46C462.328 46 463 46.6716 463 47.5C463 48.3284 462.328 49 461.5 49C460.672 49 460 48.3284 460 47.5ZM484.5 46C483.672 46 483 46.6716 483 47.5C483 48.3284 483.672 49 484.5 49C485.328 49 486 48.3284 486 47.5C486 46.6716 485.328 46 484.5 46ZM0 70.5C0 69.6716 0.671573 69 1.5 69C2.32843 69 3 69.6716 3 70.5C3 71.3284 2.32843 72 1.5 72C0.671573 72 0 71.3284 0 70.5ZM24.5 69C23.6716 69 23 69.6716 23 70.5C23 71.3284 23.6716 72 24.5 72C25.3284 72 26 71.3284 26 70.5C26 69.6716 25.3284 69 24.5 69ZM46 70.5C46 69.6716 46.6716 69 47.5 69C48.3284 69 49 69.6716 49 70.5C49 71.3284 48.3284 72 47.5 72C46.6716 72 46 71.3284 46 70.5ZM70.5 69C69.6716 69 69 69.6716 69 70.5C69 71.3284 69.6716 72 70.5 72C71.3284 72 72 71.3284 72 70.5C72 69.6716 71.3284 69 70.5 69ZM92 70.5C92 69.6716 92.6716 69 93.5 69C94.3284 69 95 69.6716 95 70.5C95 71.3284 94.3284 72 93.5 72C92.6716 72 92 71.3284 92 70.5ZM116.5 69C115.672 69 115 69.6716 115 70.5C115 71.3284 115.672 72 116.5 72C117.328 72 118 71.3284 118 70.5C118 69.6716 117.328 69 116.5 69ZM138 70.5C138 69.6716 138.672 69 139.5 69C140.328 69 141 69.6716 141 70.5C141 71.3284 140.328 72 139.5 72C138.672 72 138 71.3284 138 70.5ZM162.5 69C161.672 69 161 69.6716 161 70.5C161 71.3284 161.672 72 162.5 72C163.328 72 164 71.3284 164 70.5C164 69.6716 163.328 69 162.5 69ZM184 70.5C184 69.6716 184.672 69 185.5 69C186.328 69 187 69.6716 187 70.5C187 71.3284 186.328 72 185.5 72C184.672 72 184 71.3284 184 70.5ZM208.5 69C207.672 69 207 69.6716 207 70.5C207 71.3284 207.672 72 208.5 72C209.328 72 210 71.3284 210 70.5C210 69.6716 209.328 69 208.5 69ZM230 70.5C230 69.6716 230.672 69 231.5 69C232.328 69 233 69.6716 233 70.5C233 71.3284 232.328 72 231.5 72C230.672 72 230 71.3284 230 70.5ZM254.5 69C253.672 69 253 69.6716 253 70.5C253 71.3284 253.672 72 254.5 72C255.328 72 256 71.3284 256 70.5C256 69.6716 255.328 69 254.5 69ZM276 70.5C276 69.6716 276.672 69 277.5 69C278.328 69 279 69.6716 279 70.5C279 71.3284 278.328 72 277.5 72C276.672 72 276 71.3284 276 70.5ZM300.5 69C299.672 69 299 69.6716 299 70.5C299 71.3284 299.672 72 300.5 72C301.328 72 302 71.3284 302 70.5C302 69.6716 301.328 69 300.5 69ZM322 70.5C322 69.6716 322.672 69 323.5 69C324.328 69 325 69.6716 325 70.5C325 71.3284 324.328 72 323.5 72C322.672 72 322 71.3284 322 70.5ZM346.5 69C345.672 69 345 69.6716 345 70.5C345 71.3284 345.672 72 346.5 72C347.328 72 348 71.3284 348 70.5C348 69.6716 347.328 69 346.5 69ZM368 70.5C368 69.6716 368.672 69 369.5 69C370.328 69 371 69.6716 371 70.5C371 71.3284 370.328 72 369.5 72C368.672 72 368 71.3284 368 70.5ZM392.5 69C391.672 69 391 69.6716 391 70.5C391 71.3284 391.672 72 392.5 72C393.328 72 394 71.3284 394 70.5C394 69.6716 393.328 69 392.5 69ZM414 70.5C414 69.6716 414.672 69 415.5 69C416.328 69 417 69.6716 417 70.5C417 71.3284 416.328 72 415.5 72C414.672 72 414 71.3284 414 70.5ZM438.5 69C437.672 69 437 69.6716 437 70.5C437 71.3284 437.672 72 438.5 72C439.328 72 440 71.3284 440 70.5C440 69.6716 439.328 69 438.5 69ZM460 70.5C460 69.6716 460.672 69 461.5 69C462.328 69 463 69.6716 463 70.5C463 71.3284 462.328 72 461.5 72C460.672 72 460 71.3284 460 70.5ZM484.5 69C483.672 69 483 69.6716 483 70.5C483 71.3284 483.672 72 484.5 72C485.328 72 486 71.3284 486 70.5C486 69.6716 485.328 69 484.5 69ZM0 93.5C0 92.6716 0.671573 92 1.5 92C2.32843 92 3 92.6716 3 93.5C3 94.3284 2.32843 95 1.5 95C0.671573 95 0 94.3284 0 93.5ZM24.5 92C23.6716 92 23 92.6716 23 93.5C23 94.3284 23.6716 95 24.5 95C25.3284 95 26 94.3284 26 93.5C26 92.6716 25.3284 92 24.5 92ZM46 93.5C46 92.6716 46.6716 92 47.5 92C48.3284 92 49 92.6716 49 93.5C49 94.3284 48.3284 95 47.5 95C46.6716 95 46 94.3284 46 93.5ZM70.5 92C69.6716 92 69 92.6716 69 93.5C69 94.3284 69.6716 95 70.5 95C71.3284 95 72 94.3284 72 93.5C72 92.6716 71.3284 92 70.5 92ZM92 93.5C92 92.6716 92.6716 92 93.5 92C94.3284 92 95 92.6716 95 93.5C95 94.3284 94.3284 95 93.5 95C92.6716 95 92 94.3284 92 93.5ZM116.5 92C115.672 92 115 92.6716 115 93.5C115 94.3284 115.672 95 116.5 95C117.328 95 118 94.3284 118 93.5C118 92.6716 117.328 92 116.5 92ZM138 93.5C138 92.6716 138.672 92 139.5 92C140.328 92 141 92.6716 141 93.5C141 94.3284 140.328 95 139.5 95C138.672 95 138 94.3284 138 93.5ZM162.5 92C161.672 92 161 92.6716 161 93.5C161 94.3284 161.672 95 162.5 95C163.328 95 164 94.3284 164 93.5C164 92.6716 163.328 92 162.5 92ZM184 93.5C184 92.6716 184.672 92 185.5 92C186.328 92 187 92.6716 187 93.5C187 94.3284 186.328 95 185.5 95C184.672 95 184 94.3284 184 93.5ZM208.5 92C207.672 92 207 92.6716 207 93.5C207 94.3284 207.672 95 208.5 95C209.328 95 210 94.3284 210 93.5C210 92.6716 209.328 92 208.5 92ZM230 93.5C230 92.6716 230.672 92 231.5 92C232.328 92 233 92.6716 233 93.5C233 94.3284 232.328 95 231.5 95C230.672 95 230 94.3284 230 93.5ZM254.5 92C253.672 92 253 92.6716 253 93.5C253 94.3284 253.672 95 254.5 95C255.328 95 256 94.3284 256 93.5C256 92.6716 255.328 92 254.5 92ZM276 93.5C276 92.6716 276.672 92 277.5 92C278.328 92 279 92.6716 279 93.5C279 94.3284 278.328 95 277.5 95C276.672 95 276 94.3284 276 93.5ZM300.5 92C299.672 92 299 92.6716 299 93.5C299 94.3284 299.672 95 300.5 95C301.328 95 302 94.3284 302 93.5C302 92.6716 301.328 92 300.5 92ZM322 93.5C322 92.6716 322.672 92 323.5 92C324.328 92 325 92.6716 325 93.5C325 94.3284 324.328 95 323.5 95C322.672 95 322 94.3284 322 93.5ZM346.5 92C345.672 92 345 92.6716 345 93.5C345 94.3284 345.672 95 346.5 95C347.328 95 348 94.3284 348 93.5C348 92.6716 347.328 92 346.5 92ZM368 93.5C368 92.6716 368.672 92 369.5 92C370.328 92 371 92.6716 371 93.5C371 94.3284 370.328 95 369.5 95C368.672 95 368 94.3284 368 93.5ZM392.5 92C391.672 92 391 92.6716 391 93.5C391 94.3284 391.672 95 392.5 95C393.328 95 394 94.3284 394 93.5C394 92.6716 393.328 92 392.5 92ZM414 93.5C414 92.6716 414.672 92 415.5 92C416.328 92 417 92.6716 417 93.5C417 94.3284 416.328 95 415.5 95C414.672 95 414 94.3284 414 93.5ZM438.5 92C437.672 92 437 92.6716 437 93.5C437 94.3284 437.672 95 438.5 95C439.328 95 440 94.3284 440 93.5C440 92.6716 439.328 92 438.5 92ZM460 93.5C460 92.6716 460.672 92 461.5 92C462.328 92 463 92.6716 463 93.5C463 94.3284 462.328 95 461.5 95C460.672 95 460 94.3284 460 93.5ZM484.5 92C483.672 92 483 92.6716 483 93.5C483 94.3284 483.672 95 484.5 95C485.328 95 486 94.3284 486 93.5C486 92.6716 485.328 92 484.5 92ZM0 116.5C0 115.672 0.671573 115 1.5 115C2.32843 115 3 115.672 3 116.5C3 117.328 2.32843 118 1.5 118C0.671573 118 0 117.328 0 116.5ZM24.5 115C23.6716 115 23 115.672 23 116.5C23 117.328 23.6716 118 24.5 118C25.3284 118 26 117.328 26 116.5C26 115.672 25.3284 115 24.5 115ZM46 116.5C46 115.672 46.6716 115 47.5 115C48.3284 115 49 115.672 49 116.5C49 117.328 48.3284 118 47.5 118C46.6716 118 46 117.328 46 116.5ZM70.5 115C69.6716 115 69 115.672 69 116.5C69 117.328 69.6716 118 70.5 118C71.3284 118 72 117.328 72 116.5C72 115.672 71.3284 115 70.5 115ZM92 116.5C92 115.672 92.6716 115 93.5 115C94.3284 115 95 115.672 95 116.5C95 117.328 94.3284 118 93.5 118C92.6716 118 92 117.328 92 116.5ZM116.5 115C115.672 115 115 115.672 115 116.5C115 117.328 115.672 118 116.5 118C117.328 118 118 117.328 118 116.5C118 115.672 117.328 115 116.5 115ZM138 116.5C138 115.672 138.672 115 139.5 115C140.328 115 141 115.672 141 116.5C141 117.328 140.328 118 139.5 118C138.672 118 138 117.328 138 116.5ZM162.5 115C161.672 115 161 115.672 161 116.5C161 117.328 161.672 118 162.5 118C163.328 118 164 117.328 164 116.5C164 115.672 163.328 115 162.5 115ZM184 116.5C184 115.672 184.672 115 185.5 115C186.328 115 187 115.672 187 116.5C187 117.328 186.328 118 185.5 118C184.672 118 184 117.328 184 116.5ZM208.5 115C207.672 115 207 115.672 207 116.5C207 117.328 207.672 118 208.5 118C209.328 118 210 117.328 210 116.5C210 115.672 209.328 115 208.5 115ZM230 116.5C230 115.672 230.672 115 231.5 115C232.328 115 233 115.672 233 116.5C233 117.328 232.328 118 231.5 118C230.672 118 230 117.328 230 116.5ZM254.5 115C253.672 115 253 115.672 253 116.5C253 117.328 253.672 118 254.5 118C255.328 118 256 117.328 256 116.5C256 115.672 255.328 115 254.5 115ZM276 116.5C276 115.672 276.672 115 277.5 115C278.328 115 279 115.672 279 116.5C279 117.328 278.328 118 277.5 118C276.672 118 276 117.328 276 116.5ZM300.5 115C299.672 115 299 115.672 299 116.5C299 117.328 299.672 118 300.5 118C301.328 118 302 117.328 302 116.5C302 115.672 301.328 115 300.5 115ZM322 116.5C322 115.672 322.672 115 323.5 115C324.328 115 325 115.672 325 116.5C325 117.328 324.328 118 323.5 118C322.672 118 322 117.328 322 116.5ZM346.5 115C345.672 115 345 115.672 345 116.5C345 117.328 345.672 118 346.5 118C347.328 118 348 117.328 348 116.5C348 115.672 347.328 115 346.5 115ZM368 116.5C368 115.672 368.672 115 369.5 115C370.328 115 371 115.672 371 116.5C371 117.328 370.328 118 369.5 118C368.672 118 368 117.328 368 116.5ZM392.5 115C391.672 115 391 115.672 391 116.5C391 117.328 391.672 118 392.5 118C393.328 118 394 117.328 394 116.5C394 115.672 393.328 115 392.5 115ZM414 116.5C414 115.672 414.672 115 415.5 115C416.328 115 417 115.672 417 116.5C417 117.328 416.328 118 415.5 118C414.672 118 414 117.328 414 116.5ZM438.5 115C437.672 115 437 115.672 437 116.5C437 117.328 437.672 118 438.5 118C439.328 118 440 117.328 440 116.5C440 115.672 439.328 115 438.5 115ZM460 116.5C460 115.672 460.672 115 461.5 115C462.328 115 463 115.672 463 116.5C463 117.328 462.328 118 461.5 118C460.672 118 460 117.328 460 116.5ZM484.5 115C483.672 115 483 115.672 483 116.5C483 117.328 483.672 118 484.5 118C485.328 118 486 117.328 486 116.5C486 115.672 485.328 115 484.5 115ZM0 139.5C0 138.672 0.671573 138 1.5 138C2.32843 138 3 138.672 3 139.5C3 140.328 2.32843 141 1.5 141C0.671573 141 0 140.328 0 139.5ZM24.5 138C23.6716 138 23 138.672 23 139.5C23 140.328 23.6716 141 24.5 141C25.3284 141 26 140.328 26 139.5C26 138.672 25.3284 138 24.5 138ZM46 139.5C46 138.672 46.6716 138 47.5 138C48.3284 138 49 138.672 49 139.5C49 140.328 48.3284 141 47.5 141C46.6716 141 46 140.328 46 139.5ZM70.5 138C69.6716 138 69 138.672 69 139.5C69 140.328 69.6716 141 70.5 141C71.3284 141 72 140.328 72 139.5C72 138.672 71.3284 138 70.5 138ZM92 139.5C92 138.672 92.6716 138 93.5 138C94.3284 138 95 138.672 95 139.5C95 140.328 94.3284 141 93.5 141C92.6716 141 92 140.328 92 139.5ZM116.5 138C115.672 138 115 138.672 115 139.5C115 140.328 115.672 141 116.5 141C117.328 141 118 140.328 118 139.5C118 138.672 117.328 138 116.5 138ZM138 139.5C138 138.672 138.672 138 139.5 138C140.328 138 141 138.672 141 139.5C141 140.328 140.328 141 139.5 141C138.672 141 138 140.328 138 139.5ZM162.5 138C161.672 138 161 138.672 161 139.5C161 140.328 161.672 141 162.5 141C163.328 141 164 140.328 164 139.5C164 138.672 163.328 138 162.5 138ZM184 139.5C184 138.672 184.672 138 185.5 138C186.328 138 187 138.672 187 139.5C187 140.328 186.328 141 185.5 141C184.672 141 184 140.328 184 139.5ZM208.5 138C207.672 138 207 138.672 207 139.5C207 140.328 207.672 141 208.5 141C209.328 141 210 140.328 210 139.5C210 138.672 209.328 138 208.5 138ZM230 139.5C230 138.672 230.672 138 231.5 138C232.328 138 233 138.672 233 139.5C233 140.328 232.328 141 231.5 141C230.672 141 230 140.328 230 139.5ZM254.5 138C253.672 138 253 138.672 253 139.5C253 140.328 253.672 141 254.5 141C255.328 141 256 140.328 256 139.5C256 138.672 255.328 138 254.5 138ZM276 139.5C276 138.672 276.672 138 277.5 138C278.328 138 279 138.672 279 139.5C279 140.328 278.328 141 277.5 141C276.672 141 276 140.328 276 139.5ZM300.5 138C299.672 138 299 138.672 299 139.5C299 140.328 299.672 141 300.5 141C301.328 141 302 140.328 302 139.5C302 138.672 301.328 138 300.5 138ZM322 139.5C322 138.672 322.672 138 323.5 138C324.328 138 325 138.672 325 139.5C325 140.328 324.328 141 323.5 141C322.672 141 322 140.328 322 139.5ZM346.5 138C345.672 138 345 138.672 345 139.5C345 140.328 345.672 141 346.5 141C347.328 141 348 140.328 348 139.5C348 138.672 347.328 138 346.5 138ZM368 139.5C368 138.672 368.672 138 369.5 138C370.328 138 371 138.672 371 139.5C371 140.328 370.328 141 369.5 141C368.672 141 368 140.328 368 139.5ZM392.5 138C391.672 138 391 138.672 391 139.5C391 140.328 391.672 141 392.5 141C393.328 141 394 140.328 394 139.5C394 138.672 393.328 138 392.5 138ZM414 139.5C414 138.672 414.672 138 415.5 138C416.328 138 417 138.672 417 139.5C417 140.328 416.328 141 415.5 141C414.672 141 414 140.328 414 139.5ZM438.5 138C437.672 138 437 138.672 437 139.5C437 140.328 437.672 141 438.5 141C439.328 141 440 140.328 440 139.5C440 138.672 439.328 138 438.5 138ZM460 139.5C460 138.672 460.672 138 461.5 138C462.328 138 463 138.672 463 139.5C463 140.328 462.328 141 461.5 141C460.672 141 460 140.328 460 139.5ZM484.5 138C483.672 138 483 138.672 483 139.5C483 140.328 483.672 141 484.5 141C485.328 141 486 140.328 486 139.5C486 138.672 485.328 138 484.5 138ZM0 162.5C0 161.672 0.671573 161 1.5 161C2.32843 161 3 161.672 3 162.5C3 163.328 2.32843 164 1.5 164C0.671573 164 0 163.328 0 162.5ZM24.5 161C23.6716 161 23 161.672 23 162.5C23 163.328 23.6716 164 24.5 164C25.3284 164 26 163.328 26 162.5C26 161.672 25.3284 161 24.5 161ZM46 162.5C46 161.672 46.6716 161 47.5 161C48.3284 161 49 161.672 49 162.5C49 163.328 48.3284 164 47.5 164C46.6716 164 46 163.328 46 162.5ZM70.5 161C69.6716 161 69 161.672 69 162.5C69 163.328 69.6716 164 70.5 164C71.3284 164 72 163.328 72 162.5C72 161.672 71.3284 161 70.5 161ZM92 162.5C92 161.672 92.6716 161 93.5 161C94.3284 161 95 161.672 95 162.5C95 163.328 94.3284 164 93.5 164C92.6716 164 92 163.328 92 162.5ZM116.5 161C115.672 161 115 161.672 115 162.5C115 163.328 115.672 164 116.5 164C117.328 164 118 163.328 118 162.5C118 161.672 117.328 161 116.5 161ZM138 162.5C138 161.672 138.672 161 139.5 161C140.328 161 141 161.672 141 162.5C141 163.328 140.328 164 139.5 164C138.672 164 138 163.328 138 162.5ZM162.5 161C161.672 161 161 161.672 161 162.5C161 163.328 161.672 164 162.5 164C163.328 164 164 163.328 164 162.5C164 161.672 163.328 161 162.5 161ZM184 162.5C184 161.672 184.672 161 185.5 161C186.328 161 187 161.672 187 162.5C187 163.328 186.328 164 185.5 164C184.672 164 184 163.328 184 162.5ZM208.5 161C207.672 161 207 161.672 207 162.5C207 163.328 207.672 164 208.5 164C209.328 164 210 163.328 210 162.5C210 161.672 209.328 161 208.5 161ZM230 162.5C230 161.672 230.672 161 231.5 161C232.328 161 233 161.672 233 162.5C233 163.328 232.328 164 231.5 164C230.672 164 230 163.328 230 162.5ZM254.5 161C253.672 161 253 161.672 253 162.5C253 163.328 253.672 164 254.5 164C255.328 164 256 163.328 256 162.5C256 161.672 255.328 161 254.5 161ZM276 162.5C276 161.672 276.672 161 277.5 161C278.328 161 279 161.672 279 162.5C279 163.328 278.328 164 277.5 164C276.672 164 276 163.328 276 162.5ZM300.5 161C299.672 161 299 161.672 299 162.5C299 163.328 299.672 164 300.5 164C301.328 164 302 163.328 302 162.5C302 161.672 301.328 161 300.5 161ZM322 162.5C322 161.672 322.672 161 323.5 161C324.328 161 325 161.672 325 162.5C325 163.328 324.328 164 323.5 164C322.672 164 322 163.328 322 162.5ZM346.5 161C345.672 161 345 161.672 345 162.5C345 163.328 345.672 164 346.5 164C347.328 164 348 163.328 348 162.5C348 161.672 347.328 161 346.5 161ZM368 162.5C368 161.672 368.672 161 369.5 161C370.328 161 371 161.672 371 162.5C371 163.328 370.328 164 369.5 164C368.672 164 368 163.328 368 162.5ZM392.5 161C391.672 161 391 161.672 391 162.5C391 163.328 391.672 164 392.5 164C393.328 164 394 163.328 394 162.5C394 161.672 393.328 161 392.5 161ZM414 162.5C414 161.672 414.672 161 415.5 161C416.328 161 417 161.672 417 162.5C417 163.328 416.328 164 415.5 164C414.672 164 414 163.328 414 162.5ZM438.5 161C437.672 161 437 161.672 437 162.5C437 163.328 437.672 164 438.5 164C439.328 164 440 163.328 440 162.5C440 161.672 439.328 161 438.5 161ZM460 162.5C460 161.672 460.672 161 461.5 161C462.328 161 463 161.672 463 162.5C463 163.328 462.328 164 461.5 164C460.672 164 460 163.328 460 162.5ZM484.5 161C483.672 161 483 161.672 483 162.5C483 163.328 483.672 164 484.5 164C485.328 164 486 163.328 486 162.5C486 161.672 485.328 161 484.5 161ZM0 185.5C0 184.672 0.671573 184 1.5 184C2.32843 184 3 184.672 3 185.5C3 186.328 2.32843 187 1.5 187C0.671573 187 0 186.328 0 185.5ZM24.5 184C23.6716 184 23 184.672 23 185.5C23 186.328 23.6716 187 24.5 187C25.3284 187 26 186.328 26 185.5C26 184.672 25.3284 184 24.5 184ZM46 185.5C46 184.672 46.6716 184 47.5 184C48.3284 184 49 184.672 49 185.5C49 186.328 48.3284 187 47.5 187C46.6716 187 46 186.328 46 185.5ZM70.5 184C69.6716 184 69 184.672 69 185.5C69 186.328 69.6716 187 70.5 187C71.3284 187 72 186.328 72 185.5C72 184.672 71.3284 184 70.5 184ZM92 185.5C92 184.672 92.6716 184 93.5 184C94.3284 184 95 184.672 95 185.5C95 186.328 94.3284 187 93.5 187C92.6716 187 92 186.328 92 185.5ZM116.5 184C115.672 184 115 184.672 115 185.5C115 186.328 115.672 187 116.5 187C117.328 187 118 186.328 118 185.5C118 184.672 117.328 184 116.5 184ZM138 185.5C138 184.672 138.672 184 139.5 184C140.328 184 141 184.672 141 185.5C141 186.328 140.328 187 139.5 187C138.672 187 138 186.328 138 185.5ZM162.5 184C161.672 184 161 184.672 161 185.5C161 186.328 161.672 187 162.5 187C163.328 187 164 186.328 164 185.5C164 184.672 163.328 184 162.5 184ZM184 185.5C184 184.672 184.672 184 185.5 184C186.328 184 187 184.672 187 185.5C187 186.328 186.328 187 185.5 187C184.672 187 184 186.328 184 185.5ZM208.5 184C207.672 184 207 184.672 207 185.5C207 186.328 207.672 187 208.5 187C209.328 187 210 186.328 210 185.5C210 184.672 209.328 184 208.5 184ZM230 185.5C230 184.672 230.672 184 231.5 184C232.328 184 233 184.672 233 185.5C233 186.328 232.328 187 231.5 187C230.672 187 230 186.328 230 185.5ZM254.5 184C253.672 184 253 184.672 253 185.5C253 186.328 253.672 187 254.5 187C255.328 187 256 186.328 256 185.5C256 184.672 255.328 184 254.5 184ZM276 185.5C276 184.672 276.672 184 277.5 184C278.328 184 279 184.672 279 185.5C279 186.328 278.328 187 277.5 187C276.672 187 276 186.328 276 185.5ZM300.5 184C299.672 184 299 184.672 299 185.5C299 186.328 299.672 187 300.5 187C301.328 187 302 186.328 302 185.5C302 184.672 301.328 184 300.5 184ZM322 185.5C322 184.672 322.672 184 323.5 184C324.328 184 325 184.672 325 185.5C325 186.328 324.328 187 323.5 187C322.672 187 322 186.328 322 185.5ZM346.5 184C345.672 184 345 184.672 345 185.5C345 186.328 345.672 187 346.5 187C347.328 187 348 186.328 348 185.5C348 184.672 347.328 184 346.5 184ZM368 185.5C368 184.672 368.672 184 369.5 184C370.328 184 371 184.672 371 185.5C371 186.328 370.328 187 369.5 187C368.672 187 368 186.328 368 185.5ZM392.5 184C391.672 184 391 184.672 391 185.5C391 186.328 391.672 187 392.5 187C393.328 187 394 186.328 394 185.5C394 184.672 393.328 184 392.5 184ZM414 185.5C414 184.672 414.672 184 415.5 184C416.328 184 417 184.672 417 185.5C417 186.328 416.328 187 415.5 187C414.672 187 414 186.328 414 185.5ZM438.5 184C437.672 184 437 184.672 437 185.5C437 186.328 437.672 187 438.5 187C439.328 187 440 186.328 440 185.5C440 184.672 439.328 184 438.5 184ZM460 185.5C460 184.672 460.672 184 461.5 184C462.328 184 463 184.672 463 185.5C463 186.328 462.328 187 461.5 187C460.672 187 460 186.328 460 185.5ZM484.5 184C483.672 184 483 184.672 483 185.5C483 186.328 483.672 187 484.5 187C485.328 187 486 186.328 486 185.5C486 184.672 485.328 184 484.5 184ZM0 208.5C0 207.672 0.671573 207 1.5 207C2.32843 207 3 207.672 3 208.5C3 209.328 2.32843 210 1.5 210C0.671573 210 0 209.328 0 208.5ZM24.5 207C23.6716 207 23 207.672 23 208.5C23 209.328 23.6716 210 24.5 210C25.3284 210 26 209.328 26 208.5C26 207.672 25.3284 207 24.5 207ZM46 208.5C46 207.672 46.6716 207 47.5 207C48.3284 207 49 207.672 49 208.5C49 209.328 48.3284 210 47.5 210C46.6716 210 46 209.328 46 208.5ZM70.5 207C69.6716 207 69 207.672 69 208.5C69 209.328 69.6716 210 70.5 210C71.3284 210 72 209.328 72 208.5C72 207.672 71.3284 207 70.5 207ZM92 208.5C92 207.672 92.6716 207 93.5 207C94.3284 207 95 207.672 95 208.5C95 209.328 94.3284 210 93.5 210C92.6716 210 92 209.328 92 208.5ZM116.5 207C115.672 207 115 207.672 115 208.5C115 209.328 115.672 210 116.5 210C117.328 210 118 209.328 118 208.5C118 207.672 117.328 207 116.5 207ZM138 208.5C138 207.672 138.672 207 139.5 207C140.328 207 141 207.672 141 208.5C141 209.328 140.328 210 139.5 210C138.672 210 138 209.328 138 208.5ZM162.5 207C161.672 207 161 207.672 161 208.5C161 209.328 161.672 210 162.5 210C163.328 210 164 209.328 164 208.5C164 207.672 163.328 207 162.5 207ZM184 208.5C184 207.672 184.672 207 185.5 207C186.328 207 187 207.672 187 208.5C187 209.328 186.328 210 185.5 210C184.672 210 184 209.328 184 208.5ZM208.5 207C207.672 207 207 207.672 207 208.5C207 209.328 207.672 210 208.5 210C209.328 210 210 209.328 210 208.5C210 207.672 209.328 207 208.5 207ZM230 208.5C230 207.672 230.672 207 231.5 207C232.328 207 233 207.672 233 208.5C233 209.328 232.328 210 231.5 210C230.672 210 230 209.328 230 208.5ZM254.5 207C253.672 207 253 207.672 253 208.5C253 209.328 253.672 210 254.5 210C255.328 210 256 209.328 256 208.5C256 207.672 255.328 207 254.5 207ZM276 208.5C276 207.672 276.672 207 277.5 207C278.328 207 279 207.672 279 208.5C279 209.328 278.328 210 277.5 210C276.672 210 276 209.328 276 208.5ZM300.5 207C299.672 207 299 207.672 299 208.5C299 209.328 299.672 210 300.5 210C301.328 210 302 209.328 302 208.5C302 207.672 301.328 207 300.5 207ZM322 208.5C322 207.672 322.672 207 323.5 207C324.328 207 325 207.672 325 208.5C325 209.328 324.328 210 323.5 210C322.672 210 322 209.328 322 208.5ZM346.5 207C345.672 207 345 207.672 345 208.5C345 209.328 345.672 210 346.5 210C347.328 210 348 209.328 348 208.5C348 207.672 347.328 207 346.5 207ZM368 208.5C368 207.672 368.672 207 369.5 207C370.328 207 371 207.672 371 208.5C371 209.328 370.328 210 369.5 210C368.672 210 368 209.328 368 208.5ZM392.5 207C391.672 207 391 207.672 391 208.5C391 209.328 391.672 210 392.5 210C393.328 210 394 209.328 394 208.5C394 207.672 393.328 207 392.5 207ZM414 208.5C414 207.672 414.672 207 415.5 207C416.328 207 417 207.672 417 208.5C417 209.328 416.328 210 415.5 210C414.672 210 414 209.328 414 208.5ZM438.5 207C437.672 207 437 207.672 437 208.5C437 209.328 437.672 210 438.5 210C439.328 210 440 209.328 440 208.5C440 207.672 439.328 207 438.5 207ZM460 208.5C460 207.672 460.672 207 461.5 207C462.328 207 463 207.672 463 208.5C463 209.328 462.328 210 461.5 210C460.672 210 460 209.328 460 208.5ZM484.5 207C483.672 207 483 207.672 483 208.5C483 209.328 483.672 210 484.5 210C485.328 210 486 209.328 486 208.5C486 207.672 485.328 207 484.5 207ZM0 231.5C0 230.672 0.671573 230 1.5 230C2.32843 230 3 230.672 3 231.5C3 232.328 2.32843 233 1.5 233C0.671573 233 0 232.328 0 231.5ZM24.5 230C23.6716 230 23 230.672 23 231.5C23 232.328 23.6716 233 24.5 233C25.3284 233 26 232.328 26 231.5C26 230.672 25.3284 230 24.5 230ZM46 231.5C46 230.672 46.6716 230 47.5 230C48.3284 230 49 230.672 49 231.5C49 232.328 48.3284 233 47.5 233C46.6716 233 46 232.328 46 231.5ZM70.5 230C69.6716 230 69 230.672 69 231.5C69 232.328 69.6716 233 70.5 233C71.3284 233 72 232.328 72 231.5C72 230.672 71.3284 230 70.5 230ZM92 231.5C92 230.672 92.6716 230 93.5 230C94.3284 230 95 230.672 95 231.5C95 232.328 94.3284 233 93.5 233C92.6716 233 92 232.328 92 231.5ZM116.5 230C115.672 230 115 230.672 115 231.5C115 232.328 115.672 233 116.5 233C117.328 233 118 232.328 118 231.5C118 230.672 117.328 230 116.5 230ZM138 231.5C138 230.672 138.672 230 139.5 230C140.328 230 141 230.672 141 231.5C141 232.328 140.328 233 139.5 233C138.672 233 138 232.328 138 231.5ZM162.5 230C161.672 230 161 230.672 161 231.5C161 232.328 161.672 233 162.5 233C163.328 233 164 232.328 164 231.5C164 230.672 163.328 230 162.5 230ZM184 231.5C184 230.672 184.672 230 185.5 230C186.328 230 187 230.672 187 231.5C187 232.328 186.328 233 185.5 233C184.672 233 184 232.328 184 231.5ZM208.5 230C207.672 230 207 230.672 207 231.5C207 232.328 207.672 233 208.5 233C209.328 233 210 232.328 210 231.5C210 230.672 209.328 230 208.5 230ZM230 231.5C230 230.672 230.672 230 231.5 230C232.328 230 233 230.672 233 231.5C233 232.328 232.328 233 231.5 233C230.672 233 230 232.328 230 231.5ZM254.5 230C253.672 230 253 230.672 253 231.5C253 232.328 253.672 233 254.5 233C255.328 233 256 232.328 256 231.5C256 230.672 255.328 230 254.5 230ZM276 231.5C276 230.672 276.672 230 277.5 230C278.328 230 279 230.672 279 231.5C279 232.328 278.328 233 277.5 233C276.672 233 276 232.328 276 231.5ZM300.5 230C299.672 230 299 230.672 299 231.5C299 232.328 299.672 233 300.5 233C301.328 233 302 232.328 302 231.5C302 230.672 301.328 230 300.5 230ZM322 231.5C322 230.672 322.672 230 323.5 230C324.328 230 325 230.672 325 231.5C325 232.328 324.328 233 323.5 233C322.672 233 322 232.328 322 231.5ZM346.5 230C345.672 230 345 230.672 345 231.5C345 232.328 345.672 233 346.5 233C347.328 233 348 232.328 348 231.5C348 230.672 347.328 230 346.5 230ZM368 231.5C368 230.672 368.672 230 369.5 230C370.328 230 371 230.672 371 231.5C371 232.328 370.328 233 369.5 233C368.672 233 368 232.328 368 231.5ZM392.5 230C391.672 230 391 230.672 391 231.5C391 232.328 391.672 233 392.5 233C393.328 233 394 232.328 394 231.5C394 230.672 393.328 230 392.5 230ZM414 231.5C414 230.672 414.672 230 415.5 230C416.328 230 417 230.672 417 231.5C417 232.328 416.328 233 415.5 233C414.672 233 414 232.328 414 231.5ZM438.5 230C437.672 230 437 230.672 437 231.5C437 232.328 437.672 233 438.5 233C439.328 233 440 232.328 440 231.5C440 230.672 439.328 230 438.5 230ZM460 231.5C460 230.672 460.672 230 461.5 230C462.328 230 463 230.672 463 231.5C463 232.328 462.328 233 461.5 233C460.672 233 460 232.328 460 231.5ZM484.5 230C483.672 230 483 230.672 483 231.5C483 232.328 483.672 233 484.5 233C485.328 233 486 232.328 486 231.5C486 230.672 485.328 230 484.5 230ZM0 254.5C0 253.672 0.671573 253 1.5 253C2.32843 253 3 253.672 3 254.5C3 255.328 2.32843 256 1.5 256C0.671573 256 0 255.328 0 254.5ZM24.5 253C23.6716 253 23 253.672 23 254.5C23 255.328 23.6716 256 24.5 256C25.3284 256 26 255.328 26 254.5C26 253.672 25.3284 253 24.5 253ZM46 254.5C46 253.672 46.6716 253 47.5 253C48.3284 253 49 253.672 49 254.5C49 255.328 48.3284 256 47.5 256C46.6716 256 46 255.328 46 254.5ZM70.5 253C69.6716 253 69 253.672 69 254.5C69 255.328 69.6716 256 70.5 256C71.3284 256 72 255.328 72 254.5C72 253.672 71.3284 253 70.5 253ZM92 254.5C92 253.672 92.6716 253 93.5 253C94.3284 253 95 253.672 95 254.5C95 255.328 94.3284 256 93.5 256C92.6716 256 92 255.328 92 254.5ZM116.5 253C115.672 253 115 253.672 115 254.5C115 255.328 115.672 256 116.5 256C117.328 256 118 255.328 118 254.5C118 253.672 117.328 253 116.5 253ZM138 254.5C138 253.672 138.672 253 139.5 253C140.328 253 141 253.672 141 254.5C141 255.328 140.328 256 139.5 256C138.672 256 138 255.328 138 254.5ZM162.5 253C161.672 253 161 253.672 161 254.5C161 255.328 161.672 256 162.5 256C163.328 256 164 255.328 164 254.5C164 253.672 163.328 253 162.5 253ZM184 254.5C184 253.672 184.672 253 185.5 253C186.328 253 187 253.672 187 254.5C187 255.328 186.328 256 185.5 256C184.672 256 184 255.328 184 254.5ZM208.5 253C207.672 253 207 253.672 207 254.5C207 255.328 207.672 256 208.5 256C209.328 256 210 255.328 210 254.5C210 253.672 209.328 253 208.5 253ZM230 254.5C230 253.672 230.672 253 231.5 253C232.328 253 233 253.672 233 254.5C233 255.328 232.328 256 231.5 256C230.672 256 230 255.328 230 254.5ZM254.5 253C253.672 253 253 253.672 253 254.5C253 255.328 253.672 256 254.5 256C255.328 256 256 255.328 256 254.5C256 253.672 255.328 253 254.5 253ZM276 254.5C276 253.672 276.672 253 277.5 253C278.328 253 279 253.672 279 254.5C279 255.328 278.328 256 277.5 256C276.672 256 276 255.328 276 254.5ZM300.5 253C299.672 253 299 253.672 299 254.5C299 255.328 299.672 256 300.5 256C301.328 256 302 255.328 302 254.5C302 253.672 301.328 253 300.5 253Z" fill="url(#paint0_radial_5_3461)"/>
<defs>
<radialGradient id="paint0_radial_5_3461" cx="0" cy="0" r="1" gradientUnits="userSpaceOnUse" gradientTransform="translate(243 145) rotate(90) scale(190.5 221.873)">
<stop stop-color="#CFCFCF"/>
<stop offset="1" stop-color="white"/>
</radialGradient>
</defs>
</svg>
