<svg width="16" height="16" viewBox="0 0 16 16" fill="none" xmlns="http://www.w3.org/2000/svg">
<path d="M7.99999 11.333H8.00666M6.06672 5.99962C6.22671 5.55871 6.53657 5.18805 6.94214 4.95244C7.34771 4.71683 7.82319 4.63126 8.28546 4.71069C8.74773 4.79012 9.16738 5.02949 9.47104 5.38696C9.77471 5.74443 9.94308 6.19726 9.94672 6.66629C9.94672 7.99962 7.94672 8.66629 7.94672 8.66629M9.99999 1.33301H3.99999C3.64637 1.33301 3.30723 1.47348 3.05718 1.72353C2.80713 1.97358 2.66666 2.31272 2.66666 2.66634V13.333C2.66666 13.6866 2.80713 14.0258 3.05718 14.2758C3.30723 14.5259 3.64637 14.6663 3.99999 14.6663H12C12.3536 14.6663 12.6927 14.5259 12.9428 14.2758C13.1928 14.0258 13.3333 13.6866 13.3333 13.333V4.66634L9.99999 1.33301Z" stroke="#1C4EF5" stroke-width="1.33" stroke-linecap="round" stroke-linejoin="round"/>
</svg>
