<svg width="16" height="16" viewBox="0 0 16 16" fill="none" xmlns="http://www.w3.org/2000/svg">
<path d="M6.00004 11.3337H4.66671C3.78265 11.3337 2.93481 10.9825 2.30968 10.3573C1.68456 9.73223 1.33337 8.88438 1.33337 8.00033C1.33337 7.11627 1.68456 6.26842 2.30968 5.6433C2.93481 5.01818 3.78265 4.66699 4.66671 4.66699H6.00004M10 4.66699H11.3334C12.2174 4.66699 13.0653 5.01818 13.6904 5.6433C14.3155 6.26842 14.6667 7.11627 14.6667 8.00033C14.6667 8.88438 14.3155 9.73223 13.6904 10.3573C13.0653 10.9825 12.2174 11.3337 11.3334 11.3337H10M5.33337 8.00033H10.6667" stroke="#A3A3A3" stroke-width="1.33" stroke-linecap="round" stroke-linejoin="round"/>
</svg>
