<svg width="17" height="16" viewBox="0 0 17 16" fill="none" xmlns="http://www.w3.org/2000/svg">
<path d="M5.29999 2.5998L2.91558 3.94104C2.41178 4.22443 2.10001 4.75752 2.10001 5.33556V7.9998V10.6641C2.10001 11.2421 2.41178 11.7752 2.91559 12.0586L5.29999 13.3998L7.71559 14.7586C8.20265 15.0325 8.79736 15.0325 9.28442 14.7586L11.7 13.3998L14.0844 12.0586C14.5882 11.7752 14.9 11.2421 14.9 10.6641V7.9998V5.33556C14.9 4.75752 14.5882 4.22443 14.0844 3.94104L11.7 2.5998L9.28442 1.24104C8.79736 0.967066 8.20265 0.967066 7.71559 1.24104L5.29999 2.5998Z" fill="url(#paint0_linear_295_9671)"/>
<path d="M7.83829 1.45898C8.19795 1.2567 8.62728 1.23099 9.0043 1.38281L9.16153 1.45898L11.5775 2.81738L13.9623 4.15918C14.3871 4.39835 14.6498 4.84839 14.6498 5.33594V10.6641C14.6498 11.0907 14.4486 11.4883 14.1137 11.7412L13.9623 11.8408L11.5775 13.1816L9.16153 14.541C8.80208 14.743 8.37329 14.7678 7.99649 14.6162L7.83829 14.541L5.42227 13.1816L3.03848 11.8408C2.6134 11.6017 2.35001 11.1518 2.35001 10.6641V5.33594C2.35001 4.90923 2.55107 4.51076 2.88614 4.25781L3.03848 4.15918L5.42227 2.81738L7.83829 1.45898Z" stroke="white" stroke-opacity="0.3" stroke-width="0.5" stroke-linecap="round" stroke-linejoin="round"/>
<path d="M5.5 8H11.5" stroke="white" stroke-width="1.064" stroke-linecap="round" stroke-linejoin="round"/>
<path d="M7 5.40234L10 10.5985" stroke="white" stroke-width="1.064" stroke-linecap="round" stroke-linejoin="round"/>
<path d="M10 5.40234L7 10.5985" stroke="white" stroke-width="1.064" stroke-linecap="round" stroke-linejoin="round"/>
<defs>
<linearGradient id="paint0_linear_295_9671" x1="8.50001" y1="15.1998" x2="6.25265" y2="1.15953" gradientUnits="userSpaceOnUse">
<stop stop-color="#1D49FF"/>
<stop offset="1" stop-color="#4CBBFF"/>
</linearGradient>
</defs>
</svg>
