<svg width="16" height="16" viewBox="0 0 16 16" fill="none" xmlns="http://www.w3.org/2000/svg">
<path d="M5.72673 9.00635L10.2801 11.6597M10.2734 4.33968L5.72673 6.99301M14 3.33301C14 4.43758 13.1046 5.33301 12 5.33301C10.8954 5.33301 10 4.43758 10 3.33301C10 2.22844 10.8954 1.33301 12 1.33301C13.1046 1.33301 14 2.22844 14 3.33301ZM6 7.99967C6 9.10424 5.10457 9.99967 4 9.99967C2.89543 9.99967 2 9.10424 2 7.99967C2 6.89511 2.89543 5.99967 4 5.99967C5.10457 5.99967 6 6.89511 6 7.99967ZM14 12.6663C14 13.7709 13.1046 14.6663 12 14.6663C10.8954 14.6663 10 13.7709 10 12.6663C10 11.5618 10.8954 10.6663 12 10.6663C13.1046 10.6663 14 11.5618 14 12.6663Z" stroke="#525252" stroke-width="1.33" stroke-linecap="round" stroke-linejoin="round"/>
</svg>
