<svg width="16" height="16" viewBox="0 0 16 16" fill="none" xmlns="http://www.w3.org/2000/svg">
<path d="M12 14C12 12.5855 11.4381 11.229 10.4379 10.2288C9.43772 9.22857 8.08117 8.66667 6.66668 8.66667M6.66668 8.66667C5.25219 8.66667 3.89563 9.22857 2.89544 10.2288C1.89525 11.229 1.33334 12.5855 1.33334 14M6.66668 8.66667C8.50763 8.66667 10 7.17428 10 5.33333C10 3.49238 8.50763 2 6.66668 2C4.82573 2 3.33334 3.49238 3.33334 5.33333C3.33334 7.17428 4.82573 8.66667 6.66668 8.66667ZM14.6667 13.3333C14.6667 11.0866 13.3334 8.99997 12 7.99997C12.4383 7.67115 12.7888 7.23936 13.0204 6.74281C13.2521 6.24627 13.3577 5.70028 13.3281 5.15317C13.2984 4.60606 13.1343 4.07469 12.8504 3.6061C12.5664 3.13751 12.1713 2.74614 11.7 2.46663" stroke="#A3A3A3" stroke-width="1.33" stroke-linecap="round" stroke-linejoin="round"/>
</svg>
