<svg xmlns="http://www.w3.org/2000/svg" xmlns:xlink="http://www.w3.org/1999/xlink" fill="none" version="1.1" width="328.74560546875" height="44.2965087890625" viewBox="0 0 328.74560546875 44.2965087890625"><g><g><g><path d="M28.86634306640625,29.6136093359375C27.27454306640625,28.4070793359375,26.03704306640625,26.7744893359375,25.43944306640625,24.8692593359375C25.01174306640625,23.5076693359375,24.18734306640625,22.2538393359375,22.98574306640625,21.2987293359375C19.784243066406248,18.7534913359375,15.12634306640625,19.2857263359375,12.58114306640625,22.4872593359375C11.99996306640625,23.2186693359375,11.58037306640625,24.0251993359375,11.31425306640625,24.864319335937502C10.70855306640625,26.7842593359375,9.51025306640625,28.456079335937503,7.885783066406249,29.6446093359375C5.78137306640625,31.1825193359375,4.44589806640625,33.7114193359375,4.56670967640625,36.5439193359375C4.74139806640625,40.6516193359375,8.02455306640625,44.0147193359375,12.12725306640625,44.2792193359375C13.52314306640625,44.3690193359375,14.84884306640625,44.104519335937496,16.02434306640625,43.5690193359375C17.53444306640625,42.8801193359375,19.273243066406252,42.881719335937504,20.79964306640625,43.5331193359375C21.87724306640625,43.9935193359375,23.07384306640625,44.226919335937495,24.33094306640625,44.1731193359375C28.58394306640625,43.990219335937496,32.00254306640625,40.4818193359375,32.07934306640625,36.225619335937495C32.12824306640625,33.5269193359375,30.85644306640625,31.122119335937498,28.86794306640625,29.6151993359375C28.86794306640625,29.6151993359375,28.86634306640625,29.6136093359375,28.86634306640625,29.6136093359375Z" fill="#000000" fill-opacity="1"/></g><g><path d="M33.0993587890625,13.833170859375C33.260948789062496,13.142580859375,33.1450687890625,12.448700859375,32.8152987890625,11.874050859375C32.470768789062504,11.274876859375,31.8977687890625,10.806346859375,31.1777687890625,10.610405659375C30.8006587890625,10.507582169375,30.420238789062502,10.491229159375,30.0578287890625,10.546758559375C30.3157687890625,10.757346859375,30.5328887890625,11.013640859375,30.6961287890625,11.299346859375C31.0405987890625,11.898520859375001,31.1548887890625,12.629930859375,30.9606587890625,13.349930859375C30.9606587890625,13.349930859375,28.9264207890625,20.956180859375,28.9264207890625,20.956180859375C28.9264207890625,20.956180859375,28.9770077890625,20.895780859375,28.9770077890625,20.895780859375C28.9770077890625,20.895780859375,28.4905377890625,22.709680859375,28.4905377890625,22.709680859375C28.4905377890625,22.709680859375,28.4937727890625,22.709680859375,28.4937727890625,22.709680859375C28.0235967890625,24.670380859375,29.1974197890625,26.657180859375,31.156538789062502,27.182980859375C33.1140687890625,27.706980859375,35.1254187890625,26.572380859375,35.6984187890625,24.640980859375C35.6984187890625,24.640980859375,35.7017087890625,24.640980859375,35.7017087890625,24.640980859375C35.7017087890625,24.640980859375,35.7278287890625,24.544680859375,35.7278287890625,24.544680859375C35.7278287890625,24.544680859375,36.3808887890625,22.108780859375003,36.3808887890625,22.108780859375003C37.2543087890625,18.850170859374998,35.829068789062504,15.519640859375,33.1010087890625,13.831520859375C33.1010087890625,13.831520859375,33.0993587890625,13.833170859375,33.0993587890625,13.833170859375Z" fill="#000000" fill-opacity="1"/></g><g><path d="M8.14165,22.711980859375C8.14165,22.711980859375,8.14494,22.711980859375,8.14494,22.711980859375C8.14494,22.711980859375,7.65841,20.896480859375,7.65841,20.896480859375C7.65841,20.896480859375,7.709,20.956880859374998,7.709,20.956880859374998C7.709,20.956880859374998,5.67481,13.350630859375,5.67481,13.350630859375C5.47889,12.630690859375001,5.59481,11.899280859375,5.93929,11.300100859375C6.10253,11.014395859375,6.31971,10.759689859375,6.57765,10.547454859375C6.21518,10.490337159375,5.83479,10.508277909375,5.45767,10.611160259375C4.73769,10.807042859375,4.16465,11.273984859375,3.82017,11.874810859375C3.49039,12.449450859375,3.37447,13.143340859375,3.5361,13.833920859375C0.808024,15.522040859375,-0.617241,18.852510859375002,0.256201,22.111180859375C0.256201,22.111180859375,0.909241,24.547080859375,0.909241,24.547080859375C0.909241,24.547080859375,0.935371,24.644980859375,0.935371,24.644980859375C0.935371,24.644980859375,0.93863,24.644980859375,0.93863,24.644980859375C1.51167,26.576380859375,3.52304,27.710980859375,5.48052,27.186880859375C7.438,26.662880859375,8.61182,24.674380859375,8.1433,22.715280859375C8.1433,22.715280859375,8.14165,22.711980859375,8.14165,22.711980859375Z" fill="#000000" fill-opacity="1"/></g><g><path d="M8.903899535156249,16.4686C8.903899535156249,16.4686,8.91042853515625,16.4686,8.91042853515625,16.4686C9.47854353515625,18.6726,11.68096353515625,20.0718,13.94048353515625,19.6163C16.19996353515625,19.1608,17.68731353515625,17.0172,17.35748353515625,14.7642C17.35748353515625,14.7642,17.36401353515625,14.7642,17.36401353515625,14.7642C17.36401353515625,14.7642,17.31831353515625,14.534,17.31831353515625,14.534C17.31831353515625,14.534,17.31343353515625,14.5079,17.31343353515625,14.5079C17.31343353515625,14.5079,15.17472353515625,3.8731,15.17472353515625,3.8731C14.96737353515625,2.86252,15.19101353515625,1.865,15.71672353515625,1.06829C15.96813353515625,0.687894,16.28813353515625,0.354847,16.66202353515625,0.0871C16.16731353515625,-0.0222842,15.641663535156251,-0.0320794,15.112663535156251,0.0773047C14.10207353515625,0.284645,13.27272353515625,0.880541,12.74543353515625,1.67725C12.22131353515625,2.47069,11.99931353515625,3.46169,12.200133535156251,4.46574C9.23366353515625,6.31382,7.57331153515625,9.868,8.30472353515625,13.4973C8.30472353515625,13.4973,8.903899535156249,16.4686,8.903899535156249,16.4686Z" fill="#000000" fill-opacity="1"/></g><g><path d="M22.93298658203125,19.6173C25.192456582031248,20.0728,27.39486658203125,18.6736,27.96298658203125,16.468C27.96298658203125,16.468,27.96951658203125,16.468,27.96951658203125,16.468C27.96951658203125,16.468,28.568686582031248,13.4967,28.568686582031248,13.4967C29.300106582031248,9.86901,27.63974658203125,6.31484,24.67327658203125,4.4651C24.87410658203125,3.46105,24.65210658203125,2.46843,24.12963658203125,1.67661C23.60398658203125,0.879908,22.77298658203125,0.284008,21.76239658203125,0.0766674C21.23339658203125,-0.0310842,20.70775658203125,-0.0229215,20.21304558203125,0.0864627C20.58857658203125,0.354209,20.90851658203125,0.687255,21.15833658203125,1.06766C21.68404658203125,1.86436,21.90604658203125,2.86188,21.700336582031248,3.87247C21.700336582031248,3.87247,19.55839918203125,14.5235,19.55839918203125,14.5235C19.55839918203125,14.5235,19.55839918203125,14.5334,19.55839918203125,14.5334C19.55839918203125,14.5334,19.55675218203125,14.5334,19.55675218203125,14.5334C19.55675218203125,14.5334,19.51104528203125,14.7619,19.51104528203125,14.7619C19.51104528203125,14.7619,19.51757518203125,14.7619,19.51757518203125,14.7619C19.18616358203125,17.0165,20.67504658203125,19.1601,22.93457658203125,19.6156C22.93457658203125,19.6156,22.93298658203125,19.6173,22.93298658203125,19.6173Z" fill="#000000" fill-opacity="1"/></g></g><g><g><g><g><path d="M59.18826114624024,16.18506610961914C60.452381146240235,16.18506610961914,61.41058114624023,16.552766109619142,62.04298114624024,17.27153610961914C62.39828114624024,17.68053610961914,62.69998114624023,18.30841610961914,62.931181146240235,19.13053610961914C62.931181146240235,19.13053610961914,62.984681146240234,19.31641610961914,62.984681146240234,19.31641610961914C62.984681146240234,19.31641610961914,67.22298114624023,19.31641610961914,67.22298114624023,19.31641610961914C67.22298114624023,19.31641610961914,67.21058114624023,19.043766109619142,67.21058114624023,19.043766109619142C67.15298114624024,17.874646109619142,66.71528114624023,16.69735610961914,65.91358114624023,15.540646109619141C64.46358114624023,13.483356109619141,62.154681146240236,12.44235610961914,59.03943114624023,12.44235610961914C56.70973114624024,12.44235610961914,54.75985114624024,13.219003109619141,53.24790114624023,14.747476109619141C51.51702214624024,16.494946109619143,50.637081146240234,19.006586109619143,50.637081146240234,22.21641610961914C50.637081146240234,25.182556109619142,51.40955114624023,27.55375610961914,52.92978114624023,29.268056109619142C54.458311146240234,30.98245610961914,56.58579114624023,31.85415610961914,59.245901146240236,31.85415610961914C61.40238114624023,31.85415610961914,63.19948114624023,31.20975610961914,64.58768114624023,29.93735610961914C65.96298114624024,28.66915610961914,66.83058114624023,27.004256109619142,67.16528114624023,24.98835610961914C67.16528114624023,24.98835610961914,67.21468114624024,24.68675610961914,67.21468114624024,24.68675610961914C67.21468114624024,24.68675610961914,62.98058114624023,24.68675610961914,62.98058114624023,24.68675610961914C62.98058114624023,24.68675610961914,62.931181146240235,24.87685610961914,62.931181146240235,24.87685610961914C62.68708114624023,25.76915610961914,62.38588114624024,26.438356109619143,62.022381146240235,26.876256109619142C61.373581146240234,27.685856109619138,60.448261146240235,28.07835610961914,59.200611146240234,28.07835610961914C57.953141146240235,28.07835610961914,57.003021146240236,27.61575610961914,56.20985114624023,26.65725610961914C55.41667114624023,25.70295610961914,55.016021146240234,24.22825610961914,55.016021146240234,22.27423610961914C55.016021146240234,20.32023610961914,55.40014114624024,18.78347610961914,56.15614114624023,17.73006610961914C56.90384114624023,16.68494610961914,57.89531114624023,16.176826109619142,59.192371146240234,16.176826109619142C59.192371146240234,16.176826109619142,59.18826114624024,16.18506610961914,59.18826114624024,16.18506610961914Z" fill="#000000" fill-opacity="1"/></g><g><path d="M78.55267087280274,12.78537368774414C78.55267087280274,12.78537368774414,74.26855087280273,12.78537368774414,74.26855087280273,12.78537368774414C74.26855087280273,12.78537368774414,74.26855087280273,31.350273687744142,74.26855087280273,31.350273687744142C74.26855087280273,31.350273687744142,87.49205087280274,31.350273687744142,87.49205087280274,31.350273687744142C87.49205087280274,31.350273687744142,87.49205087280274,27.59097368774414,87.49205087280274,27.59097368774414C87.49205087280274,27.59097368774414,78.55267087280274,27.59097368774414,78.55267087280274,27.59097368774414C78.55267087280274,27.59097368774414,78.55267087280274,12.78537368774414,78.55267087280274,12.78537368774414Z" fill="#000000" fill-opacity="1"/></g><g><path d="M105.81625067749023,12.78537368774414C105.81625067749023,12.78537368774414,101.18982067749023,12.78537368774414,101.18982067749023,12.78537368774414C101.18982067749023,12.78537368774414,94.56335067749023,31.350273687744142,94.56335067749023,31.350273687744142C94.56335067749023,31.350273687744142,99.05806067749023,31.350273687744142,99.05806067749023,31.350273687744142C99.05806067749023,31.350273687744142,100.30570067749024,27.64057368774414,100.30570067749024,27.64057368774414C100.30570067749024,27.64057368774414,106.58095067749024,27.64057368774414,106.58095067749024,27.64057368774414C106.58095067749024,27.64057368774414,107.74575067749024,31.350273687744142,107.74575067749024,31.350273687744142C107.74575067749024,31.350273687744142,112.38925067749024,31.350273687744142,112.38925067749024,31.350273687744142C112.38925067749024,31.350273687744142,105.87455067749023,12.958902687744141,105.87455067749023,12.958902687744141C105.87455067749023,12.958902687744141,105.81215067749024,12.78537368774414,105.81215067749024,12.78537368774414C105.81215067749024,12.78537368774414,105.81625067749023,12.78537368774414,105.81625067749023,12.78537368774414ZM105.36625067749023,24.01357368774414C105.36625067749023,24.01357368774414,101.49511067749023,24.01357368774414,101.49511067749023,24.01357368774414C101.49511067749023,24.01357368774414,103.46159067749024,18.01113368774414,103.46159067749024,18.01113368774414C103.46159067749024,18.01113368774414,105.36625067749023,24.01357368774414,105.36625067749023,24.01357368774414Z" fill="#000000" fill-opacity="1"/></g><g><path d="M134.83853798217774,12.78537368774414C134.83853798217774,12.78537368774414,132.37683798217773,23.43937368774414,132.37683798217773,23.43937368774414C132.37683798217773,23.43937368774414,132.08743798217773,24.90997368774414,132.08743798217773,24.90997368774414C132.08743798217773,24.90997368774414,131.78153798217772,23.32777368774414,131.78153798217772,23.32777368774414C131.78153798217772,23.32777368774414,129.59623798217774,12.78537368774414,129.59623798217774,12.78537368774414C129.59623798217774,12.78537368774414,125.19269798217773,12.78537368774414,125.19269798217773,12.78537368774414C125.19269798217773,12.78537368774414,123.11915798217774,23.39387368774414,123.11915798217774,23.39387368774414C123.11915798217774,23.39387368774414,122.85445798217773,24.82327368774414,122.85445798217773,24.82327368774414C122.85445798217773,24.82327368774414,122.58622798217773,23.31957368774414,122.58622798217773,23.31957368774414C122.58622798217773,23.31957368774414,120.14856798217774,12.78537368774414,120.14856798217774,12.78537368774414C120.14856798217774,12.78537368774414,115.60033798217773,12.78537368774414,115.60033798217773,12.78537368774414C115.60033798217773,12.78537368774414,120.86328798217774,31.350273687744142,120.86328798217774,31.350273687744142C120.86328798217774,31.350273687744142,124.77151798217773,31.350273687744142,124.77151798217773,31.350273687744142C124.77151798217773,31.350273687744142,126.99383798217774,20.584783687744142,126.99383798217774,20.584783687744142C126.99383798217774,20.584783687744142,127.37793798217774,18.48625368774414,127.37793798217774,18.48625368774414C127.37793798217774,18.48625368774414,127.76213798217773,20.588903687744143,127.76213798217773,20.588903687744143C127.76213798217773,20.588903687744143,129.98443798217772,31.350273687744142,129.98443798217772,31.350273687744142C129.98443798217772,31.350273687744142,133.99153798217773,31.350273687744142,133.99153798217773,31.350273687744142C133.99153798217773,31.350273687744142,139.21743798217773,12.78537368774414,139.21743798217773,12.78537368774414C139.21743798217773,12.78537368774414,134.83853798217774,12.78537368774414,134.83853798217774,12.78537368774414Z" fill="#000000" fill-opacity="1"/></g></g><g><g><path d="M159.75030341186525,14.449044959106445C160.99390341186523,15.647044959106445,161.68390341186523,17.014464959106444,161.82030341186524,18.538814959106446C161.82030341186524,18.538814959106446,159.44510341186523,18.538814959106446,159.44510341186523,18.538814959106446C159.18040341186523,17.377994959106445,158.65150341186524,16.460874959106444,157.86270341186523,15.783404959106445C157.07390341186525,15.105874959106446,155.96681341186525,14.767164959106445,154.53740341186523,14.767164959106445C152.79799341186524,14.767164959106445,151.39328341186524,15.390934959106445,150.32328341186525,16.634404959106444C149.25387341186524,17.881934959106445,148.71682341186522,19.790514959106446,148.71682341186522,22.364104959106445C148.71682341186522,24.470954959106443,149.19976341186523,26.181254959106447,150.16681341186523,27.494854959106448C151.13329341186522,28.804354959106444,152.57504341186524,29.461254959106444,154.49151341186524,29.461254959106444C156.25560341186522,29.461254959106444,157.59860341186524,28.771354959106446,158.51980341186524,27.391654959106447C159.00680341186523,26.664554959106447,159.37450341186525,25.710254959106443,159.61450341186523,24.524654959106446C159.61450341186523,24.524654959106446,161.98980341186524,24.524654959106446,161.98980341186524,24.524654959106446C161.77920341186524,26.416654959106445,161.08500341186524,28.007154959106444,159.90740341186523,29.287754959106444C158.49500341186524,30.828654959106444,156.59030341186522,31.601154959106445,154.19445341186523,31.601154959106445C152.12857341186523,31.601154959106445,150.39387341186523,30.969154959106444,148.98917341186524,29.700854959106444C147.14270041186523,28.027854959106445,146.21740341186523,25.441754959106447,146.21740341186523,21.942754959106445C146.21740341186523,19.286514959106444,146.91152241186523,17.109464959106447,148.29917341186524,15.411574959106446C149.79917341186524,13.564989959106445,151.86859341186522,12.643754959106445,154.50859341186523,12.643754959106445C156.75980341186522,12.643754959106445,158.50740341186523,13.242813959106446,159.75030341186525,14.444934959106446C159.75030341186525,14.444934959106446,159.75030341186525,14.449044959106445,159.75030341186525,14.449044959106445Z" fill="#000000" fill-opacity="1"/></g><g><path d="M169.31872177124023,13.136491775512695C169.31872177124023,13.136491775512695,171.75578177124024,13.136491775512695,171.75578177124024,13.136491775512695C171.75578177124024,13.136491775512695,171.75578177124024,28.983191775512694,171.75578177124024,28.983191775512694C171.75578177124024,28.983191775512694,180.78222177124024,28.983191775512694,180.78222177124024,28.983191775512694C180.78222177124024,28.983191775512694,180.78222177124024,31.127191775512696,180.78222177124024,31.127191775512696C180.78222177124024,31.127191775512696,169.32283267124023,31.127191775512696,169.32283267124023,31.127191775512696C169.32283267124023,31.127191775512696,169.32283267124023,13.140609405512695,169.32283267124023,13.140609405512695C169.32283267124023,13.140609405512695,169.31872177124023,13.136491775512695,169.31872177124023,13.136491775512695Z" fill="#000000" fill-opacity="1"/></g><g><path d="M203.7146761657715,15.711100545043944C204.90407616577147,17.301510545043946,205.50347616577147,19.338150545043945,205.50347616577147,21.820860545043946C205.50347616577147,24.506080545043943,204.8216761657715,26.740980545043946,203.45817616577148,28.517380545043945C201.85997616577149,30.607580545043945,199.5751761657715,31.652780545043946,196.61344616577148,31.652780545043946C193.8452161657715,31.652780545043946,191.66816616577148,30.739780545043946,190.08640616577148,28.909780545043944C188.6734631657715,27.145780545043944,187.96697616577148,24.919180545043943,187.96697616577148,22.225740545043948C187.96697616577148,19.792510545043946,188.5699221657715,17.710510545043945,189.7805061657715,15.979570545043945C191.3299261657715,13.761210545043944,193.6263961657715,12.649980545043945,196.66286616577148,12.649980545043945C199.6993761657715,12.649980545043945,202.1899761657715,13.670330545043946,203.7146761657715,15.711100545043944ZM201.5663761657715,27.178880545043945C202.5246761657715,25.637980545043945,203.0040761657715,23.869880545043948,203.0040761657715,21.866330545043944C203.0040761657715,19.751210545043946,202.45047616577148,18.045100545043944,201.34347616577148,16.756210545043945C200.23637616577147,15.463210545043946,198.7240761657715,14.818740545043944,196.80757616577148,14.818740545043944C194.8905161657715,14.818740545043944,193.42816616577147,15.459100545043945,192.2511061657715,16.735570545043945C191.0734561657715,18.016210545043947,190.48699616577147,19.899980545043945,190.48699616577147,22.390980545043945C190.48699616577147,24.386280545043945,190.9910961657715,26.067580545043946,191.99874616577148,27.434980545043945C193.00697616577148,28.802380545043945,194.6428561657715,29.488080545043946,196.9022761657715,29.488080545043946C199.1622761657715,29.488080545043946,200.6040761657715,28.719780545043946,201.5622761657715,27.178880545043945C201.5622761657715,27.178880545043945,201.5663761657715,27.178880545043945,201.5663761657715,27.178880545043945Z" fill="#000000" fill-opacity="1"/></g><g><path d="M215.22030110717773,13.140609405512695C215.22030110717773,13.140609405512695,215.22030110717773,24.257291775512694,215.22030110717773,24.257291775512694C215.22030110717773,25.562691775512697,215.46794110717772,26.649091775512694,215.95971110717772,27.512591775512696C216.69088110717774,28.817991775512695,217.92620110717775,29.470691775512694,219.66149110717774,29.470691775512694C221.74326110717774,29.470691775512694,223.15624110717772,28.764291775512696,223.90794110717775,27.351391775512695C224.31264110717774,26.582991775512696,224.51094110717773,25.550291775512697,224.51094110717773,24.253091775512694C224.51094110717773,24.253091775512694,224.51094110717773,13.136491775512695,224.51094110717773,13.136491775512695C224.51094110717773,13.136491775512695,226.97324110717773,13.136491775512695,226.97324110717773,13.136491775512695C226.97324110717773,13.136491775512695,226.97324110717773,23.236891775512696,226.97324110717773,23.236891775512696C226.97324110717773,25.451091775512694,226.67564110717774,27.153091775512696,226.07674110717772,28.342891775512697C224.97794110717774,30.515791775512696,222.90794110717775,31.598091775512696,219.85971110717773,31.598091775512696C216.81089110717772,31.598091775512696,214.74502110717773,30.511691775512695,213.65442910717775,28.342891775512697C213.05560610717774,27.153091775512696,212.75854110717773,25.446991775512693,212.75854110717773,23.236891775512696C212.75854110717773,23.236891775512696,212.75854110717773,13.136491775512695,212.75854110717773,13.136491775512695C212.75854110717773,13.136491775512695,215.22030110717773,13.136491775512695,215.22030110717773,13.136491775512695C215.22030110717773,13.136491775512695,215.22030110717773,13.140609405512695,215.22030110717773,13.140609405512695Z" fill="#000000" fill-opacity="1"/></g><g><path d="M234.07616806030273,13.136491775512695C234.07616806030273,13.136491775512695,241.26440806030274,13.136491775512695,241.26440806030274,13.136491775512695C243.70557806030274,13.136491775512695,245.59796806030275,14.012255775512696,246.94436806030274,15.767961775512696C248.14676806030275,17.350141775512697,248.74556806030273,19.378491775512696,248.74556806030273,21.853021775512694C248.74556806030273,23.761591775512695,248.39026806030273,25.488291775512696,247.68386806030273,27.033291775512694C246.43616806030275,29.759791775512696,244.28796806030275,31.123091775512695,241.24381806030274,31.123091775512695C241.24381806030274,31.123091775512695,234.07616806030273,31.123091775512695,234.07616806030273,31.123091775512695C234.07616806030273,31.123091775512695,234.07616806030273,13.136491775512695,234.07616806030273,13.136491775512695ZM240.78911806030274,29.040991775512694C241.59499806030274,29.040991775512694,242.25969806030272,28.954291775512694,242.77616806030272,28.784891775512698C243.70146806030274,28.466791775512696,244.46146806030274,27.855391775512693,245.05266806030272,26.946591775512694C245.52326806030274,26.219491775512694,245.86206806030273,25.289991775512696,246.06856806030274,24.153991775512694C246.18856806030274,23.476491775512695,246.24616806030272,22.848611775512694,246.24616806030272,22.270261775512694C246.24616806030272,20.043611775512694,245.81266806030274,18.312731775512695,244.94906806030272,17.077491775512694C244.08146806030274,15.846491775512696,242.68970806030273,15.226781775512695,240.76441806030275,15.226781775512695C240.76441806030275,15.226781775512695,236.53852806030272,15.226781775512695,236.53852806030272,15.226781775512695C236.53852806030272,15.226781775512695,236.53852806030272,29.040991775512694,236.53852806030272,29.040991775512694C236.53852806030272,29.040991775512694,240.78911806030274,29.040991775512694,240.78911806030274,29.040991775512694Z" fill="#000000" fill-opacity="1"/></g></g></g><g><path d="M268.62158639526365,21.982250579833984L268.62158639526365,16.756250579833985L273.0935863952637,16.756250579833985Q274.4975863952637,16.756250579833985,275.1995863952637,17.367250579833986Q275.9015863952637,17.978250579833983,275.9015863952637,19.330250579833987Q275.9015863952637,20.734250579833983,275.1995863952637,21.358250579833985Q274.4975863952637,21.982250579833984,273.0935863952637,21.982250579833984L268.62158639526365,21.982250579833984ZM264.53958639526365,13.584250579833984L264.53958639526365,32.148250579833984L268.62158639526365,32.148250579833984L268.62158639526365,24.894250579833987L272.7035863952637,24.894250579833987Q274.2375863952637,24.894250579833987,274.9135863952637,25.570250579833985Q275.58958639526367,26.246250579833983,275.7975863952637,27.702250579833983Q275.9535863952637,28.820250579833985,276.0315863952637,30.042250579833983Q276.10958639526365,31.264250579833984,276.44758639526367,32.148250579833984L280.52958639526366,32.148250579833984Q280.24358639526366,31.758250579833984,280.1005863952637,31.199250579833983Q279.95758639526366,30.640250579833985,279.89258639526366,30.016250579833983Q279.82758639526367,29.392250579833984,279.80158639526366,28.794250579833985Q279.77558639526364,28.196250579833983,279.7495863952637,27.754250579833986Q279.69758639526367,27.052250579833984,279.5545863952637,26.350250579833986Q279.41158639526367,25.648250579833984,279.09958639526366,25.063250579833984Q278.7875863952637,24.478250579833983,278.2935863952637,24.049250579833984Q277.79958639526365,23.620250579833986,277.0455863952637,23.412250579833984L277.0455863952637,23.360250579833984Q278.6055863952637,22.736250579833985,279.29458639526365,21.540250579833984Q279.98358639526367,20.344250579833982,279.98358639526367,18.706250579833984Q279.98358639526367,17.640250579833985,279.60658639526366,16.717250579833983Q279.22958639526365,15.794250579833985,278.5145863952637,15.092250579833983Q277.79958639526365,14.390250579833985,276.79858639526367,13.987250579833985Q275.7975863952637,13.584250579833984,274.54958639526365,13.584250579833984L264.53958639526365,13.584250579833984ZM302.96758639526365,25.128250579833985L302.96758639526365,13.584250579833984L298.88558639526366,13.584250579833984L298.88558639526366,25.128250579833985Q298.88558639526366,27.208250579833983,298.05358639526366,28.183250579833985Q297.22158639526367,29.158250579833986,295.0375863952637,29.158250579833986Q293.78958639526365,29.158250579833986,293.04858639526367,28.807250579833983Q292.3075863952637,28.456250579833984,291.8915863952637,27.897250579833983Q291.4755863952637,27.338250579833986,291.3455863952637,26.610250579833984Q291.2155863952637,25.882250579833986,291.2155863952637,25.128250579833985L291.2155863952637,13.584250579833984L287.13358639526365,13.584250579833984L287.13358639526365,25.128250579833985Q287.13358639526365,28.924250579833984,289.20058639526366,30.744250579833984Q291.26758639526366,32.56425057983398,295.0375863952637,32.56425057983398Q298.75558639526366,32.56425057983398,300.86158639526366,30.731250579833983Q302.96758639526365,28.898250579833984,302.96758639526365,25.128250579833985ZM310.3775863952637,13.584250579833984L310.3775863952637,32.148250579833984L314.1995863952637,32.148250579833984L314.1995863952637,19.720250579833984L314.25158639526364,19.720250579833984L321.9735863952637,32.148250579833984L326.0555863952637,32.148250579833984L326.0555863952637,13.584250579833984L322.23358639526367,13.584250579833984L322.23358639526367,26.038250579833985L322.18158639526365,26.038250579833985L314.43358639526366,13.584250579833984L310.3775863952637,13.584250579833984Z" fill="#000000" fill-opacity="1"/></g></g></g></svg>