<svg xmlns="http://www.w3.org/2000/svg" width="326.056" height="44.296" fill="none"><path fill="#FFF" d="M28.866 29.614c-1.591-1.207-2.829-2.84-3.427-4.745a7.405 7.405 0 0 0-12.858-2.382c-.581.732-1 1.538-1.267 2.377a9.433 9.433 0 0 1-3.428 4.78 8.092 8.092 0 0 0-3.32 6.9c.175 4.108 3.459 7.47 7.561 7.735a8.11 8.11 0 0 0 3.897-.71c1.51-.689 3.25-.687 4.776-.036a8.079 8.079 0 0 0 3.53.64c4.254-.183 7.673-3.691 7.75-7.947a8.09 8.09 0 0 0-3.212-6.61l-.002-.002ZM33.1 13.833a2.691 2.691 0 0 0-.285-1.959 2.701 2.701 0 0 0-2.757-1.327 2.71 2.71 0 0 1 .903 2.803l-2.035 7.606.051-.06-.486 1.814h.003a3.73 3.73 0 0 0 7.204 1.931h.004l.026-.096.653-2.436a7.465 7.465 0 0 0-3.28-8.277l-.002.001ZM8.142 22.712h.003l-.487-1.816.051.06-2.034-7.605a2.687 2.687 0 0 1 .264-2.05c.164-.287.38-.541.639-.754a2.669 2.669 0 0 0-1.12.064 2.695 2.695 0 0 0-1.922 3.223 7.465 7.465 0 0 0-3.28 8.277l.653 2.436.026.098H.94a3.732 3.732 0 0 0 7.204-1.93l-.001-.003ZM8.904 16.469h.006a4.315 4.315 0 0 0 8.447-1.705h.007l-.046-.23-.005-.026-2.138-10.635a3.72 3.72 0 0 1 .542-2.805 3.75 3.75 0 0 1 .945-.98 3.694 3.694 0 0 0-1.55-.01 3.727 3.727 0 0 0-2.367 1.6 3.719 3.719 0 0 0-.545 2.788 8.631 8.631 0 0 0-3.895 9.031l.599 2.972ZM22.933 19.617a4.314 4.314 0 0 0 5.03-3.149h.007l.599-2.971a8.634 8.634 0 0 0-3.896-9.032 3.724 3.724 0 0 0-.543-2.788 3.723 3.723 0 0 0-2.368-1.6 3.721 3.721 0 0 0-1.549.01A3.726 3.726 0 0 1 21.7 3.872l-2.142 10.65v.01h-.001l-.046.229h.007a4.315 4.315 0 0 0 3.417 4.854l-.002.001ZM59.188 16.185c1.264 0 2.223.368 2.855 1.087.355.409.657 1.036.888 1.859l.054.185h4.238l-.012-.272c-.058-1.17-.496-2.347-1.297-3.503-1.45-2.058-3.76-3.099-6.875-3.099-2.33 0-4.28.777-5.791 2.305-1.731 1.748-2.61 4.26-2.61 7.47 0 2.966.772 5.337 2.292 7.051 1.528 1.714 3.656 2.586 6.316 2.586 2.156 0 3.953-.644 5.342-1.917 1.375-1.268 2.243-2.933 2.577-4.949l.05-.301H62.98l-.05.19c-.244.892-.545 1.561-.909 2-.648.809-1.574 1.201-2.821 1.201-1.248 0-2.198-.462-2.991-1.42-.793-.955-1.194-2.43-1.194-4.384 0-1.954.384-3.49 1.14-4.544.748-1.045 1.74-1.553 3.036-1.553l-.004.008ZM78.553 12.785h-4.284V31.35h13.223v-3.759h-8.94V12.785ZM105.816 12.785h-4.626L94.563 31.35h4.495l1.248-3.71h6.275l1.165 3.71h4.643l-6.514-18.391-.063-.174h.004Zm-.45 11.229h-3.87l1.966-6.003 1.904 6.003ZM134.839 12.785l-2.462 10.654-.29 1.471-.305-1.582-2.186-10.543h-4.403l-2.074 10.609-.265 1.43-.268-1.504-2.437-10.535H115.6l5.263 18.565h3.909l2.222-10.765.384-2.099.384 2.103 2.222 10.761h4.008l5.225-18.565h-4.378ZM159.75 14.449c1.244 1.198 1.934 2.565 2.07 4.09h-2.375c-.265-1.161-.793-2.078-1.582-2.756-.79-.677-1.896-1.016-3.326-1.016-1.739 0-3.144.624-4.214 1.867-1.07 1.248-1.606 3.156-1.606 5.73 0 2.107.483 3.817 1.45 5.13.966 1.31 2.408 1.967 4.325 1.967 1.764 0 3.107-.69 4.028-2.07.487-.726.855-1.68 1.095-2.866h2.375c-.21 1.892-.905 3.482-2.083 4.763-1.412 1.54-3.317 2.313-5.713 2.313-2.065 0-3.8-.632-5.205-1.9-1.846-1.673-2.772-4.26-2.772-7.758 0-2.657.695-4.834 2.082-6.531 1.5-1.847 3.57-2.768 6.21-2.768 2.25 0 3.998.599 5.241 1.8v.005ZM169.319 13.136h2.437v15.847h9.026v2.144h-11.46V13.141l-.003-.005ZM203.715 15.711c1.19 1.59 1.788 3.627 1.788 6.11 0 2.685-.681 4.92-2.045 6.696-1.598 2.09-3.883 3.136-6.845 3.136-2.768 0-4.945-.913-6.527-2.743-1.413-1.764-2.119-3.99-2.119-6.684 0-2.434.603-4.516 1.814-6.246 1.549-2.219 3.845-3.33 6.882-3.33 3.036 0 5.527 1.02 7.052 3.061Zm-2.149 11.468c.959-1.541 1.438-3.31 1.438-5.313 0-2.115-.554-3.82-1.66-5.11-1.108-1.293-2.62-1.937-4.536-1.937-1.917 0-3.38.64-4.557 1.917-1.178 1.28-1.764 3.164-1.764 5.655 0 1.995.504 3.677 1.512 5.044 1.008 1.367 2.644 2.053 4.903 2.053 2.26 0 3.702-.768 4.66-2.31h.004ZM215.22 13.14v11.117c0 1.306.248 2.392.74 3.256.73 1.305 1.966 1.958 3.701 1.958 2.082 0 3.495-.707 4.247-2.12.405-.768.603-1.8.603-3.098V13.136h2.462v10.1c0 2.215-.297 3.917-.896 5.107-1.1 2.173-3.17 3.255-6.217 3.255-3.05 0-5.115-1.086-6.206-3.255-.598-1.19-.895-2.896-.895-5.106v-10.1h2.461v.004ZM234.076 13.136h7.188c2.442 0 4.334.876 5.68 2.632 1.203 1.582 1.802 3.61 1.802 6.085 0 1.909-.356 3.635-1.062 5.18-1.248 2.727-3.396 4.09-6.44 4.09h-7.168V13.136Zm6.713 15.905c.806 0 1.47-.087 1.987-.256.925-.318 1.685-.93 2.277-1.838.47-.728.81-1.657 1.016-2.793.12-.678.177-1.305.177-1.884 0-2.226-.433-3.957-1.297-5.193-.868-1.23-2.26-1.85-4.185-1.85h-4.225V29.04h4.25ZM268.622 21.982v-5.226h4.472q1.404 0 2.106.611t.702 1.963q0 1.404-.702 2.028-.702.624-2.106.624h-4.472Zm-4.082-8.398v18.564h4.082v-7.254h4.082q1.534 0 2.21.676.676.676.884 2.132.156 1.118.234 2.34.078 1.222.416 2.106h4.082q-.286-.39-.43-.949-.142-.559-.207-1.183t-.091-1.222q-.026-.598-.052-1.04-.052-.702-.195-1.404-.143-.702-.455-1.287-.312-.585-.806-1.014-.494-.429-1.248-.637v-.052q1.56-.624 2.249-1.82.689-1.196.689-2.834 0-1.066-.377-1.989t-1.092-1.625q-.715-.702-1.716-1.105t-2.25-.403h-10.01Zm38.428 11.544V13.584h-4.082v11.544q0 2.08-.832 3.055-.832.975-3.016.975-1.248 0-1.99-.35-.74-.352-1.156-.91-.416-.56-.546-1.288-.13-.728-.13-1.482V13.584h-4.082v11.544q0 3.796 2.067 5.616 2.067 1.82 5.837 1.82 3.718 0 5.824-1.833t2.106-5.603Zm7.41-11.544v18.564h3.822V19.72h.052l7.722 12.428h4.082V13.584h-3.822v12.454h-.052l-7.748-12.454h-4.056Z"/></svg>