<svg width="20" height="20" viewBox="0 0 20 20" fill="none" xmlns="http://www.w3.org/2000/svg">
<path d="M12.5003 1.66669V3.33335M12.5003 16.6667V18.3334M1.66699 12.5H3.33366M1.66699 7.50002H3.33366M16.667 12.5H18.3337M16.667 7.50002H18.3337M7.50033 1.66669V3.33335M7.50033 16.6667V18.3334M5.00033 3.33335H15.0003C15.9208 3.33335 16.667 4.07955 16.667 5.00002V15C16.667 15.9205 15.9208 16.6667 15.0003 16.6667H5.00033C4.07985 16.6667 3.33366 15.9205 3.33366 15V5.00002C3.33366 4.07955 4.07985 3.33335 5.00033 3.33335ZM8.33366 7.50002H11.667C12.1272 7.50002 12.5003 7.87312 12.5003 8.33335V11.6667C12.5003 12.1269 12.1272 12.5 11.667 12.5H8.33366C7.87342 12.5 7.50033 12.1269 7.50033 11.6667V8.33335C7.50033 7.87312 7.87342 7.50002 8.33366 7.50002Z" stroke="#A3A3A3" stroke-width="1.33" stroke-linecap="round" stroke-linejoin="round"/>
</svg>
