<svg width="20" height="20" viewBox="0 0 20 20" fill="none" xmlns="http://www.w3.org/2000/svg">
<path d="M5.00033 15.8334V13.3334M8.33366 15.8334V13.3334M11.667 15.8334V13.3334M15.0003 15.8334V13.3334M6.66699 9.16669V7.50002M13.3337 9.16669V7.50002M10.0003 9.16669V7.50002M1.66699 12.5H18.3337M1.66699 5.83335C1.66699 5.39133 1.84259 4.9674 2.15515 4.65484C2.46771 4.34228 2.89163 4.16669 3.33366 4.16669H16.667C17.109 4.16669 17.5329 4.34228 17.8455 4.65484C18.1581 4.9674 18.3337 5.39133 18.3337 5.83335V6.75002C17.9885 6.8517 17.6855 7.06238 17.4699 7.35055C17.2544 7.63872 17.1379 7.98891 17.1379 8.34877C17.1379 8.70863 17.2544 9.05882 17.4699 9.34699C17.6855 9.63516 17.9885 9.84584 18.3337 9.94752V14.1667C18.3337 14.6087 18.1581 15.0326 17.8455 15.3452C17.5329 15.6578 17.109 15.8334 16.667 15.8334H3.33366C2.89163 15.8334 2.46771 15.6578 2.15515 15.3452C1.84259 15.0326 1.66699 14.6087 1.66699 14.1667V9.91669C2.01218 9.81501 2.3152 9.60433 2.53073 9.31616C2.74626 9.02799 2.86273 8.67779 2.86273 8.31794C2.86273 7.95808 2.74626 7.60789 2.53073 7.31972C2.3152 7.03154 2.01218 6.82087 1.66699 6.71919V5.83335Z" stroke="#A3A3A3" stroke-width="1.33" stroke-linecap="round" stroke-linejoin="round"/>
</svg>
