<svg width="16" height="16" viewBox="0 0 16 16" fill="currentColor" xmlns="http://www.w3.org/2000/svg">
<path d="M7.99992 8.66663C8.36811 8.66663 8.66659 8.36815 8.66659 7.99996C8.66659 7.63177 8.36811 7.33329 7.99992 7.33329C7.63173 7.33329 7.33325 7.63177 7.33325 7.99996C7.33325 8.36815 7.63173 8.66663 7.99992 8.66663Z" stroke="currentColor" stroke-width="1.33" stroke-linecap="round" stroke-linejoin="round"/>
<path d="M7.99992 3.99996C8.36811 3.99996 8.66659 3.70148 8.66659 3.33329C8.66659 2.9651 8.36811 2.66663 7.99992 2.66663C7.63173 2.66663 7.33325 2.9651 7.33325 3.33329C7.33325 3.70148 7.63173 3.99996 7.99992 3.99996Z" stroke="currentColor" stroke-width="1.33" stroke-linecap="round" stroke-linejoin="round"/>
<path d="M7.99992 13.3333C8.36811 13.3333 8.66659 13.0348 8.66659 12.6666C8.66659 12.2984 8.36811 12 7.99992 12C7.63173 12 7.33325 12.2984 7.33325 12.6666C7.33325 13.0348 7.63173 13.3333 7.99992 13.3333Z" stroke="currentColor" stroke-width="1.33" stroke-linecap="round" stroke-linejoin="round"/>
</svg>
