<svg width="16" height="16" viewBox="0 0 16 16" fill="none" xmlns="http://www.w3.org/2000/svg">
<path d="M8.00008 13.3333H14.0001M10.0001 3.33329L12.0001 5.33329M10.9174 2.41461C11.1828 2.14922 11.5427 2.00012 11.9181 2.00012C12.2934 2.00012 12.6533 2.14922 12.9187 2.41461C13.1841 2.68001 13.3332 3.03996 13.3332 3.41528C13.3332 3.7906 13.1841 4.15055 12.9187 4.41595L4.91207 12.4233C4.75346 12.5819 4.55741 12.6979 4.34207 12.7606L2.4274 13.3193C2.37003 13.336 2.30923 13.337 2.25134 13.3222C2.19345 13.3074 2.14062 13.2772 2.09836 13.235C2.05611 13.1927 2.02599 13.1399 2.01116 13.082C1.99633 13.0241 1.99733 12.9633 2.01407 12.9059L2.57273 10.9913C2.63555 10.7762 2.75156 10.5804 2.91007 10.4219L10.9174 2.41461Z" stroke="#737373" stroke-width="1.33" stroke-linecap="round" stroke-linejoin="round"/>
</svg>
