<svg width="20" height="20" viewBox="0 0 20 20" fill="none" xmlns="http://www.w3.org/2000/svg">
<path d="M3.91683 16.0833L15.8335 4.16667M7.71667 6.39994L4.16667 9.99994L5.83333 14.1666M8.33333 11.6667L12.5 13.3333L15.4167 10.4167M9.16667 5.83333C9.16667 6.29357 8.79357 6.66667 8.33333 6.66667C7.8731 6.66667 7.5 6.29357 7.5 5.83333C7.5 5.3731 7.8731 5 8.33333 5C8.79357 5 9.16667 5.3731 9.16667 5.83333ZM4.16667 16.6667C4.16667 17.1269 3.79357 17.5 3.33333 17.5C2.8731 17.5 2.5 17.1269 2.5 16.6667C2.5 16.2064 2.8731 15.8333 3.33333 15.8333C3.79357 15.8333 4.16667 16.2064 4.16667 16.6667ZM17.5 2.5L15 3.33333L16.6667 5L17.5 2.5ZM15 10L15.8333 9.16667L16.6667 10L15.8333 10.8333L15 10Z" stroke="#A3A3A3" stroke-width="1.33" stroke-linecap="round" stroke-linejoin="round"/>
</svg>
