<svg width="14" height="14" viewBox="0 0 14 14" fill="none" xmlns="http://www.w3.org/2000/svg">
<path d="M12.3333 1H1.66667C1.29848 1 1 1.29848 1 1.66667V5C1 5.36819 1.29848 5.66667 1.66667 5.66667H12.3333C12.7015 5.66667 13 5.36819 13 5V1.66667C13 1.29848 12.7015 1 12.3333 1Z" stroke="#737373" stroke-width="1.33" stroke-linecap="round" stroke-linejoin="round"/>
<path d="M6.33333 8.33333H1.66667C1.29848 8.33333 1 8.63181 1 9V12.3333C1 12.7015 1.29848 13 1.66667 13H6.33333C6.70152 13 7 12.7015 7 12.3333V9C7 8.63181 6.70152 8.33333 6.33333 8.33333Z" stroke="#737373" stroke-width="1.33" stroke-linecap="round" stroke-linejoin="round"/>
<path d="M12.3333 8.33333H10.3333C9.96514 8.33333 9.66667 8.63181 9.66667 9V12.3333C9.66667 12.7015 9.96514 13 10.3333 13H12.3333C12.7015 13 13 12.7015 13 12.3333V9C13 8.63181 12.7015 8.33333 12.3333 8.33333Z" stroke="#737373" stroke-width="1.33" stroke-linecap="round" stroke-linejoin="round"/>
</svg>
